<svg width="20" height="20" viewBox="0 0 20 20" fill="none" xmlns="http://www.w3.org/2000/svg">
<path d="M7.8916 12.7334C7.73327 12.7334 7.57493 12.6751 7.44993 12.5501C6.7666 11.8667 6.3916 10.9584 6.3916 10.0001C6.3916 8.00839 8.00827 6.39172 9.99993 6.39172C10.9583 6.39172 11.8666 6.76672 12.5499 7.45006C12.6666 7.56672 12.7333 7.72506 12.7333 7.89172C12.7333 8.05839 12.6666 8.21672 12.5499 8.33339L8.33327 12.5501C8.20827 12.6751 8.04994 12.7334 7.8916 12.7334ZM9.99993 7.64172C8.69993 7.64172 7.6416 8.70006 7.6416 10.0001C7.6416 10.4167 7.74993 10.8167 7.94993 11.1667L11.1666 7.95006C10.8166 7.75006 10.4166 7.64172 9.99993 7.64172Z" fill="#333333"/>
<path d="M4.66678 15.4249C4.52511 15.4249 4.37511 15.3749 4.25845 15.2749C3.36678 14.5166 2.56678 13.5833 1.88345 12.4999C1.00011 11.1249 1.00011 8.88328 1.88345 7.49994C3.91678 4.31661 6.87511 2.48328 10.0001 2.48328C11.8334 2.48328 13.6418 3.11661 15.2251 4.30828C15.5001 4.51661 15.5584 4.90828 15.3501 5.18328C15.1418 5.45828 14.7501 5.51661 14.4751 5.30828C13.1084 4.27494 11.5584 3.73328 10.0001 3.73328C7.30845 3.73328 4.73345 5.34994 2.93345 8.17494C2.30845 9.14994 2.30845 10.8499 2.93345 11.8249C3.55845 12.7999 4.27511 13.6416 5.06678 14.3249C5.32511 14.5499 5.35845 14.9416 5.13345 15.2083C5.01678 15.3499 4.84178 15.4249 4.66678 15.4249Z" fill="#333333"/>
<path d="M9.99989 17.5167C8.89156 17.5167 7.80822 17.2917 6.76656 16.85C6.44989 16.7167 6.29989 16.35 6.43322 16.0334C6.56656 15.7167 6.93322 15.5667 7.24989 15.7C8.13322 16.075 9.05822 16.2667 9.99156 16.2667C12.6832 16.2667 15.2582 14.65 17.0582 11.825C17.6832 10.85 17.6832 9.15004 17.0582 8.17504C16.7999 7.76671 16.5166 7.37504 16.2166 7.00837C15.9999 6.74171 16.0416 6.35004 16.3082 6.12504C16.5749 5.90837 16.9666 5.94171 17.1916 6.21671C17.5166 6.61671 17.8332 7.05004 18.1166 7.50004C18.9999 8.87504 18.9999 11.1167 18.1166 12.5C16.0832 15.6834 13.1249 17.5167 9.99989 17.5167Z" fill="#333333"/>
<path d="M10.5749 13.5584C10.2832 13.5584 10.0166 13.35 9.95824 13.05C9.89157 12.7084 10.1166 12.3834 10.4582 12.325C11.3749 12.1584 12.1416 11.3917 12.3082 10.475C12.3749 10.1334 12.6999 9.91671 13.0416 9.97504C13.3832 10.0417 13.6082 10.3667 13.5416 10.7084C13.2749 12.15 12.1249 13.2917 10.6916 13.5584C10.6499 13.55 10.6166 13.5584 10.5749 13.5584Z" fill="#333333"/>
<path d="M1.66662 18.9584C1.50828 18.9584 1.34995 18.9001 1.22495 18.7751C0.983285 18.5334 0.983285 18.1334 1.22495 17.8917L7.44995 11.6667C7.69162 11.4251 8.09162 11.4251 8.33329 11.6667C8.57495 11.9084 8.57495 12.3084 8.33329 12.5501L2.10828 18.7751C1.98328 18.9001 1.82495 18.9584 1.66662 18.9584Z" fill="#333333"/>
<path d="M12.1083 8.51662C11.9499 8.51662 11.7916 8.45829 11.6666 8.33329C11.4249 8.09162 11.4249 7.69162 11.6666 7.44995L17.8916 1.22495C18.1333 0.983285 18.5333 0.983285 18.7749 1.22495C19.0166 1.46662 19.0166 1.86662 18.7749 2.10828L12.5499 8.33329C12.4249 8.45829 12.2666 8.51662 12.1083 8.51662Z" fill="#333333"/>
</svg>
