<svg width="260" height="50" viewBox="0 0 260 50" fill="none" xmlns="http://www.w3.org/2000/svg">
<path d="M28.647 1.71817C29.057 1.14308 29.3996 0.518403 29.8852 0C30.5658 0.645937 31.0112 1.48554 31.5394 2.25074C34.5713 6.58926 37.5322 10.975 40.5593 15.3171C42.8527 18.7227 45.2513 22.0563 47.5376 25.4667C48.8385 27.2486 50.0176 29.1156 51.3044 30.9093C52.6679 32.8908 54.0361 34.8688 55.3949 36.8526C55.9892 37.7525 56.6733 38.5932 57.1885 39.545C52.4587 35.2608 46.6597 32.1705 40.4684 30.6235C39.8102 30.4452 39.1273 30.3555 38.4869 30.1158C41.8744 29.4108 45.282 28.818 48.6778 28.1614C47.4939 28.126 46.3099 28.0705 45.1249 28.0788C43.8275 27.9725 42.5243 28.0977 41.2269 27.9772C39.249 27.956 37.2711 27.9548 35.2932 27.9217C35.8615 27.1978 36.6886 26.7456 37.3597 26.1291C39.3861 24.3307 41.5684 22.7164 43.5912 20.9168C42.5136 21.3254 41.5341 21.9418 40.4837 22.4094C39.106 23.0837 37.7425 23.7863 36.3495 24.4287C35.5059 24.8337 34.7083 25.338 33.821 25.6438C34.2759 24.4783 34.8052 23.3435 35.2955 22.1921C36.1545 20.1126 37.069 18.0555 37.9635 15.9902C38.24 15.3549 38.5495 14.7302 38.7398 14.0618C38.0781 14.8329 37.5677 15.7162 36.9627 16.5287C35.1644 19.0982 33.372 21.6737 31.5323 24.2138C31.3173 23.3659 31.4189 22.4862 31.3149 21.6253C31.0869 18.3968 30.9002 15.1659 30.652 11.9398C30.5871 9.84729 30.3141 7.77013 30.274 5.67645C30.157 4.92778 30.2149 4.16611 30.092 3.41744C30.1014 2.54714 29.8947 1.69219 29.9526 0.820705C29.7848 1.63078 29.8061 2.46566 29.7151 3.28518C29.5296 5.73313 29.415 8.1858 29.2224 10.6314C29.1751 12.5279 28.9081 14.409 28.862 16.3055C28.7545 17.5773 28.7108 18.8514 28.595 20.122C28.4922 20.7538 28.5595 21.3974 28.4815 22.0315C28.3787 22.7554 28.4567 23.4934 28.2889 24.2102C27.2326 22.8322 26.2685 21.3856 25.263 19.9697C24.7029 19.0876 24.0188 18.2929 23.4623 17.4084C22.7073 16.4188 22.1012 15.3124 21.2564 14.396C21.4431 15.1494 21.807 15.8426 22.0775 16.5676C22.9968 18.6731 23.883 20.7928 24.8187 22.8924C25.1838 23.8406 25.7096 24.7239 25.9897 25.704C24.6391 25.0132 23.2662 24.3685 21.9145 23.6788C20.0606 22.8345 18.2942 21.7989 16.4049 21.0313C16.8043 21.5049 17.3112 21.8638 17.7826 22.2606C19.458 23.6115 21.0957 25.0097 22.764 26.37C23.3513 26.9062 24.0271 27.3407 24.5742 27.9193C23.2331 27.9619 21.8909 27.9264 20.5498 27.9689C19.0114 27.9323 17.479 28.0693 15.9406 28.0315C14.362 28.1118 12.7787 28.0658 11.2002 28.165C14.7933 28.8853 18.4112 29.4911 21.9984 30.2374C21.1701 30.5232 20.304 30.6708 19.4628 30.914C18.1099 31.3002 16.7854 31.7808 15.468 32.2732C14.2061 32.8412 12.9335 33.3903 11.7118 34.0422C9.95012 35.0341 8.21442 36.0827 6.60161 37.3061C4.84228 38.5968 3.23537 40.0835 1.72889 41.6588C1.55048 41.8607 1.32835 42.0225 1.0625 42.0839C1.83169 40.7141 2.8171 39.4777 3.67254 38.1622C5.99901 34.7802 8.30776 31.3876 10.6248 28.0008C11.778 26.3948 12.8425 24.7274 13.9957 23.1215C14.6231 22.0669 15.403 21.1163 16.0587 20.0795C19.4663 15.1033 22.8786 10.1283 26.2969 5.15805C27.0566 3.99489 27.8541 2.85889 28.647 1.71817Z" fill="#F7941D"/>
<path d="M193.204 37.4114C194.538 36.4759 196.432 36.5683 197.74 37.5074C198.441 38.0445 198.812 38.884 199.085 39.6985C198.461 40.0347 197.797 40.2783 197.14 40.5362C196.846 39.9938 196.535 39.3642 195.914 39.1419C195.349 38.9818 194.662 39.0636 194.24 39.5047C193.81 40.0453 194.005 41.004 194.681 41.253C195.465 41.5873 196.332 41.6745 197.113 42.0248C198.191 42.4286 199.026 43.405 199.242 44.5361C199.656 45.966 199.126 47.5133 198.223 48.6427C196.817 50.0566 194.36 50.1118 192.75 49.0144C191.885 48.3475 191.287 47.3017 191.259 46.2026C191.931 45.9909 192.613 45.8078 193.304 45.6584C193.619 46.2684 193.857 47.131 194.624 47.2981C195.345 47.5347 196.225 47.4049 196.742 46.8197C197.096 46.2791 197.08 45.3311 196.393 45.0643C195.202 44.4988 193.791 44.3974 192.747 43.5259C191.821 42.7914 191.662 41.5126 191.714 40.4099C191.801 39.2824 192.226 38.0712 193.204 37.4114Z" fill="#F7941D"/>
<path d="M140.97 37.0268C143.394 37.0179 145.815 37.0285 148.238 37.0214C148.333 37.8342 148.326 38.6559 148.299 39.4758C147.475 39.4953 146.649 39.5025 145.824 39.5007C145.758 42.8745 145.894 46.2537 145.753 49.6258C144.98 49.6898 144.204 49.6809 143.433 49.624C143.388 46.2502 143.431 42.8745 143.41 39.4989C142.587 39.5025 141.763 39.5025 140.942 39.4438C140.885 38.6381 140.874 37.8289 140.97 37.0268Z" fill="#F7941D"/>
<path d="M156.037 37.0688C156.977 36.7843 158.044 36.8252 158.929 37.2662C160.064 37.8905 160.61 39.1283 161.04 40.2826C161.615 41.7908 161.422 43.4306 161.404 45.0081C161.194 46.3687 160.746 47.7737 159.77 48.7911C158.869 49.755 157.386 50.1018 156.135 49.6945C155.087 49.4278 154.359 48.5349 153.865 47.6279C153.29 46.623 153.06 45.4706 152.946 44.3323C152.744 43.2403 152.973 42.1394 153.139 41.0616C153.462 39.4093 154.345 37.6575 156.037 37.0688ZM156.592 39.4236C155.551 40.2826 155.425 41.789 155.375 43.05C155.405 44.3856 155.348 45.9312 156.281 47.0054C156.97 47.7862 158.33 47.3273 158.601 46.3811C158.995 45.001 159.208 43.532 158.958 42.1056C158.828 41.1505 158.681 40.0389 157.862 39.4111C157.443 39.3382 157.007 39.34 156.592 39.4236Z" fill="#F7941D"/>
<path d="M166 37.043C166.842 37.0181 167.684 37.0199 168.527 37.0235C168.521 39.3231 168.528 41.6227 168.519 43.9224C168.514 44.6925 168.65 45.4554 168.753 46.2166C168.969 47.5968 171.212 47.748 171.787 46.5457C172.029 46.0014 172.044 45.3932 172.049 44.8098C172.049 42.2168 172.04 39.6237 172.051 37.0324C172.717 37.0164 173.382 37.0217 174.049 37.0324C174.046 39.9225 174.053 42.8143 174.046 45.7044C173.998 46.9192 173.734 48.3064 172.638 49.0249C171.61 49.8537 170.224 49.7808 168.983 49.6776C167.945 49.5603 167.042 48.8577 166.544 47.9632C166.144 47.0792 166.137 46.0868 166.021 45.1406C165.978 42.4408 166.028 39.7411 166 37.043Z" fill="#F7941D"/>
<path d="M178.602 37.0484C180.236 37.0182 181.871 37.0182 183.505 37.0253C184.505 37.02 185.507 37.5144 186.016 38.3894C186.73 39.6042 186.856 41.1693 186.318 42.4747C186.071 43.1239 185.488 43.5294 185.026 44.0131C185.033 44.8366 185.468 45.5978 185.688 46.3839C186.018 47.4172 186.405 48.4327 186.708 49.4749C185.868 49.5568 185.026 49.5372 184.185 49.5034C183.689 48.0148 183.232 46.5137 182.743 45.0233C182.543 44.2461 181.591 44.6214 181.02 44.6C180.871 46.2398 180.991 47.8867 180.943 49.5301C180.161 49.5372 179.38 49.5354 178.6 49.5247C178.612 45.3666 178.607 41.2066 178.602 37.0484ZM180.991 39.252C180.927 40.2907 180.929 41.3329 180.987 42.3715C181.753 42.3875 182.542 42.5049 183.295 42.3146C183.855 42.2008 184.11 41.605 184.126 41.0892C184.16 40.5308 184.167 39.8585 183.684 39.4779C182.852 39.0528 181.885 39.2289 180.991 39.252Z" fill="#F7941D"/>
<path d="M16.8075 36.7335C21.5396 34.811 26.6888 33.9537 31.7884 34.1214C33.862 34.1651 35.9357 34.367 37.9656 34.798C43.1183 35.7533 48.017 37.9143 52.3167 40.8901C53.8267 42.0037 55.3024 43.168 56.66 44.4658C57.4375 45.1023 58.0602 45.8959 58.749 46.6221C59.6612 47.7061 60.6454 48.7488 61.3732 49.971C58.9168 50.0254 56.458 49.9793 54.0015 49.9947C38.1688 49.9947 22.336 49.9947 6.50325 49.9947C4.33629 49.9746 2.16578 50.036 0 49.964C0.757373 48.7394 1.72861 47.6683 2.6644 46.5796C6.54106 42.2753 11.409 38.852 16.8075 36.7335Z" fill="#01BABD"/>
<path d="M109.755 38.3508C111.385 36.6584 114.045 36.3945 116.18 37.171C116.041 37.82 115.917 38.4782 115.839 39.1424C114.517 38.7936 112.955 38.5783 111.788 39.467C110.605 40.4557 110.366 42.1027 110.463 43.5616C110.381 45.0842 111.107 46.8282 112.638 47.3468C113.688 47.5531 114.768 47.3862 115.82 47.274C115.896 47.9292 115.987 48.5873 116.087 49.2455C113.969 49.6095 111.376 49.8642 109.73 48.1779C108.375 46.9343 107.973 45.0205 108.085 43.2461C107.976 41.4779 108.469 39.6216 109.755 38.3508Z" fill="#01BABD"/>
<path d="M76.3661 37.6779C77.8697 36.6861 79.8301 36.859 81.4214 37.5445C81.2822 38.1359 81.1552 38.7334 81.0311 39.337C80.06 39.2308 79.0859 38.9397 78.1057 39.067C77.2677 39.2612 76.9712 40.3045 77.3524 41.0082C78.3961 42.3609 80.3535 42.5823 81.3427 43.9957C82.1051 45.2696 82.1354 47.0773 81.134 48.239C80.3867 49.1913 79.2039 49.6888 78.03 49.8404C76.9167 49.9617 75.8488 49.5523 74.793 49.2641C74.8202 48.5908 74.911 47.9235 75.0955 47.2805C76.2481 47.4292 77.4492 48.063 78.5988 47.5565C79.585 47.3351 79.8089 45.9521 79.1797 45.2636C78.145 44.0109 76.2179 43.8532 75.3829 42.3882C74.2998 40.9111 74.8535 38.6363 76.3661 37.6779Z" fill="#01BABD"/>
<path d="M94.3482 37.0155C95.1832 36.9912 96.0181 36.9852 96.8531 37.0034C98.3567 39.8696 99.7241 42.8056 101.025 45.7719C101.001 42.842 100.88 39.9151 100.946 36.9852C101.639 36.9912 102.332 36.9912 103.025 36.9821C103.109 41.1435 103.064 45.3078 103.055 49.4722C102.305 49.4904 101.557 49.5056 100.807 49.5298C99.2371 46.4877 97.6518 43.4425 96.4145 40.2457C96.5476 43.3424 96.5657 46.4452 96.5143 49.545C95.8003 49.5146 95.0864 49.5025 94.3724 49.4934C94.3603 45.3351 94.4026 41.1738 94.3482 37.0155Z" fill="#01BABD"/>
<path d="M121.175 37.0035C123.311 36.9732 125.444 36.9732 127.577 37.0157C127.559 37.6587 127.553 38.3047 127.562 38.9508C126.215 38.972 124.869 38.972 123.523 39.0084C123.508 40.0153 123.514 41.0284 123.529 42.0414C124.806 42.0172 126.082 42.0718 127.356 42.1476C127.344 42.7178 127.338 43.288 127.341 43.8643C126.097 44.2131 124.8 44.0796 123.529 44.1342C123.508 45.2474 123.523 46.3605 123.538 47.4736C124.954 47.4615 126.37 47.4736 127.785 47.4857C127.77 48.1651 127.743 48.8476 127.692 49.533C125.52 49.4966 123.344 49.5058 121.172 49.524C121.178 45.3505 121.178 41.177 121.175 37.0035Z" fill="#01BABD"/>
<path d="M86.8932 37.2553C87.6949 37.2038 88.4996 37.2007 89.3013 37.222C89.3225 41.3469 89.4435 45.4809 89.2408 49.6029C88.4633 49.5847 87.6858 49.5877 86.9114 49.6119C86.8962 45.4931 86.8993 41.3742 86.8932 37.2553Z" fill="#01BABD"/>
<path d="M225.103 37.5383C226.153 36.6954 227.612 36.6419 228.889 36.8715C230.535 37.2646 231.588 38.8434 231.934 40.4159C232.461 43.0703 231.909 46.0801 229.92 48.0237C228.464 49.4358 226.383 49.9641 224.4 49.7691C224.397 49.2062 224.388 48.6464 224.378 48.0928C225.708 47.7878 227.187 47.6148 228.218 46.6241C228.911 46.0738 229.11 45.1837 229.378 44.388C227.843 45.2183 225.743 45.4196 224.381 44.1553C222.515 42.3721 222.982 38.9346 225.103 37.5383ZM226.919 38.7082C225.92 39.1862 225.847 40.4631 225.91 41.4318C225.834 42.3281 226.396 43.3062 227.357 43.4037C228.192 43.6332 228.977 43.0357 229.381 42.347C229.57 41.0607 229.349 39.5227 228.259 38.6767C227.89 38.3276 227.329 38.6076 226.919 38.7082Z" fill="#01BABD"/>
<path d="M254.368 36.9725C256.231 36.268 258.356 37.3499 259.16 39.0985C260.115 41.2465 260.2 43.7185 259.686 45.9923C259.343 47.5994 258.422 49.2757 256.739 49.7663C255.538 49.9078 254.163 50.0148 253.192 49.1562C251.79 48.1875 251.478 46.4106 251.184 44.857C250.784 43.1461 251.222 41.3944 251.679 39.7464C252.067 38.4601 253.092 37.3971 254.368 36.9725ZM255.55 38.7966C254.904 39.0042 254.378 39.5105 254.154 40.149C253.587 41.7969 253.665 43.5864 253.81 45.2973C254.047 46.3226 254.28 47.7535 255.506 48.0177C256.625 47.8259 257.083 46.6056 257.224 45.6212C257.275 44.1525 257.303 42.6807 257.206 41.2151C257.023 40.259 256.736 38.8972 255.55 38.7966Z" fill="#01BABD"/>
<path d="M212.5 38.7626C214.215 37.8883 215.961 36.6209 218.004 37.0926C217.995 41.3321 218.042 45.5715 217.979 49.8078C217.103 49.7858 216.226 49.7858 215.353 49.8046C215.258 46.386 215.444 42.9643 215.271 39.5488C214.508 39.8099 213.77 40.137 213.042 40.4798C212.859 39.9074 212.677 39.335 212.5 38.7626Z" fill="#01BABD"/>
<path d="M237.346 37.1179C240.167 36.9889 243.008 36.8977 245.826 37.1525C245.753 37.7437 245.756 38.3633 245.529 38.9262C243.922 42.5493 242.188 46.1157 240.634 49.7607C239.767 49.7796 238.9 49.7796 238.036 49.7859C239.527 46.1566 241.302 42.6499 243.004 39.1181C241.11 39.159 239.215 39.2061 237.324 39.0866C237.333 38.4262 237.34 37.772 237.346 37.1179Z" fill="#01BABD"/>
<path d="M80.686 2.62864C83.3256 1.8794 86.3597 2.43542 88.5028 4.16855C87.8395 4.9454 87.2193 5.76169 86.6521 6.61347C85.5197 6.00421 84.3206 5.41861 83.0077 5.40284C82.4229 5.47579 81.7909 5.67295 81.4377 6.18363C81.2748 6.83232 81.4357 7.52833 81.7909 8.08435C82.731 9.55328 84.1774 10.5588 85.4707 11.6827C87.5294 13.3035 89.2918 15.4369 89.9865 18.0119C90.3574 19.1397 90.2259 20.3365 90.2318 21.5038C89.7274 24.6447 86.8582 27.0147 83.8065 27.4603C81.5279 27.7068 79.1709 27.413 77.0887 26.4212C76.3488 26.0466 75.5461 25.7725 74.869 25.2934C74.6237 24.9779 75.0339 24.765 75.2223 24.5718C76.0446 23.9152 76.3998 22.8879 76.9434 22.0204C77.3831 22.3635 77.7304 22.8051 78.1484 23.1719C79.3829 24.0118 80.8882 24.4633 82.3816 24.3923C83.9713 24.487 85.7553 23.6707 86.3264 22.0953C87.1781 20.1433 86.4343 17.8995 85.2842 16.2374C84.1028 14.7251 82.6329 13.4691 81.104 12.3255C79.846 11.1425 78.4958 9.89636 77.9404 8.21055C77.6323 7.0709 77.6735 5.84055 78.0798 4.73245C78.6214 3.72097 79.5674 2.91257 80.686 2.62864Z" fill="white"/>
<path d="M93.682 2.52416C93.9371 2.48473 94.1961 2.42755 94.4552 2.47881C95.9271 2.67796 97.4167 2.46106 98.8905 2.60894C98.5196 3.441 97.6325 3.86887 97.242 4.68713C96.455 6.23689 96.088 7.96213 95.8466 9.67357C95.6111 11.5605 96.0978 13.4553 96.9398 15.1352C97.7876 16.9847 99.073 18.6251 100.686 19.8614C101.617 20.6678 102.714 21.348 103.95 21.5176C104.066 20.9931 104.125 20.4608 104.111 19.9264C104.097 15.0662 104.127 10.204 104.097 5.34567C104.142 4.29278 103.434 3.49424 103.061 2.5774C103.938 2.25404 104.843 2.62078 105.74 2.56557C106.539 2.58726 107.343 2.28756 108.128 2.57345C108.187 3.33256 107.642 3.96745 107.7 4.72262C107.704 10.2473 107.702 15.7721 107.704 21.2968C107.742 22.8051 107.579 24.3352 107.916 25.8199C108.012 26.4272 108.444 26.9181 108.521 27.5333C107.404 27.6023 106.299 27.3282 105.294 26.855C102.439 25.3644 99.4557 23.9586 97.1439 21.6497C94.5298 19.2285 92.8282 15.8647 92.3258 12.3373C92.0707 10.0048 92.2414 7.56188 93.2777 5.42652C93.4935 4.91585 93.8468 4.46827 94.0117 3.93591C93.9646 3.45284 93.7781 2.99737 93.682 2.52416Z" fill="white"/>
<path d="M110.114 2.47484C110.88 2.34273 111.635 2.57342 112.399 2.56159C113.486 2.56357 114.571 2.54583 115.658 2.56949C115.505 3.14325 115.127 3.70913 115.284 4.32627C115.551 4.95919 116.018 5.47184 116.42 6.01998C117.672 7.60523 118.769 9.30681 119.994 10.9118C120.435 11.521 120.702 12.2328 121.093 12.8736C121.207 10.0324 121.099 7.18328 121.144 4.3381C121.263 3.60463 120.602 3.1393 120.212 2.62272C120.528 2.52019 120.851 2.37231 121.193 2.44132C122.533 2.66215 123.895 2.51428 125.247 2.56554C125.053 3.57505 124.372 4.45838 124.457 5.52705C124.433 11.6374 124.462 17.7477 124.443 23.858C124.335 25.0312 124.829 26.0939 125.236 27.1567C123.617 27.1843 121.999 27.1724 120.38 27.1626C120.728 26.3562 121.159 25.5478 121.138 24.6447C121.136 22.6809 121.142 20.7171 121.138 18.7552C121.173 18.3471 120.863 18.0415 120.667 17.7221C119.069 15.4999 117.662 13.1497 116.073 10.9216C115.435 9.97127 114.805 9.00514 114.026 8.16322C113.928 13.3942 114.016 18.629 113.979 23.8619C113.984 24.4061 113.939 24.9681 114.116 25.4945C114.273 26.1097 114.722 26.5829 115.005 27.1409C113.878 27.1981 112.752 27.1586 111.625 27.1724C110.97 27.1685 110.303 27.2158 109.663 27.0384C110.195 26.2832 110.652 25.4117 110.636 24.4633C110.636 17.7516 110.638 11.0399 110.636 4.33022C110.662 3.66378 110.159 3.13142 110.114 2.47484Z" fill="white"/>
<path d="M133.412 2.41965C134.263 2.23628 135.097 2.5616 135.947 2.5616C139.023 2.5616 142.1 2.55372 145.177 2.5616C146.074 2.70159 147.151 3.02299 147.397 4.0325C147.593 5.17412 147.487 6.40841 146.881 7.42187C144.669 11.2273 142.261 14.9144 140.1 18.7493C139.653 19.5163 139.45 20.5041 138.663 21.0109C138.565 19.1358 138.616 17.2528 138.626 15.3777C138.801 14.6915 139.264 14.1197 139.617 13.5164C140.901 11.6177 142.027 9.62229 143.163 7.63284C143.372 7.21878 143.634 6.7988 143.652 6.32362C143.686 6.0535 143.501 5.70648 143.201 5.73408C141.37 5.70451 139.537 5.74 137.706 5.72423C137.562 6.37095 137.613 7.03541 137.611 7.69199C137.619 13.5342 137.61 19.3783 137.615 25.2224C137.576 25.9579 138.308 26.4173 138.351 27.1409C136.817 27.1705 135.298 27.4406 133.757 27.346C134.026 26.1984 134.328 25.0568 134.385 23.8718C134.383 18.0158 134.379 12.1579 134.385 6.30194C134.379 5.60592 134.195 4.92766 134.081 4.24742C133.985 3.5869 133.435 3.09594 133.412 2.41965Z" fill="white"/>
<path d="M148.07 2.93033C148.176 2.27375 148.886 2.41178 149.363 2.49656C150.914 2.73514 152.529 2.32304 154.048 2.7095C153.987 3.05454 153.757 3.45086 153.965 3.78605C154.456 4.56093 154.988 5.31018 155.506 6.06929C155.559 6.05746 155.667 6.02986 155.72 6.01803C156.369 4.90204 157.308 3.84126 157.249 2.46698C159.252 2.3822 161.262 2.46304 163.266 2.35656C163.26 2.50444 163.248 2.79625 163.242 2.94216C162.618 3.37396 161.874 3.64803 161.352 4.21786C160.004 5.76762 158.809 7.44357 157.582 9.08995C157.423 9.26149 157.412 9.49415 157.417 9.71892C157.429 14.6304 157.425 19.542 157.419 24.4535C157.372 25.4098 157.99 26.23 158.02 27.1764C156.503 27.1587 154.986 27.1803 153.469 27.1587C153.512 26.0999 154.071 25.1337 154.056 24.069C154.056 19.329 154.06 14.591 154.056 9.85102C154.091 9.46654 153.84 9.15698 153.616 8.87897C152.309 7.30161 150.896 5.81297 149.712 4.13505C149.332 3.53171 148.639 3.29903 148.07 2.93033Z" fill="white"/>
<path d="M164.585 2.5774C165.13 2.23827 165.778 2.57543 166.371 2.55177C168.404 2.56754 170.437 2.55769 172.47 2.55571C174.04 2.40784 175.673 2.25996 177.204 2.74105C178.277 3.06047 179.045 4.41108 178.491 5.45609C177.272 7.91283 175.282 9.85497 173.905 12.2112C175.004 15.7937 176.399 19.2738 177.606 22.8209C178.14 24.3273 178.613 25.9441 179.81 27.0719C179.804 27.1251 179.79 27.2277 179.783 27.2809C178.613 27.6023 177.435 26.9753 176.27 27.275C175.667 27.3815 175.053 27.3381 174.446 27.3401C174.405 26.6756 174.684 26.0723 174.831 25.4433C173.911 22.0145 172.405 18.7809 171.198 15.4526C171.139 15.4526 171.024 15.4526 170.967 15.4526C170.229 16.5726 169.615 17.7694 168.869 18.8854C168.6 19.2344 168.592 19.6879 168.598 20.1098C168.612 21.6892 168.598 23.2705 168.6 24.8498C168.545 25.7055 169.104 26.4114 169.397 27.1764C168.298 27.1961 167.183 27.0719 166.098 27.2947C165.542 27.3815 164.977 27.3519 164.42 27.3322C164.708 26.3739 165.295 25.4827 165.297 24.4535C165.293 18.6685 165.293 12.8855 165.295 7.1005C165.281 6.02789 165.385 4.93754 165.113 3.88662C165.03 3.41341 164.683 3.04075 164.585 2.5774ZM168.625 5.72622C168.612 8.39788 168.545 11.0735 168.655 13.7432C169.548 12.781 170.274 11.6808 171.053 10.6299C171.919 9.32459 172.88 8.08635 173.697 6.74756C173.864 6.45969 174.138 6.04366 173.779 5.78142C172.068 5.64735 170.341 5.76171 168.625 5.72622Z" fill="white"/>
<path d="M219.899 2.55768C220.684 2.25601 221.504 2.63457 222.311 2.56556C223.09 2.61485 223.857 2.31121 224.632 2.49064C224.291 3.33847 223.787 4.17053 223.826 5.11893C223.814 11.6315 223.824 18.144 223.822 24.6566C223.783 25.5497 224.334 26.301 224.536 27.1409C222.921 27.2099 221.306 27.1468 219.693 27.1725C219.922 26.3187 220.535 25.5734 220.507 24.6507C220.507 18.8657 220.507 13.0826 220.507 7.29766C220.472 5.70452 220.731 4.00688 219.899 2.55768Z" fill="white"/>
<path d="M227.093 2.35456C228.754 2.25992 230.312 2.95396 231.755 3.69927C233.578 4.52541 235.226 5.68872 236.745 6.98807C238.727 8.77838 240.545 10.8447 241.614 13.3251C242.419 15.1431 242.868 17.1325 242.825 19.1279C242.878 21.3697 242.284 23.7358 240.708 25.392C240.095 25.9046 239.465 26.4232 238.714 26.717C237.146 27.5017 235.358 27.0463 233.684 27.1764C231.562 27.4741 229.411 27.3105 227.278 27.3223C227.103 26.5671 227.647 25.9598 227.847 25.2796C228.01 24.8261 228.037 24.3411 228.034 23.8659C228.018 18.144 228.045 12.4221 228.02 6.7002C227.935 5.57633 227.924 4.39331 227.398 3.37C227.233 3.05058 227.125 2.70947 227.093 2.35456ZM231.731 8.07449C231.492 8.49643 231.305 8.95978 231.342 9.45665C231.348 13.6722 231.331 17.8896 231.35 22.1051C231.297 22.9924 231.955 23.9112 232.903 23.8343C234.467 23.7831 236.28 24.1735 237.568 23.0279C238.723 22.1742 239.124 20.6974 239.24 19.329C239.397 16.9807 238.584 14.66 237.348 12.6962C236.28 10.9492 234.944 9.26343 233.101 8.30124C232.683 8.05477 232.19 8.10406 231.731 8.07449Z" fill="white"/>
<path d="M249.06 3.19848C250.616 2.28557 252.506 2.16136 254.255 2.4236C255.615 2.78639 257.067 3.13932 258.121 4.13897C257.531 4.98483 256.893 5.79718 256.28 6.62726C255.015 5.85238 253.478 5.1406 251.975 5.55466C251.449 5.66507 250.934 6.11462 251.023 6.70219C251.05 8.06267 252.157 9.04458 253.083 9.90031C254.787 11.4757 256.755 12.8046 258.092 14.7428C259.44 16.4878 260.035 18.7296 259.999 20.9143C259.807 23.8817 257.44 26.368 254.669 27.1744C253.399 27.6476 252.022 27.5491 250.697 27.482C248.466 27.3617 246.464 26.2773 244.495 25.325C244.531 24.836 244.968 24.5777 245.245 24.2287C245.761 23.5938 246.081 22.8248 246.576 22.1742C246.911 21.9612 247.096 22.4088 247.294 22.608C247.859 23.4164 248.831 23.7772 249.727 24.0808C250.758 24.4318 251.855 24.418 252.93 24.3746C254.479 24.1676 255.87 23.0161 256.271 21.4782C256.616 19.8554 256.214 18.1184 255.295 16.75C253.478 13.686 249.818 12.3413 248.057 9.23387C247.427 8.18097 247.437 6.91514 247.524 5.73211C247.628 4.71274 248.246 3.79196 249.06 3.19848Z" fill="white"/>
<path d="M190.635 3.44495C191.97 2.86329 193.426 2.76076 194.847 2.55373C195.098 2.5557 195.665 2.48472 195.522 2.90666C195.247 3.3779 194.682 3.74662 194.737 4.3539C194.745 11.249 194.741 18.146 194.739 25.043C194.731 25.8731 195.226 26.5829 195.487 27.344C194.729 27.3617 193.962 27.3972 193.216 27.2277C192.594 27.0621 191.984 27.4071 191.362 27.3243C190.996 27.277 190.637 27.1942 190.278 27.1311C190.745 26.3956 191.354 25.6819 191.399 24.769C191.522 23.1758 191.466 21.5708 191.432 19.9738C189.103 19.8771 186.769 19.9422 184.438 19.9363C184.145 21.1588 184.265 22.4226 184.237 23.6668C184.206 24.838 184.353 26.1097 185.146 27.0305C185.197 27.3677 184.84 27.3243 184.614 27.3499C184.026 27.3972 183.451 27.2375 182.868 27.2001C182.02 27.275 181.056 27.5905 180.293 27.0581C180.677 26.301 180.964 25.4847 181.082 24.6428C181.082 19.6918 181.737 14.6226 183.878 10.1093C185.335 7.25231 187.533 4.54122 190.635 3.44495ZM189.222 7.77283C187.874 9.14514 186.944 10.8684 186.186 12.6232C185.694 13.9482 185.113 15.3028 185.185 16.748C187.281 16.7895 189.377 16.7855 191.473 16.7441C191.438 13.546 191.501 10.3479 191.44 7.14978C191.263 7.03148 191.089 6.91318 190.916 6.79685C190.308 7.03543 189.68 7.28188 189.222 7.77283Z" fill="white"/>
<path d="M198.503 2.57542C200.352 2.53402 202.201 2.56951 204.049 2.55768C204.098 3.16891 204.33 3.7762 204.846 4.14293C205.692 4.83895 206.365 5.84058 207.366 6.29012C208.304 5.602 209.089 4.72853 209.974 3.97337C210.414 3.61649 210.616 3.07624 210.791 2.55768C212.632 2.56557 214.474 2.54782 216.315 2.56754C216.05 3.08413 215.726 3.57902 215.564 4.14293C215.375 5.39497 215.717 6.63319 215.717 7.88523C215.887 9.90229 216.021 11.9253 216.119 13.9482C216.317 14.7251 216.195 15.5315 216.288 16.3222C216.47 17.3691 216.402 18.4378 216.535 19.4927C216.702 20.5534 216.523 21.6438 216.8 22.6908C216.82 24.2149 216.884 25.8593 217.832 27.1311C217.037 27.1882 216.25 27.3401 215.456 27.2415C214.535 27.3598 213.609 27.3815 212.683 27.3401C212.824 26.4646 213.242 25.672 213.436 24.8123C213.652 22.5567 213.134 20.3267 213.016 18.0809C212.934 16.2591 212.757 14.4431 212.724 12.6193C212.567 11.7715 212.579 10.9138 212.557 10.0581C212.327 8.73504 212.443 7.38639 212.235 6.0614C210.326 7.32526 209.046 9.32853 207.182 10.6535C206.214 9.78793 205.315 8.85334 204.375 7.96213C203.747 7.3509 203.147 6.68446 202.369 6.26252C201.834 12.4576 201.282 18.6409 200.868 24.8478C200.784 25.7548 201.384 26.4843 201.537 27.3401C200.901 27.3558 200.264 27.3894 199.636 27.2908C198.54 27.064 197.42 27.2178 196.315 27.1508C196.588 26.6421 197.002 26.2201 197.22 25.6819C197.781 24.2169 197.569 22.6198 197.82 21.0996C197.962 18.1342 198.179 15.1766 198.397 12.2171C198.595 9.92398 198.646 7.61313 198.953 5.33384C198.96 4.87838 198.974 4.42292 198.931 3.9714C198.77 3.50804 198.484 3.08412 198.503 2.57542Z" fill="white"/>
</svg>
