<svg width="254" height="45" viewBox="0 0 254 45" fill="none" xmlns="http://www.w3.org/2000/svg">
<path d="M25.0116 1.51421C25.3695 1.00739 25.6687 0.456865 26.0927 0C26.6869 0.56926 27.0758 1.30919 27.5369 1.98357C30.1839 5.80708 32.7691 9.67222 35.412 13.4989C37.4143 16.5002 39.5084 19.4381 41.5045 22.4436C42.6403 24.014 43.6698 25.6594 44.7932 27.2402C45.9837 28.9865 47.1782 30.7296 48.3646 32.478C48.8835 33.271 49.4808 34.012 49.9305 34.8508C45.8011 31.0752 40.7381 28.3517 35.3326 26.9883C34.758 26.8312 34.1617 26.7521 33.6026 26.5408C36.5602 25.9196 39.5352 25.3971 42.5 24.8185C41.4664 24.7873 40.4327 24.7384 39.398 24.7456C38.2654 24.652 37.1275 24.7623 35.9949 24.6561C34.268 24.6374 32.5411 24.6364 30.8142 24.6072C31.3104 23.9693 32.0325 23.5707 32.6185 23.0275C34.3876 21.4425 36.293 20.0199 38.0591 18.4338C37.1182 18.7939 36.2631 19.3372 35.346 19.7493C34.1432 20.3435 32.9527 20.9627 31.7365 21.5289C30.9999 21.8858 30.3036 22.3302 29.5289 22.5997C29.926 21.5726 30.3882 20.5725 30.8163 19.5578C31.5663 17.7251 32.3647 15.9122 33.1456 14.0921C33.387 13.5322 33.6573 12.9816 33.8234 12.3926C33.2457 13.0722 32.8 13.8506 32.2719 14.5666C30.7018 16.8312 29.1369 19.1009 27.5307 21.3395C27.343 20.5922 27.4317 19.8169 27.3409 19.0583C27.1418 16.213 26.9788 13.3656 26.7622 10.5225C26.7054 8.67836 26.4671 6.84777 26.4321 5.00262C26.3299 4.34282 26.3805 3.67157 26.2732 3.01177C26.2815 2.24478 26.1009 1.49132 26.1515 0.723283C26.005 1.4372 26.0236 2.17297 25.9441 2.89521C25.7822 5.05257 25.6821 7.2141 25.514 9.36938C25.4727 11.0407 25.2396 12.6986 25.1993 14.3699C25.1054 15.4907 25.0673 16.6137 24.9662 17.7334C24.8764 18.2902 24.9352 18.8574 24.8672 19.4162C24.7774 20.0542 24.8455 20.7046 24.699 21.3363C23.7768 20.1218 22.935 18.847 22.0571 17.5992C21.5682 16.8218 20.9709 16.1214 20.485 15.3419C19.8258 14.4698 19.2966 13.4947 18.559 12.6871C18.722 13.3511 19.0397 13.962 19.276 14.601C20.0785 16.4565 20.8522 18.3246 21.6692 20.1749C21.988 21.0106 22.4471 21.789 22.6915 22.6528C21.5124 22.044 20.3137 21.4758 19.1336 20.868C17.5151 20.1239 15.9728 19.2112 14.3233 18.5348C14.672 18.9521 15.1146 19.2685 15.5262 19.6181C16.9889 20.8087 18.4187 22.0409 19.8753 23.2398C20.388 23.7122 20.9781 24.0952 21.4557 24.6052C20.2849 24.6426 19.113 24.6114 17.9421 24.6489C16.599 24.6166 15.261 24.7373 13.9179 24.704C12.5397 24.7748 11.1574 24.7342 9.77921 24.8216C12.9163 25.4564 16.075 25.9903 19.2069 26.648C18.4837 26.8999 17.7276 27.03 16.9931 27.2444C15.8119 27.5847 14.6555 28.0082 13.5053 28.4422C12.4036 28.9428 11.2925 29.4267 10.2259 30.0012C8.6878 30.8753 7.1724 31.7995 5.76429 32.8776C4.22826 34.0151 2.8253 35.3254 1.51003 36.7136C1.35427 36.8916 1.16033 37.0342 0.928223 37.0883C1.59978 35.8811 2.46012 34.7915 3.20699 33.6321C5.23818 30.6516 7.25389 27.6617 9.27683 24.677C10.2837 23.2616 11.2131 21.7922 12.2199 20.3768C12.7677 19.4475 13.4486 18.6097 14.0211 17.696C16.9962 13.3105 19.9754 8.92604 22.9598 4.54576C23.6231 3.52067 24.3194 2.51952 25.0116 1.51421Z" fill="#F7941D"/>
<path d="M168.683 32.9704C169.848 32.1459 171.501 32.2274 172.643 33.055C173.256 33.5284 173.58 34.2682 173.818 34.986C173.273 35.2823 172.693 35.497 172.12 35.7243C171.863 35.2462 171.592 34.6914 171.05 34.4954C170.556 34.3544 169.956 34.4265 169.588 34.8152C169.213 35.2917 169.383 36.1365 169.973 36.3559C170.657 36.6506 171.414 36.7274 172.097 37.0362C173.038 37.392 173.767 38.2525 173.955 39.2494C174.317 40.5096 173.854 41.8732 173.066 42.8685C171.838 44.1146 169.693 44.1632 168.287 43.1961C167.532 42.6083 167.01 41.6867 166.985 40.718C167.572 40.5315 168.167 40.3701 168.77 40.2384C169.046 40.776 169.253 41.5362 169.923 41.6835C170.553 41.892 171.321 41.7776 171.773 41.2619C172.081 40.7854 172.067 39.95 171.467 39.7149C170.428 39.2164 169.196 39.1271 168.284 38.3591C167.476 37.7117 167.337 36.5848 167.382 35.613C167.459 34.6193 167.829 33.5519 168.683 32.9704Z" fill="#F7941D"/>
<path d="M123.079 32.6314C125.195 32.6236 127.309 32.633 129.425 32.6267C129.508 33.343 129.501 34.0672 129.478 34.7897C128.758 34.807 128.037 34.8132 127.317 34.8117C127.259 37.785 127.378 40.7631 127.255 43.7349C126.58 43.7913 125.902 43.7835 125.229 43.7333C125.191 40.7599 125.228 37.785 125.209 34.8101C124.491 34.8132 123.771 34.8132 123.055 34.7615C123.005 34.0515 122.995 33.3383 123.079 32.6314Z" fill="#F7941D"/>
<path d="M136.233 32.6685C137.055 32.4177 137.986 32.4537 138.759 32.8425C139.75 33.3926 140.227 34.4835 140.602 35.5008C141.104 36.8299 140.935 38.2751 140.92 39.6654C140.736 40.8644 140.345 42.1027 139.493 42.9992C138.706 43.8488 137.411 44.1544 136.319 43.7955C135.405 43.5603 134.769 42.7735 134.337 41.9741C133.836 41.0886 133.635 40.0729 133.535 39.0697C133.359 38.1074 133.558 37.1371 133.703 36.1873C133.985 34.7312 134.757 33.1873 136.233 32.6685ZM136.718 34.7437C135.81 35.5008 135.699 36.8284 135.655 37.9396C135.682 39.1168 135.632 40.4788 136.447 41.4255C137.048 42.1136 138.235 41.7092 138.472 40.8754C138.817 39.6591 139.002 38.3644 138.784 37.1074C138.67 36.2657 138.542 35.286 137.827 34.7327C137.461 34.6685 137.081 34.6701 136.718 34.7437Z" fill="#F7941D"/>
<path d="M144.932 32.6458C145.667 32.6238 146.403 32.6254 147.138 32.6285C147.133 34.6552 147.14 36.6818 147.132 38.7085C147.127 39.3872 147.246 40.0596 147.336 40.7304C147.525 41.9467 149.483 42.0799 149.985 41.0204C150.196 40.5408 150.209 40.0047 150.214 39.4906C150.214 37.2053 150.206 34.9201 150.215 32.6364C150.796 32.6223 151.377 32.627 151.96 32.6364C151.957 35.1834 151.963 37.732 151.957 40.279C151.915 41.3495 151.684 42.5721 150.728 43.2053C149.83 43.9357 148.62 43.8715 147.537 43.7806C146.63 43.6771 145.842 43.058 145.407 42.2696C145.058 41.4906 145.052 40.616 144.951 39.7821C144.913 37.4028 144.957 35.0235 144.932 32.6458Z" fill="#F7941D"/>
<path d="M155.934 32.6505C157.361 32.6239 158.789 32.6239 160.216 32.6301C161.088 32.6254 161.964 33.0612 162.408 33.8323C163.031 34.9029 163.141 36.2822 162.671 37.4327C162.456 38.0048 161.947 38.3621 161.543 38.7884C161.549 39.5142 161.929 40.185 162.121 40.8778C162.409 41.7885 162.747 42.6834 163.012 43.6019C162.278 43.674 161.543 43.6568 160.809 43.627C160.376 42.3151 159.977 40.9922 159.55 39.6787C159.376 38.9938 158.544 39.3245 158.045 39.3057C157.916 40.7508 158.02 42.2022 157.978 43.6505C157.296 43.6568 156.614 43.6552 155.933 43.6458C155.944 39.9812 155.939 36.3151 155.934 32.6505ZM158.02 34.5925C157.964 35.5079 157.966 36.4264 158.017 37.3417C158.686 37.3558 159.374 37.4593 160.032 37.2916C160.521 37.1913 160.744 36.6662 160.758 36.2116C160.787 35.7195 160.794 35.127 160.371 34.7916C159.645 34.417 158.801 34.5721 158.02 34.5925Z" fill="#F7941D"/>
<path d="M14.6743 32.3729C18.8058 30.6786 23.3014 29.9231 27.7537 30.0708C29.5642 30.1094 31.3746 30.2873 33.1469 30.6672C37.6456 31.5091 41.9225 33.4136 45.6765 36.0361C46.9948 37.0175 48.2833 38.0436 49.4686 39.1873C50.1474 39.7483 50.691 40.4476 51.2924 41.0876C52.0888 42.043 52.9481 42.9619 53.5836 44.0391C51.4389 44.0869 49.2922 44.0463 47.1475 44.0599C33.3243 44.0599 19.5011 44.0599 5.67784 44.0599C3.78591 44.0422 1.89089 44.0963 0 44.0328C0.661245 42.9536 1.50921 42.0097 2.32622 41.0502C5.71085 37.2568 9.96097 34.2399 14.6743 32.3729Z" fill="#01BABD"/>
<path d="M95.8236 33.7983C97.2473 32.3068 99.569 32.0742 101.434 32.7585C101.312 33.3305 101.204 33.9106 101.135 34.496C99.981 34.1886 98.6181 33.9988 97.5986 34.782C96.5658 35.6534 96.3571 37.1048 96.4417 38.3905C96.3704 39.7324 97.0043 41.2693 98.3408 41.7264C99.2573 41.9082 100.2 41.7612 101.119 41.6623C101.185 42.2396 101.265 42.8197 101.352 43.3997C99.503 43.7205 97.2393 43.945 95.8025 42.4588C94.6192 41.3629 94.2679 39.6762 94.3656 38.1125C94.2705 36.5542 94.701 34.9183 95.8236 33.7983Z" fill="#01BABD"/>
<path d="M66.6728 33.2053C67.9855 32.3312 69.6971 32.4836 71.0864 33.0877C70.9649 33.6089 70.854 34.1355 70.7457 34.6674C69.8978 34.5739 69.0473 34.3172 68.1916 34.4295C67.4599 34.6006 67.2011 35.5201 67.5339 36.1402C68.4451 37.3324 70.1541 37.5275 71.0178 38.7731C71.6834 39.8958 71.7098 41.4889 70.8355 42.5127C70.1831 43.352 69.1504 43.7904 68.1255 43.924C67.1535 44.0309 66.2211 43.6701 65.2993 43.4161C65.3231 42.8227 65.4023 42.2347 65.5634 41.668C66.5698 41.799 67.6184 42.3576 68.6221 41.9112C69.4832 41.7161 69.6786 40.4972 69.1292 39.8905C68.2259 38.7865 66.5434 38.6475 65.8144 37.3565C64.8688 36.0547 65.3521 34.0499 66.6728 33.2053Z" fill="#01BABD"/>
<path d="M82.3725 32.6215C83.1015 32.6001 83.8305 32.5948 84.5595 32.6108C85.8723 35.1368 87.0661 37.7242 88.2019 40.3384C88.1808 37.7563 88.0751 35.1769 88.1332 32.5948C88.7381 32.6001 89.343 32.6001 89.9478 32.5921C90.0218 36.2594 89.9822 39.9295 89.9742 43.5995C89.3192 43.6155 88.6668 43.6289 88.0117 43.6503C86.6409 40.9693 85.2568 38.2856 84.1765 35.4682C84.2928 38.1974 84.3086 40.9318 84.2637 43.6637C83.6404 43.6369 83.017 43.6262 82.3937 43.6182C82.3831 39.9535 82.4201 36.2862 82.3725 32.6215Z" fill="#01BABD"/>
<path d="M105.795 32.611C107.659 32.5842 109.521 32.5842 111.384 32.6216C111.368 33.1883 111.362 33.7577 111.37 34.327C110.195 34.3457 109.02 34.3457 107.844 34.3778C107.831 35.2652 107.836 36.158 107.85 37.0508C108.964 37.0294 110.079 37.0776 111.191 37.1444C111.18 37.6469 111.175 38.1494 111.178 38.6573C110.092 38.9647 108.959 38.8471 107.85 38.8952C107.831 39.8762 107.844 40.8572 107.857 41.8382C109.094 41.8275 110.33 41.8382 111.566 41.8489C111.553 42.4476 111.529 43.049 111.484 43.6531C109.588 43.6211 107.688 43.6291 105.792 43.6451C105.797 39.9671 105.797 36.289 105.795 32.611Z" fill="#01BABD"/>
<path d="M75.8637 32.8329C76.5637 32.7874 77.2663 32.7847 77.9662 32.8035C77.9847 36.4387 78.0904 40.082 77.9134 43.7147C77.2346 43.6986 76.5558 43.7013 75.8796 43.7227C75.8664 40.0927 75.869 36.4628 75.8637 32.8329Z" fill="#01BABD"/>
<path d="M196.534 33.0822C197.45 32.3394 198.725 32.2923 199.839 32.4946C201.276 32.8411 202.195 34.2324 202.498 35.6183C202.958 37.9576 202.476 40.61 200.739 42.3229C199.468 43.5674 197.651 44.033 195.92 43.8612C195.917 43.3651 195.909 42.8717 195.901 42.3839C197.062 42.115 198.353 41.9626 199.253 41.0895C199.859 40.6045 200.032 39.8201 200.266 39.1189C198.926 39.8506 197.092 40.028 195.903 38.9138C194.274 37.3422 194.681 34.3128 196.534 33.0822ZM198.119 34.1133C197.247 34.5346 197.183 35.6598 197.238 36.5135C197.172 37.3034 197.662 38.1654 198.502 38.2513C199.231 38.4537 199.916 37.9271 200.269 37.3201C200.434 36.1865 200.241 34.8311 199.289 34.0855C198.967 33.7779 198.477 34.0246 198.119 34.1133Z" fill="#01BABD"/>
<path d="M222.085 32.5836C223.711 31.9627 225.566 32.9162 226.268 34.4572C227.102 36.3503 227.176 38.5288 226.728 40.5327C226.428 41.949 225.624 43.4263 224.154 43.8587C223.106 43.9834 221.906 44.0777 221.058 43.321C219.833 42.4673 219.561 40.9014 219.305 39.5322C218.955 38.0244 219.338 36.4806 219.737 35.0282C220.075 33.8946 220.97 32.9578 222.085 32.5836ZM223.117 34.1912C222.552 34.3741 222.093 34.8203 221.897 35.383C221.402 36.8353 221.471 38.4124 221.597 39.9202C221.804 40.8238 222.007 42.0849 223.078 42.3177C224.055 42.1486 224.454 41.0732 224.578 40.2057C224.622 38.9113 224.647 37.6142 224.562 36.3226C224.402 35.48 224.152 34.2799 223.117 34.1912Z" fill="#01BABD"/>
<path d="M185.53 34.1612C187.028 33.3907 188.552 32.2737 190.336 32.6894C190.328 36.4256 190.369 40.1618 190.314 43.8953C189.549 43.8759 188.783 43.8759 188.021 43.8925C187.939 40.8797 188.101 37.8641 187.95 34.8541C187.283 35.0842 186.639 35.3724 186.004 35.6745C185.844 35.1701 185.684 34.6656 185.53 34.1612Z" fill="#01BABD"/>
<path d="M207.223 32.7117C209.686 32.5981 212.166 32.5177 214.626 32.7422C214.563 33.2633 214.566 33.8093 214.368 34.3054C212.964 37.4984 211.45 40.6414 210.093 43.8538C209.336 43.8704 208.579 43.8704 207.825 43.876C209.127 40.6775 210.677 37.5871 212.163 34.4745C210.509 34.5105 208.855 34.5521 207.203 34.4468C207.212 33.8647 207.217 33.2882 207.223 32.7117Z" fill="#01BABD"/>
<path d="M70.4444 2.31652C72.749 1.65621 75.398 2.14623 77.2691 3.67363C76.6899 4.35826 76.1485 5.07766 75.6533 5.82832C74.6646 5.29139 73.6177 4.7753 72.4714 4.7614C71.9608 4.82569 71.4091 4.99945 71.1006 5.4495C70.9584 6.02119 71.0989 6.63459 71.4091 7.12461C72.2298 8.41916 73.4926 9.30536 74.6218 10.2958C76.4192 11.7242 77.9579 13.6043 78.5644 15.8737C78.8883 16.8676 78.7735 17.9224 78.7786 18.9511C78.3383 21.7192 75.8332 23.8078 73.1688 24.2005C71.1795 24.4177 69.1216 24.1588 67.3036 23.2848C66.6577 22.9546 65.9569 22.7131 65.3657 22.2909C65.1516 22.0128 65.5097 21.8252 65.6742 21.6549C66.3921 21.0762 66.7022 20.1709 67.1768 19.4063C67.5607 19.7087 67.8639 20.0979 68.2289 20.4211C69.3067 21.1614 70.6209 21.5593 71.9248 21.4967C73.3127 21.5802 74.8702 20.8608 75.3688 19.4724C76.1125 17.7521 75.4631 15.7747 74.459 14.3098C73.4275 12.977 72.1441 11.8701 70.8094 10.8623C69.711 9.81971 68.5322 8.72151 68.0473 7.23582C67.7783 6.23145 67.8143 5.14716 68.1689 4.17059C68.6418 3.27918 69.4677 2.56674 70.4444 2.31652Z" fill="#024084"/>
<path d="M81.7908 2.22444C82.0136 2.18968 82.2398 2.1393 82.466 2.18448C83.751 2.35998 85.0515 2.16883 86.3383 2.29916C86.0145 3.03245 85.24 3.40952 84.899 4.13065C84.212 5.49645 83.8915 7.01689 83.6808 8.52517C83.4752 10.1881 83.9001 11.858 84.6352 13.3385C85.3754 14.9684 86.4977 16.4141 87.9061 17.5036C88.7183 18.2143 89.6761 18.8138 90.7556 18.9633C90.8567 18.501 90.9081 18.0319 90.8961 17.561C90.8841 13.2777 90.9098 8.9926 90.8841 4.71102C90.9235 3.78311 90.305 3.07937 89.9794 2.27136C90.7453 1.98638 91.5352 2.30959 92.3183 2.26093C93.0156 2.28005 93.7182 2.01592 94.4035 2.26788C94.4549 2.93688 93.9786 3.4964 94.03 4.16193C94.0334 9.03083 94.0317 13.8997 94.0334 18.7686C94.066 20.0979 93.9238 21.4464 94.2185 22.7548C94.3025 23.29 94.6794 23.7227 94.7462 24.2648C93.7713 24.3257 92.8066 24.0841 91.9293 23.6671C89.4363 22.3534 86.8318 21.1145 84.8134 19.0797C82.5311 16.9458 81.0455 13.9814 80.6069 10.8727C80.3841 8.8171 80.5332 6.66415 81.4379 4.78227C81.6264 4.33222 81.9348 3.93777 82.0787 3.4686C82.0376 3.04288 81.8748 2.64147 81.7908 2.22444Z" fill="#024084"/>
<path d="M96.1376 2.18097C96.8058 2.06455 97.4655 2.26785 98.132 2.25743C99.0813 2.25917 100.029 2.24353 100.978 2.26439C100.844 2.77004 100.514 3.26874 100.651 3.81263C100.884 4.37042 101.292 4.82221 101.643 5.30528C102.736 6.70235 103.694 8.20195 104.763 9.6164C105.149 10.1533 105.382 10.7806 105.723 11.3454C105.822 8.84141 105.728 6.33049 105.767 3.82306C105.872 3.17665 105.294 2.76656 104.953 2.31129C105.229 2.22094 105.512 2.09062 105.81 2.15143C106.98 2.34605 108.169 2.21573 109.35 2.26091C109.18 3.15059 108.586 3.92906 108.659 4.87087C108.639 10.2559 108.665 15.6408 108.647 21.0258C108.553 22.0597 108.985 22.9963 109.34 23.9329C107.926 23.9572 106.514 23.9468 105.101 23.9381C105.404 23.2274 105.781 22.515 105.762 21.7192C105.76 19.9884 105.765 18.2577 105.762 16.5288C105.793 16.1691 105.522 15.8997 105.351 15.6182C103.956 13.6599 102.727 11.5886 101.34 9.62508C100.783 8.78753 100.233 7.93609 99.5525 7.19411C99.4668 11.8041 99.5439 16.4176 99.5113 21.0293C99.5165 21.5089 99.4771 22.0041 99.6313 22.4681C99.7684 23.0102 100.161 23.4273 100.407 23.919C99.424 23.9694 98.4404 23.9347 97.4569 23.9468C96.8846 23.9433 96.302 23.9851 95.7435 23.8287C96.2078 23.1631 96.607 22.3951 96.5933 21.5593C96.5933 15.6443 96.595 9.72934 96.5933 3.81611C96.6156 3.22878 96.177 2.75961 96.1376 2.18097Z" fill="#024084"/>
<path d="M116.478 2.13233C117.222 1.97073 117.95 2.25744 118.692 2.25744C121.377 2.25744 124.063 2.25049 126.75 2.25744C127.533 2.38081 128.474 2.66405 128.688 3.55373C128.859 4.55983 128.767 5.6476 128.237 6.54076C126.306 9.89443 124.204 13.1438 122.317 16.5236C121.927 17.1995 121.75 18.0701 121.063 18.5167C120.977 16.8642 121.022 15.2047 121.031 13.5522C121.183 12.9475 121.587 12.4436 121.896 11.9118C123.016 10.2385 124 8.47998 124.992 6.72669C125.174 6.36178 125.403 5.99166 125.419 5.57288C125.448 5.33482 125.287 5.029 125.025 5.05333C123.426 5.02726 121.826 5.05854 120.227 5.04464C120.102 5.61459 120.146 6.20018 120.145 6.77882C120.152 11.9275 120.143 17.0779 120.148 22.2283C120.114 22.8764 120.753 23.2813 120.791 23.919C119.451 23.9451 118.125 24.1832 116.779 24.0997C117.014 23.0884 117.278 22.0823 117.328 21.038C117.326 15.8772 117.323 10.7146 117.328 5.55377C117.323 4.94038 117.162 4.34263 117.062 3.74314C116.978 3.16102 116.498 2.72835 116.478 2.13233Z" fill="#024084"/>
<path d="M129.276 2.58239C129.368 2.00375 129.988 2.12539 130.405 2.20011C131.758 2.41037 133.169 2.04719 134.495 2.38777C134.442 2.69186 134.241 3.04113 134.423 3.33654C134.851 4.01943 135.316 4.67974 135.768 5.34874C135.814 5.33832 135.908 5.31399 135.955 5.30356C136.522 4.32005 137.341 3.38519 137.289 2.17404C139.039 2.09933 140.793 2.17057 142.543 2.07674C142.538 2.20706 142.527 2.46423 142.522 2.59281C141.977 2.97336 141.328 3.2149 140.872 3.71708C139.695 5.08288 138.652 6.55989 137.581 8.01083C137.442 8.162 137.432 8.36705 137.437 8.56514C137.447 12.8936 137.444 17.2221 137.439 21.5506C137.397 22.3934 137.937 23.1163 137.963 23.9503C136.638 23.9347 135.314 23.9538 133.989 23.9347C134.027 23.0016 134.515 22.1501 134.502 21.2118C134.502 17.0345 134.505 12.8589 134.502 8.68156C134.533 8.34272 134.313 8.06991 134.118 7.8249C132.977 6.43478 131.743 5.12285 130.71 3.6441C130.377 3.11238 129.773 2.90733 129.276 2.58239Z" fill="#024084"/>
<path d="M143.694 2.27136C144.171 1.97248 144.736 2.26962 145.254 2.24877C147.029 2.26267 148.804 2.25398 150.579 2.25225C151.95 2.12192 153.375 1.9916 154.712 2.41559C155.649 2.69709 156.319 3.88737 155.836 4.80833C154.772 6.97344 153.034 8.68504 151.831 10.7615C152.791 13.9188 154.009 16.9858 155.063 20.1118C155.529 21.4394 155.942 22.8643 156.987 23.8582C156.982 23.9051 156.97 23.9955 156.963 24.0424C155.942 24.3257 154.914 23.7731 153.896 24.0372C153.37 24.131 152.834 24.0928 152.304 24.0946C152.268 23.509 152.512 22.9772 152.64 22.4229C151.837 19.4012 150.522 16.5514 149.469 13.6182C149.417 13.6182 149.316 13.6182 149.266 13.6182C148.622 14.6052 148.086 15.66 147.435 16.6435C147.2 16.9511 147.193 17.3507 147.198 17.7226C147.21 19.1144 147.198 20.508 147.2 21.8999C147.152 22.654 147.64 23.2761 147.896 23.9503C146.936 23.9677 145.963 23.8582 145.015 24.0546C144.53 24.131 144.037 24.105 143.55 24.0876C143.802 23.2431 144.315 22.4577 144.316 21.5506C144.313 16.4524 144.313 11.3558 144.315 6.25754C144.303 5.31225 144.393 4.35133 144.155 3.42516C144.083 3.00813 143.78 2.67971 143.694 2.27136ZM147.222 5.0464C147.21 7.40092 147.152 9.75891 147.248 12.1117C148.028 11.2637 148.662 10.2941 149.342 9.36794C150.097 8.21761 150.937 7.12637 151.65 5.9465C151.796 5.6928 152.035 5.32615 151.722 5.09504C150.228 4.97688 148.72 5.07767 147.222 5.0464Z" fill="#024084"/>
<path d="M191.988 2.25398C192.673 1.98812 193.389 2.32174 194.094 2.26093C194.774 2.30437 195.444 2.03677 196.121 2.19489C195.823 2.94209 195.382 3.67538 195.416 4.51119C195.406 10.2507 195.415 15.9901 195.413 21.7296C195.379 22.5168 195.86 23.1788 196.037 23.919C194.627 23.9799 193.216 23.9243 191.808 23.9468C192.008 23.1944 192.543 22.5376 192.519 21.7244C192.519 16.6261 192.519 11.5296 192.519 6.43129C192.488 5.02727 192.714 3.53115 191.988 2.25398Z" fill="#024084"/>
<path d="M198.269 2.07497C199.719 1.99156 201.079 2.60322 202.339 3.26005C203.931 3.98813 205.37 5.01334 206.696 6.15846C208.427 7.73625 210.013 9.55731 210.947 11.7433C211.65 13.3454 212.042 15.0987 212.004 16.8572C212.051 18.8329 211.531 20.9181 210.156 22.3777C209.621 22.8295 209.071 23.2865 208.415 23.5454C207.046 24.237 205.485 23.8356 204.023 23.9503C202.171 24.2127 200.293 24.0685 198.43 24.0789C198.278 23.4134 198.753 22.8782 198.927 22.2787C199.07 21.879 199.094 21.4516 199.09 21.0328C199.076 15.9901 199.1 10.9474 199.078 5.90476C199.004 4.91429 198.994 3.87171 198.535 2.96987C198.391 2.68837 198.297 2.38775 198.269 2.07497ZM202.318 7.11591C202.109 7.48777 201.946 7.89612 201.979 8.334C201.984 12.0491 201.969 15.7659 201.986 19.481C201.94 20.263 202.514 21.0727 203.341 21.005C204.707 20.9598 206.29 21.3039 207.414 20.2943C208.423 19.5419 208.773 18.2404 208.874 17.0344C209.011 14.9649 208.302 12.9197 207.222 11.189C206.29 9.64941 205.123 8.16372 203.514 7.31574C203.149 7.09854 202.719 7.14197 202.318 7.11591Z" fill="#024084"/>
<path d="M217.448 2.81871C218.807 2.01417 220.457 1.9047 221.984 2.13581C223.171 2.45554 224.439 2.76657 225.359 3.64756C224.843 4.39301 224.286 5.10893 223.752 5.84048C222.647 5.15758 221.305 4.53029 219.992 4.8952C219.533 4.9925 219.084 5.38869 219.161 5.90651C219.185 7.10549 220.152 7.97085 220.961 8.72499C222.448 10.1134 224.166 11.2846 225.333 12.9927C226.51 14.5305 227.03 16.5062 226.999 18.4315C226.831 21.0467 224.764 23.2379 222.345 23.9486C221.236 24.3656 220.034 24.2787 218.877 24.2196C216.929 24.1137 215.181 23.1579 213.463 22.3187C213.493 21.8877 213.875 21.6601 214.117 21.3525C214.568 20.793 214.847 20.1153 215.279 19.5419C215.572 19.3542 215.733 19.7487 215.906 19.9242C216.399 20.6366 217.248 20.9546 218.031 21.2222C218.93 21.5315 219.888 21.5193 220.827 21.4811C222.179 21.2987 223.394 20.2839 223.743 18.9285C224.045 17.4984 223.694 15.9675 222.892 14.7616C221.305 12.0613 218.109 10.8762 216.572 8.13766C216.022 7.20976 216.031 6.09418 216.106 5.05159C216.197 4.15322 216.737 3.34174 217.448 2.81871Z" fill="#024084"/>
<path d="M166.439 3.03592C167.604 2.52331 168.875 2.43295 170.116 2.2505C170.335 2.25224 170.83 2.18968 170.705 2.56154C170.465 2.97684 169.972 3.30178 170.02 3.83698C170.027 9.91355 170.023 15.9919 170.021 22.0702C170.015 22.8017 170.446 23.4273 170.674 24.098C170.013 24.1137 169.343 24.1449 168.692 23.9955C168.149 23.8495 167.616 24.1536 167.073 24.0806C166.754 24.0389 166.44 23.966 166.127 23.9104C166.535 23.2622 167.066 22.6332 167.105 21.8286C167.213 20.4246 167.163 19.0102 167.134 17.6027C165.1 17.5175 163.063 17.5749 161.028 17.5697C160.772 18.647 160.877 19.7608 160.853 20.8573C160.825 21.8895 160.954 23.0103 161.646 23.8217C161.691 24.1189 161.379 24.0806 161.182 24.1032C160.668 24.1449 160.166 24.0042 159.657 23.9712C158.917 24.0372 158.075 24.3152 157.409 23.8461C157.745 23.1788 157.995 22.4594 158.098 21.7174C158.098 17.3542 158.67 12.8867 160.539 8.90919C161.811 6.39133 163.73 4.00206 166.439 3.03592ZM165.205 6.85006C164.028 8.05947 163.216 9.57819 162.554 11.1247C162.124 12.2924 161.617 13.4862 161.68 14.7599C163.51 14.7964 165.34 14.7929 167.17 14.7564C167.139 11.9379 167.194 9.11945 167.141 6.30097C166.987 6.19671 166.834 6.09246 166.684 5.98993C166.153 6.20019 165.604 6.41739 165.205 6.85006Z" fill="#024084"/>
<path d="M173.308 2.26962C174.922 2.23313 176.536 2.26441 178.15 2.25398C178.193 2.79266 178.395 3.32785 178.846 3.65105C179.584 4.26444 180.172 5.14718 181.046 5.54336C181.865 4.93692 182.55 4.16714 183.323 3.50162C183.707 3.1871 183.883 2.71099 184.036 2.25398C185.643 2.26093 187.252 2.24529 188.859 2.26267C188.628 2.71793 188.345 3.15408 188.203 3.65105C188.038 4.75446 188.337 5.84571 188.337 6.94912C188.486 8.72674 188.602 10.5096 188.688 12.2924C188.861 12.977 188.755 13.6877 188.835 14.3845C188.994 15.3072 188.935 16.249 189.051 17.1787C189.197 18.1135 189.041 19.0745 189.282 19.9972C189.299 21.3404 189.356 22.7896 190.184 23.9104C189.49 23.9608 188.803 24.0946 188.109 24.0077C187.305 24.1119 186.496 24.131 185.688 24.0946C185.811 23.323 186.176 22.6245 186.345 21.8669C186.534 19.879 186.082 17.9137 185.979 15.9345C185.907 14.3289 185.753 12.7286 185.724 11.1212C185.586 10.374 185.597 9.61816 185.578 8.86401C185.377 7.69805 185.478 6.50949 185.297 5.34179C183.63 6.45562 182.512 8.22109 180.885 9.38879C180.04 8.62596 179.255 7.80231 178.434 7.01689C177.886 6.47822 177.362 5.89089 176.683 5.51903C176.216 10.9787 175.734 16.428 175.373 21.8982C175.299 22.6975 175.823 23.3404 175.957 24.0946C175.402 24.1085 174.845 24.138 174.297 24.0511C173.34 23.8513 172.362 23.9868 171.397 23.9277C171.636 23.4794 171.997 23.1076 172.187 22.6332C172.677 21.3421 172.492 19.9346 172.712 18.5949C172.835 15.9814 173.025 13.375 173.215 10.7667C173.388 8.74586 173.433 6.70932 173.7 4.70059C173.707 4.29919 173.719 3.8978 173.681 3.49988C173.541 3.09153 173.291 2.71793 173.308 2.26962Z" fill="#024084"/>
</svg>
