<svg width="16" height="17" viewBox="0 0 16 17" fill="none" xmlns="http://www.w3.org/2000/svg">
<mask id="path-1-inside-1_7340_24950" fill="white">
<path d="M9.61943 12.7518C9.49276 12.7518 9.36609 12.7052 9.26609 12.6052C9.07276 12.4118 9.07276 12.0918 9.26609 11.8985L12.9594 8.20516L9.26609 4.51182C9.07276 4.31849 9.07276 3.99849 9.26609 3.80516C9.45943 3.61182 9.77943 3.61182 9.97276 3.80516L14.0194 7.85182C14.2128 8.04516 14.2128 8.36516 14.0194 8.55849L9.97276 12.6052C9.87276 12.7052 9.74609 12.7518 9.61943 12.7518Z"/>
</mask>
<path d="M9.61943 12.7518C9.49276 12.7518 9.36609 12.7052 9.26609 12.6052C9.07276 12.4118 9.07276 12.0918 9.26609 11.8985L12.9594 8.20516L9.26609 4.51182C9.07276 4.31849 9.07276 3.99849 9.26609 3.80516C9.45943 3.61182 9.77943 3.61182 9.97276 3.80516L14.0194 7.85182C14.2128 8.04516 14.2128 8.36516 14.0194 8.55849L9.97276 12.6052C9.87276 12.7052 9.74609 12.7518 9.61943 12.7518Z" fill="#163A96"/>
<path d="M9.26609 11.8985L8.20543 10.8378H8.20543L9.26609 11.8985ZM12.9594 8.20516L14.0201 9.26582L15.0807 8.20516L14.0201 7.1445L12.9594 8.20516ZM9.26609 4.51182L8.20543 5.57248H8.20543L9.26609 4.51182ZM9.97276 3.80516L8.9121 4.86582H8.9121L9.97276 3.80516ZM14.0194 7.85182L15.0801 6.79116L14.0194 7.85182ZM14.0194 8.55849L15.0801 9.61915L14.0194 8.55849ZM9.97276 12.6052L8.9121 11.5445L9.97276 12.6052ZM9.61943 11.2518C9.86911 11.2518 10.1306 11.3484 10.3268 11.5445L8.20543 13.6658C8.60157 14.0619 9.11641 14.2518 9.61943 14.2518V11.2518ZM10.3268 11.5445C10.7192 11.9369 10.7192 12.5667 10.3268 12.9592L8.20543 10.8378C7.42631 11.6169 7.42631 12.8867 8.20543 13.6658L10.3268 11.5445ZM10.3268 12.9592L14.0201 9.26582L11.8988 7.1445L8.20543 10.8378L10.3268 12.9592ZM14.0201 7.1445L10.3268 3.45116L8.20543 5.57248L11.8988 9.26582L14.0201 7.1445ZM10.3268 3.45116C10.7192 3.84362 10.7192 4.47336 10.3268 4.86582L8.20543 2.7445C7.42631 3.52362 7.42631 4.79336 8.20543 5.57248L10.3268 3.45116ZM10.3268 4.86582C9.9343 5.25827 9.30455 5.25827 8.9121 4.86582L11.0334 2.7445C10.2543 1.96538 8.98455 1.96538 8.20543 2.7445L10.3268 4.86582ZM8.9121 4.86582L12.9588 8.91248L15.0801 6.79116L11.0334 2.7445L8.9121 4.86582ZM12.9588 8.91248C12.5663 8.52003 12.5663 7.89028 12.9588 7.49783L15.0801 9.61915C15.8592 8.84003 15.8592 7.57028 15.0801 6.79116L12.9588 8.91248ZM12.9588 7.49783L8.9121 11.5445L11.0334 13.6658L15.0801 9.61915L12.9588 7.49783ZM8.9121 11.5445C9.10823 11.3484 9.36974 11.2518 9.61943 11.2518V14.2518C10.1224 14.2518 10.6373 14.0619 11.0334 13.6658L8.9121 11.5445Z" fill="#163A96" mask="url(#path-1-inside-1_7340_24950)"/>
<mask id="path-3-inside-2_7340_24950" fill="white">
<path d="M13.552 8.70508H2.33203C2.0587 8.70508 1.83203 8.47841 1.83203 8.20508C1.83203 7.93174 2.0587 7.70508 2.33203 7.70508H13.552C13.8254 7.70508 14.052 7.93174 14.052 8.20508C14.052 8.47841 13.8254 8.70508 13.552 8.70508Z"/>
</mask>
<path d="M13.552 8.70508H2.33203C2.0587 8.70508 1.83203 8.47841 1.83203 8.20508C1.83203 7.93174 2.0587 7.70508 2.33203 7.70508H13.552C13.8254 7.70508 14.052 7.93174 14.052 8.20508C14.052 8.47841 13.8254 8.70508 13.552 8.70508Z" fill="#163A96"/>
<path d="M13.552 7.20508H2.33203V10.2051H13.552V7.20508ZM2.33203 7.20508C2.88713 7.20508 3.33203 7.64998 3.33203 8.20508H0.332031C0.332031 9.30684 1.23027 10.2051 2.33203 10.2051V7.20508ZM3.33203 8.20508C3.33203 8.76017 2.88713 9.20508 2.33203 9.20508V6.20508C1.23027 6.20508 0.332031 7.10332 0.332031 8.20508H3.33203ZM2.33203 9.20508H13.552V6.20508H2.33203V9.20508ZM13.552 9.20508C12.9969 9.20508 12.552 8.76017 12.552 8.20508H15.552C15.552 7.10332 14.6538 6.20508 13.552 6.20508V9.20508ZM12.552 8.20508C12.552 7.64998 12.9969 7.20508 13.552 7.20508V10.2051C14.6538 10.2051 15.552 9.30684 15.552 8.20508H12.552Z" fill="#163A96" mask="url(#path-3-inside-2_7340_24950)"/>
</svg>
