<svg width="237" height="396" viewBox="0 0 237 396" fill="none" xmlns="http://www.w3.org/2000/svg">
<path d="M159.239 269.843H84.131V247.002C84.131 227.879 88.0235 212.032 95.8085 199.461C103.77 186.712 115.536 173.698 131.106 160.419C141.191 151.92 148.623 143.686 153.4 135.718C158.354 127.573 160.831 118.543 160.831 108.628C160.831 96.5875 156.938 86.9376 149.153 79.6781C141.368 72.2414 131.106 68.5231 118.367 68.5231C105.628 68.5231 95.1008 72.5956 86.785 80.7404C78.4692 88.8853 73.7805 99.8632 72.7189 113.674H0C0 81.8028 10.9698 54.8893 32.9093 32.9336C55.0258 10.9779 84.131 0 120.225 0C156.319 0 184.805 9.47284 205.683 28.4185C226.561 47.3642 237 72.6841 237 104.378C237 137.312 224.703 165.199 200.11 188.04C192.856 194.769 187.371 200.08 183.655 203.976C180.116 207.694 176.047 212.475 171.447 218.318C167.024 223.984 163.839 229.738 161.893 235.581C160.123 241.425 159.239 247.71 159.239 254.439V269.843ZM155.523 381.924C146.323 391.308 135.087 396 121.817 396C108.548 396 97.224 391.308 87.8466 381.924C78.6461 372.539 74.0459 361.207 74.0459 347.928C74.0459 334.648 78.6461 323.404 87.8466 314.197C97.224 304.813 108.548 300.121 121.817 300.121C135.087 300.121 146.323 304.813 155.523 314.197C164.9 323.404 169.589 334.648 169.589 347.928C169.589 361.207 164.9 372.539 155.523 381.924Z" fill="#F9FAFB"/>
</svg>
