<svg width="110" height="47" viewBox="0 0 110 47" fill="none" xmlns="http://www.w3.org/2000/svg">
<path d="M8.00408 18.7115C8.00408 17.5267 8.97619 17.0711 10.5862 17.0711C12.895 17.0711 15.8113 17.7698 18.1201 19.0153V11.8764C15.5987 10.8739 13.1076 10.479 10.5862 10.479C4.41944 10.479 0.318359 13.6991 0.318359 19.076C0.318359 27.4605 11.8621 26.1238 11.8621 29.7388C11.8621 31.1362 10.647 31.5919 8.94581 31.5919C6.42441 31.5919 3.2043 30.559 0.652521 29.1616V36.3917C3.47771 37.6068 6.33327 38.1233 8.94581 38.1233C15.2645 38.1233 19.6086 34.9943 19.6086 29.5566C19.5782 20.5038 8.00408 22.1139 8.00408 18.7115ZM28.5399 4.40328L21.1275 5.98296L21.0972 30.316C21.0972 34.812 24.4691 38.1233 28.9651 38.1233C31.4562 38.1233 33.2789 37.6676 34.2814 37.1208V30.954C33.3092 31.3489 28.5095 32.7463 28.5095 28.2503V17.466H34.2814V10.9954H28.5095L28.5399 4.40328ZM43.729 13.2434L43.243 10.9954H36.6812V37.5764H44.2758V19.5621C46.0682 17.2229 49.106 17.6482 50.0477 17.9824V10.9954C49.0756 10.6308 45.5213 9.96252 43.729 13.2434ZM51.9008 10.9954H59.5258V37.5764H51.9008V10.9954ZM51.9008 8.68663L59.5258 7.0462V0.879395L51.9008 2.48945V8.68663ZM75.3833 10.479C72.4062 10.479 70.4924 11.8764 69.4291 12.8485L69.0342 10.965H62.351V46.3862L69.9455 44.7761L69.9759 36.179C71.0695 36.9689 72.6796 38.0929 75.3529 38.0929C80.7906 38.0929 85.7423 33.7184 85.7423 24.0885C85.7119 15.2787 80.6995 10.479 75.3833 10.479ZM73.5606 31.4096C71.7682 31.4096 70.705 30.7717 69.9759 29.9819L69.9455 18.7115C70.7354 17.8305 71.829 17.2229 73.5606 17.2229C76.325 17.2229 78.2388 20.3215 78.2388 24.3011C78.2388 28.3718 76.3554 31.4096 73.5606 31.4096ZM109.68 24.3922C109.68 16.6154 105.914 10.479 98.7138 10.479C91.4838 10.479 87.1093 16.6154 87.1093 24.3315C87.1093 33.4754 92.2736 38.0929 99.686 38.0929C103.301 38.0929 106.035 37.2727 108.101 36.1183V30.0426C106.035 31.0755 103.666 31.7134 100.658 31.7134C97.7114 31.7134 95.0988 30.6806 94.7647 27.0959H109.62C109.62 26.701 109.68 25.1213 109.68 24.3922ZM94.6735 21.5063C94.6735 18.0735 96.7696 16.6458 98.6835 16.6458C100.537 16.6458 102.511 18.0735 102.511 21.5063H94.6735Z" fill="#1A1A1A"/>
</svg>
