<svg width="20" height="21" viewBox="0 0 20 21" fill="none" xmlns="http://www.w3.org/2000/svg">
<mask id="path-1-inside-1_7062_140923" fill="white">
<path d="M7.15052 19.2916C6.96719 19.2916 6.77552 19.2583 6.60052 19.1833C6.20885 19.0166 5.90885 18.6916 5.77552 18.2833L5.40885 17.1833C5.24219 16.6833 5.39219 16.0583 5.75885 15.6833L7.65052 13.7833C7.67552 13.7583 7.70885 13.6666 7.70885 13.6249V11.5666L3.90885 13.2083C3.40052 13.4249 2.88385 13.3999 2.49219 13.1416C2.10052 12.8833 1.86719 12.4166 1.86719 11.8749V10.7999C1.86719 9.98327 2.45052 9.10827 3.19219 8.8166L7.70052 6.8666V4.49994C7.70052 3.4916 8.40885 2.33327 9.30885 1.8666C9.74219 1.64993 10.2422 1.64993 10.6672 1.8666C11.5755 2.33327 12.2839 3.48327 12.2839 4.4916V6.85827L16.8172 8.80827C17.5589 9.12494 18.1255 9.97493 18.1255 10.7999V11.8749C18.1255 12.4249 17.9005 12.8833 17.5005 13.1416C17.1005 13.3999 16.5922 13.4249 16.0839 13.2166L12.2839 11.5749V13.6333C12.2839 13.6666 12.3172 13.7499 12.3422 13.7749L14.2422 15.6833C14.6089 16.0499 14.7589 16.6916 14.5922 17.1833L14.2255 18.2833C14.0839 18.6916 13.7839 19.0166 13.3839 19.1749C12.9922 19.3333 12.5589 19.3166 12.1839 19.1333C12.1422 19.1083 12.1005 19.0833 12.0589 19.0499L10.1172 17.4166C10.0505 17.3583 9.91719 17.3666 9.85885 17.4166L7.91719 19.0499C7.88385 19.0833 7.84219 19.1083 7.80052 19.1249C7.60052 19.2416 7.37552 19.2916 7.15052 19.2916ZM7.96719 10.1999C8.15885 10.1999 8.34219 10.2499 8.50052 10.3583C8.79219 10.5499 8.95885 10.8749 8.95885 11.2583V13.6333C8.95885 13.9916 8.78385 14.4166 8.53385 14.6666L6.64219 16.5666C6.60885 16.6083 6.57552 16.7333 6.59219 16.7833L6.95885 17.8916C6.98385 17.9749 7.04219 18.0083 7.07552 18.0249C7.10052 18.0333 7.14219 18.0499 7.19219 18.0333L9.05885 16.4583C9.58385 16.0083 10.4089 16.0083 10.9339 16.4583L12.7922 18.0249C12.8505 18.0333 12.8922 18.0249 12.9172 18.0166C12.9505 17.9999 13.0172 17.9666 13.0422 17.8833L13.4089 16.7833C13.4255 16.7249 13.3922 16.5999 13.3589 16.5666L11.4672 14.6666C11.2172 14.4333 11.0339 13.9999 11.0339 13.6333V11.2583C11.0339 10.8833 11.1922 10.5583 11.4755 10.3666C11.7589 10.1749 12.1255 10.1499 12.4755 10.2999L16.5755 12.0666C16.7005 12.1166 16.7839 12.1166 16.8089 12.0999C16.8339 12.0833 16.8672 12.0083 16.8672 11.8749V10.7999C16.8672 10.4833 16.6005 10.0749 16.3172 9.95827L11.6672 7.94993C11.3005 7.7916 11.0422 7.3916 11.0422 6.9916V4.4916C11.0422 3.9416 10.6089 3.23327 10.1089 2.98327C10.0422 2.94993 9.95885 2.94993 9.88385 2.98327C9.40052 3.23327 8.95885 3.95827 8.95885 4.49994V6.99993C8.95885 7.3916 8.70052 7.79993 8.33385 7.95827L3.68385 9.9666C3.39219 10.0833 3.12552 10.4916 3.12552 10.7999V11.8749C3.12552 12.0083 3.15885 12.0833 3.18385 12.0999C3.20885 12.1166 3.29219 12.1166 3.41719 12.0666L7.50885 10.2999C7.65885 10.2333 7.81719 10.1999 7.96719 10.1999Z"/>
</mask>
<path d="M7.15052 19.2916C6.96719 19.2916 6.77552 19.2583 6.60052 19.1833C6.20885 19.0166 5.90885 18.6916 5.77552 18.2833L5.40885 17.1833C5.24219 16.6833 5.39219 16.0583 5.75885 15.6833L7.65052 13.7833C7.67552 13.7583 7.70885 13.6666 7.70885 13.6249V11.5666L3.90885 13.2083C3.40052 13.4249 2.88385 13.3999 2.49219 13.1416C2.10052 12.8833 1.86719 12.4166 1.86719 11.8749V10.7999C1.86719 9.98327 2.45052 9.10827 3.19219 8.8166L7.70052 6.8666V4.49994C7.70052 3.4916 8.40885 2.33327 9.30885 1.8666C9.74219 1.64993 10.2422 1.64993 10.6672 1.8666C11.5755 2.33327 12.2839 3.48327 12.2839 4.4916V6.85827L16.8172 8.80827C17.5589 9.12494 18.1255 9.97493 18.1255 10.7999V11.8749C18.1255 12.4249 17.9005 12.8833 17.5005 13.1416C17.1005 13.3999 16.5922 13.4249 16.0839 13.2166L12.2839 11.5749V13.6333C12.2839 13.6666 12.3172 13.7499 12.3422 13.7749L14.2422 15.6833C14.6089 16.0499 14.7589 16.6916 14.5922 17.1833L14.2255 18.2833C14.0839 18.6916 13.7839 19.0166 13.3839 19.1749C12.9922 19.3333 12.5589 19.3166 12.1839 19.1333C12.1422 19.1083 12.1005 19.0833 12.0589 19.0499L10.1172 17.4166C10.0505 17.3583 9.91719 17.3666 9.85885 17.4166L7.91719 19.0499C7.88385 19.0833 7.84219 19.1083 7.80052 19.1249C7.60052 19.2416 7.37552 19.2916 7.15052 19.2916ZM7.96719 10.1999C8.15885 10.1999 8.34219 10.2499 8.50052 10.3583C8.79219 10.5499 8.95885 10.8749 8.95885 11.2583V13.6333C8.95885 13.9916 8.78385 14.4166 8.53385 14.6666L6.64219 16.5666C6.60885 16.6083 6.57552 16.7333 6.59219 16.7833L6.95885 17.8916C6.98385 17.9749 7.04219 18.0083 7.07552 18.0249C7.10052 18.0333 7.14219 18.0499 7.19219 18.0333L9.05885 16.4583C9.58385 16.0083 10.4089 16.0083 10.9339 16.4583L12.7922 18.0249C12.8505 18.0333 12.8922 18.0249 12.9172 18.0166C12.9505 17.9999 13.0172 17.9666 13.0422 17.8833L13.4089 16.7833C13.4255 16.7249 13.3922 16.5999 13.3589 16.5666L11.4672 14.6666C11.2172 14.4333 11.0339 13.9999 11.0339 13.6333V11.2583C11.0339 10.8833 11.1922 10.5583 11.4755 10.3666C11.7589 10.1749 12.1255 10.1499 12.4755 10.2999L16.5755 12.0666C16.7005 12.1166 16.7839 12.1166 16.8089 12.0999C16.8339 12.0833 16.8672 12.0083 16.8672 11.8749V10.7999C16.8672 10.4833 16.6005 10.0749 16.3172 9.95827L11.6672 7.94993C11.3005 7.7916 11.0422 7.3916 11.0422 6.9916V4.4916C11.0422 3.9416 10.6089 3.23327 10.1089 2.98327C10.0422 2.94993 9.95885 2.94993 9.88385 2.98327C9.40052 3.23327 8.95885 3.95827 8.95885 4.49994V6.99993C8.95885 7.3916 8.70052 7.79993 8.33385 7.95827L3.68385 9.9666C3.39219 10.0833 3.12552 10.4916 3.12552 10.7999V11.8749C3.12552 12.0083 3.15885 12.0833 3.18385 12.0999C3.20885 12.1166 3.29219 12.1166 3.41719 12.0666L7.50885 10.2999C7.65885 10.2333 7.81719 10.1999 7.96719 10.1999Z" fill="#163A96"/>
<path d="M6.60052 19.1833L7.1914 17.8045L7.18785 17.803L6.60052 19.1833ZM5.77552 18.2833L7.20146 17.8177L7.19855 17.8089L5.77552 18.2833ZM5.40885 17.1833L6.83188 16.7089L6.83188 16.7089L5.40885 17.1833ZM5.75885 15.6833L4.69582 14.6249L4.68634 14.6346L5.75885 15.6833ZM7.65052 13.7833L6.58986 12.7226L6.58753 12.7249L7.65052 13.7833ZM7.70885 11.5666H9.20885V9.28458L7.11397 10.1896L7.70885 11.5666ZM3.90885 13.2083L4.49701 14.5882L4.50374 14.5853L3.90885 13.2083ZM3.19219 8.8166L3.74115 10.2125L3.76457 10.2033L3.78767 10.1933L3.19219 8.8166ZM7.70052 6.8666L8.296 8.24334L9.20052 7.8521V6.8666H7.70052ZM9.30885 1.8666L8.63803 0.524961L8.62817 0.529893L8.61838 0.53497L9.30885 1.8666ZM10.6672 1.8666L11.3527 0.532379L11.3485 0.530242L10.6672 1.8666ZM12.2839 6.85827H10.7839V7.84593L11.6911 8.2362L12.2839 6.85827ZM16.8172 8.80827L16.2245 10.1862L16.2282 10.1878L16.8172 8.80827ZM17.5005 13.1416L16.6867 11.8815L17.5005 13.1416ZM16.0839 13.2166L15.489 14.5936L15.5019 14.5992L15.515 14.6046L16.0839 13.2166ZM12.2839 11.5749L12.8787 10.1979L10.7839 9.29291V11.5749H12.2839ZM12.3422 13.7749L13.4052 12.7166L13.4028 12.7143L12.3422 13.7749ZM14.2422 15.6833L13.1792 16.7416L13.1815 16.7439L14.2422 15.6833ZM14.5922 17.1833L13.1716 16.7017L13.1692 16.7089L14.5922 17.1833ZM14.2255 18.2833L15.6427 18.7749L15.6457 18.7663L15.6485 18.7576L14.2255 18.2833ZM13.3839 19.1749L12.8318 17.7802L12.8217 17.7843L13.3839 19.1749ZM12.1839 19.1333L11.4121 20.4195L11.4673 20.4526L11.525 20.4808L12.1839 19.1333ZM12.0589 19.0499L11.0933 20.1978L11.1074 20.2097L11.1218 20.2212L12.0589 19.0499ZM10.1172 17.4166L9.12943 18.5455L9.14042 18.5551L9.15159 18.5645L10.1172 17.4166ZM9.85885 17.4166L10.8245 18.5645L10.835 18.5555L9.85885 17.4166ZM7.91719 19.0499L6.95159 17.9021L6.90218 17.9436L6.85653 17.9893L7.91719 19.0499ZM7.80052 19.1249L7.24343 17.7322L7.14049 17.7734L7.04471 17.8293L7.80052 19.1249ZM8.50052 10.3583L7.65349 11.5962L7.66505 11.6041L7.67675 11.6118L8.50052 10.3583ZM8.53385 14.6666L7.47319 13.6059L7.47087 13.6083L8.53385 14.6666ZM6.64219 16.5666L5.5792 15.5083L5.52175 15.566L5.47088 15.6296L6.64219 16.5666ZM6.59219 16.7833L8.01628 16.3121L8.01521 16.3089L6.59219 16.7833ZM6.95885 17.8916L8.39559 17.4606L8.38955 17.4404L8.38295 17.4205L6.95885 17.8916ZM7.07552 18.0249L6.4047 19.3666L6.50005 19.4142L6.60118 19.448L7.07552 18.0249ZM7.19219 18.0333L7.66653 19.4563L7.93954 19.3653L8.15949 19.1797L7.19219 18.0333ZM9.05885 16.4583L10.0262 17.6047L10.035 17.5972L9.05885 16.4583ZM10.9339 16.4583L9.95763 17.5972L9.96702 17.6051L10.9339 16.4583ZM12.7922 18.0249L11.8254 19.1718L12.1542 19.449L12.5801 19.5099L12.7922 18.0249ZM12.9172 18.0166L13.3915 19.4396L13.4927 19.4059L13.588 19.3582L12.9172 18.0166ZM13.0422 17.8833L11.6192 17.4089L11.612 17.4305L11.6054 17.4522L13.0422 17.8833ZM13.4089 16.7833L14.8319 17.2576L14.8422 17.2267L14.8511 17.1954L13.4089 16.7833ZM13.3589 16.5666L12.2959 17.6249L12.2982 17.6273L13.3589 16.5666ZM11.4672 14.6666L12.5302 13.6083L12.5108 13.5888L12.4907 13.57L11.4672 14.6666ZM12.4755 10.2999L13.0691 8.92238L13.0664 8.92122L12.4755 10.2999ZM16.5755 12.0666L15.9819 13.4442L16.0001 13.452L16.0184 13.4593L16.5755 12.0666ZM16.3172 9.95827L15.7224 11.3353L15.7342 11.3404L15.7461 11.3453L16.3172 9.95827ZM11.6672 7.94993L12.2619 6.57288L12.2618 6.57284L11.6672 7.94993ZM10.1089 2.98327L9.43803 4.32491L10.1089 2.98327ZM9.88385 2.98327L9.27465 1.61255L9.23412 1.63056L9.19472 1.65094L9.88385 2.98327ZM8.33385 7.95827L7.7392 6.58117L7.73911 6.58122L8.33385 7.95827ZM3.68385 9.9666L4.24094 11.3593L4.25988 11.3517L4.2786 11.3437L3.68385 9.9666ZM3.41719 12.0666L3.97427 13.4593L3.99314 13.4518L4.01179 13.4437L3.41719 12.0666ZM7.50885 10.2999L8.10345 11.6771L8.11078 11.6739L8.11806 11.6707L7.50885 10.2999ZM7.15052 19.2916V17.7916C7.14883 17.7916 7.14949 17.7914 7.15382 17.7922C7.15816 17.793 7.17119 17.7959 7.1914 17.8046L6.60052 19.1833L6.00964 20.562C6.39623 20.7277 6.79297 20.7916 7.15052 20.7916V19.2916ZM6.60052 19.1833L7.18785 17.803C7.18895 17.8035 7.19235 17.8054 7.19594 17.8093C7.1976 17.8111 7.19896 17.813 7.19998 17.8147C7.20048 17.8156 7.20084 17.8163 7.20109 17.8169C7.20135 17.8174 7.20144 17.8177 7.20143 17.8177L5.77552 18.2833L4.34961 18.7489C4.61792 19.5706 5.22475 20.228 6.01319 20.5635L6.60052 19.1833ZM5.77552 18.2833L7.19855 17.8089L6.83188 16.7089L5.40885 17.1833L3.98583 17.6576L4.3525 18.7576L5.77552 18.2833ZM5.40885 17.1833L6.83188 16.7089C6.83651 16.7228 6.83879 16.7334 6.8399 16.7399C6.84102 16.7465 6.84111 16.7499 6.84112 16.7501C6.84112 16.7503 6.84107 16.7483 6.84148 16.7444C6.8419 16.7404 6.84269 16.7355 6.84398 16.73C6.84527 16.7244 6.84685 16.7193 6.84848 16.715C6.85012 16.7106 6.85146 16.7079 6.85197 16.7069C6.85248 16.7059 6.85168 16.7076 6.8488 16.7116C6.84591 16.7156 6.84038 16.7227 6.83136 16.7319L5.75885 15.6833L4.68634 14.6346C3.93474 15.4033 3.63781 16.6135 3.98583 17.6576L5.40885 17.1833ZM5.75885 15.6833L6.82184 16.7416L8.71351 14.8416L7.65052 13.7833L6.58753 12.7249L4.69587 14.6249L5.75885 15.6833ZM7.65052 13.7833L8.71118 14.8439C8.88252 14.6726 8.97392 14.4979 9.00079 14.4463C9.04298 14.3652 9.07443 14.2893 9.09738 14.2267C9.1234 14.1557 9.20885 13.9189 9.20885 13.6249H7.70885H6.20885C6.20885 13.4671 6.23571 13.3515 6.24363 13.318C6.25562 13.2675 6.26887 13.2264 6.28075 13.194C6.29224 13.1626 6.31067 13.1169 6.33958 13.0614C6.35426 13.0332 6.37745 12.9912 6.41025 12.9418C6.43943 12.8978 6.49821 12.8143 6.58986 12.7226L7.65052 13.7833ZM7.70885 13.6249H9.20885V11.5666H7.70885H6.20885V13.6249H7.70885ZM7.70885 11.5666L7.11397 10.1896L3.31397 11.8313L3.90885 13.2083L4.50374 14.5853L8.30374 12.9436L7.70885 11.5666ZM3.90885 13.2083L3.32071 11.8284C3.25313 11.8572 3.22149 11.8544 3.22781 11.8547C3.2311 11.8549 3.24257 11.8559 3.26003 11.8614C3.27778 11.867 3.298 11.8762 3.31808 11.8894L2.49219 13.1416L1.6663 14.3938C2.55574 14.9804 3.61844 14.9626 4.497 14.5882L3.90885 13.2083ZM2.49219 13.1416L3.31808 11.8894C3.33683 11.9018 3.35126 11.9152 3.36146 11.9269C3.3715 11.9384 3.37594 11.9467 3.37703 11.9489C3.37918 11.9532 3.36719 11.9311 3.36719 11.8749H1.86719H0.367188C0.367188 12.8409 0.791242 13.8166 1.6663 14.3938L2.49219 13.1416ZM1.86719 11.8749H3.36719V10.7999H1.86719H0.367188V11.8749H1.86719ZM1.86719 10.7999H3.36719C3.36719 10.7353 3.3968 10.5975 3.49908 10.4443C3.60239 10.2895 3.70828 10.2255 3.74115 10.2125L3.19219 8.8166L2.64322 7.42066C1.93443 7.6994 1.37782 8.21866 1.00405 8.7785C0.629243 9.33989 0.367188 10.0479 0.367188 10.7999H1.86719ZM3.19219 8.8166L3.78767 10.1933L8.296 8.24334L7.70052 6.8666L7.10504 5.48987L2.5967 7.43987L3.19219 8.8166ZM7.70052 6.8666H9.20052V4.49994H7.70052H6.20052V6.8666H7.70052ZM7.70052 4.49994H9.20052C9.20052 4.32785 9.2691 4.05367 9.44718 3.7622C9.62499 3.47118 9.84003 3.28083 9.99933 3.19823L9.30885 1.8666L8.61838 0.53497C7.87767 0.919038 7.28855 1.54119 6.8872 2.19808C6.48611 2.85454 6.20052 3.66369 6.20052 4.49994H7.70052ZM9.30885 1.8666L9.97967 3.20824C9.98466 3.20575 9.98798 3.20479 9.98955 3.20442C9.99117 3.20403 9.99167 3.2041 9.99115 3.2041C9.99061 3.2041 9.98954 3.20403 9.98818 3.2037C9.98674 3.20336 9.98589 3.20295 9.98591 3.20296L10.6672 1.8666L11.3485 0.530242C10.4914 0.0933041 9.48949 0.0992324 8.63803 0.524961L9.30885 1.8666ZM10.6672 1.8666L9.98172 3.20082C10.1469 3.28569 10.3625 3.4761 10.5389 3.76259C10.7159 4.04995 10.7839 4.32053 10.7839 4.4916H12.2839H13.7839C13.7839 3.65434 13.4976 2.84576 13.0933 2.18936C12.6885 1.5321 12.0958 0.914183 11.3527 0.532385L10.6672 1.8666ZM12.2839 4.4916H10.7839V6.85827H12.2839H13.7839V4.4916H12.2839ZM12.2839 6.85827L11.6911 8.2362L16.2245 10.1862L16.8172 8.80827L17.4099 7.43034L12.8766 5.48034L12.2839 6.85827ZM16.8172 8.80827L16.2282 10.1878C16.4165 10.2682 16.6255 10.5748 16.6255 10.7999H18.1255H19.6255C19.6255 9.37506 18.7012 7.98168 17.4062 7.42875L16.8172 8.80827ZM18.1255 10.7999H16.6255V11.8749H18.1255H19.6255V10.7999H18.1255ZM18.1255 11.8749H16.6255C16.6255 11.9463 16.6111 11.9676 16.6175 11.9546C16.6206 11.9482 16.6278 11.9359 16.6409 11.9211C16.6541 11.9061 16.6699 11.8924 16.6867 11.8815L17.5005 13.1416L18.3143 14.4017C19.2173 13.8185 19.6255 12.8377 19.6255 11.8749H18.1255ZM17.5005 13.1416L16.6867 11.8815C16.6999 11.873 16.7147 11.8661 16.7291 11.8616C16.7433 11.8571 16.7527 11.8562 16.755 11.8561C16.7598 11.8559 16.7259 11.8587 16.6527 11.8286L16.0839 13.2166L15.515 14.6046C16.39 14.9631 17.4286 14.9737 18.3143 14.4017L17.5005 13.1416ZM16.0839 13.2166L16.6787 11.8396L12.8787 10.1979L12.2839 11.5749L11.689 12.9519L15.489 14.5936L16.0839 13.2166ZM12.2839 11.5749H10.7839V13.6333H12.2839H13.7839V11.5749H12.2839ZM12.2839 13.6333H10.7839C10.7839 13.8424 10.8276 14.0066 10.8423 14.0606C10.8642 14.141 10.8899 14.2129 10.9145 14.2732C10.939 14.3333 10.9716 14.4046 11.014 14.4803C11.044 14.5337 11.1302 14.6843 11.2815 14.8356L12.3422 13.7749L13.4028 12.7143C13.5416 12.8531 13.6144 12.9839 13.631 13.0136C13.6602 13.0656 13.6798 13.1093 13.6928 13.1413C13.7059 13.1734 13.7217 13.2167 13.7366 13.2713C13.7443 13.2996 13.7839 13.4408 13.7839 13.6333H12.2839ZM12.3422 13.7749L11.2792 14.8333L13.1792 16.7416L14.2422 15.6833L15.3052 14.6249L13.4052 12.7166L12.3422 13.7749ZM14.2422 15.6833L13.1815 16.7439C13.1682 16.7306 13.1598 16.72 13.155 16.7134C13.1526 16.7101 13.1509 16.7075 13.1499 16.7059C13.1489 16.7043 13.1485 16.7034 13.1484 16.7034C13.1484 16.7033 13.1487 16.7039 13.1493 16.7052C13.1498 16.7064 13.1506 16.7082 13.1514 16.7105C13.1532 16.7151 13.155 16.7209 13.1565 16.7274C13.158 16.7339 13.1589 16.7399 13.1595 16.7449C13.1597 16.7473 13.1598 16.7492 13.1599 16.7506C13.1599 16.7519 13.1599 16.7526 13.1599 16.7525C13.1599 16.7525 13.16 16.7515 13.1601 16.7496C13.1603 16.7477 13.1607 16.7447 13.1614 16.7407C13.1627 16.7327 13.1656 16.7195 13.1716 16.7017L14.5922 17.1833L16.0128 17.6648C16.3628 16.6323 16.0731 15.3928 15.3028 14.6226L14.2422 15.6833ZM14.5922 17.1833L13.1692 16.7089L12.8025 17.8089L14.2255 18.2833L15.6485 18.7576L16.0152 17.6576L14.5922 17.1833ZM14.2255 18.2833L12.8084 17.7916C12.8047 17.8021 12.8025 17.802 12.8077 17.7964C12.8102 17.7938 12.8138 17.7906 12.8184 17.7874C12.8232 17.7842 12.8279 17.7818 12.8318 17.7802L13.3839 19.1749L13.9359 20.5696C14.7628 20.2423 15.3654 19.5742 15.6427 18.7749L14.2255 18.2833ZM13.3839 19.1749L12.8217 17.7843C12.8215 17.7844 12.8224 17.784 12.8244 17.7836C12.8263 17.7833 12.8286 17.7831 12.8311 17.7832C12.8366 17.7834 12.8408 17.7848 12.8427 17.7857L12.1839 19.1333L11.525 20.4808C12.2817 20.8507 13.1588 20.8838 13.946 20.5656L13.3839 19.1749ZM12.1839 19.1333L12.9556 17.847C12.9442 17.8402 12.9397 17.8375 12.9361 17.8353C12.9332 17.8335 12.9347 17.8344 12.9388 17.8371C12.9476 17.8428 12.9688 17.857 12.9959 17.8786L12.0589 19.0499L11.1218 20.2212C11.2534 20.3265 11.3789 20.3996 11.4121 20.4195L12.1839 19.1333ZM12.0589 19.0499L13.0245 17.9021L11.0828 16.2687L10.1172 17.4166L9.15159 18.5645L11.0933 20.1978L12.0589 19.0499ZM10.1172 17.4166L11.1049 16.2877C10.6935 15.9278 10.2247 15.8705 9.95299 15.8763C9.68921 15.8819 9.2608 15.9536 8.88267 16.2777L9.85885 17.4166L10.835 18.5555C10.5152 18.8296 10.1827 18.8721 10.0168 18.8756C9.84301 18.8793 9.47416 18.8471 9.12943 18.5455L10.1172 17.4166ZM9.85885 17.4166L8.89326 16.2687L6.95159 17.9021L7.91719 19.0499L8.88278 20.1978L10.8245 18.5645L9.85885 17.4166ZM7.91719 19.0499L6.85653 17.9893C6.99383 17.852 7.13549 17.7754 7.24343 17.7322L7.80052 19.1249L8.35761 20.5177C8.54888 20.4411 8.77388 20.3146 8.97785 20.1106L7.91719 19.0499ZM7.80052 19.1249L7.04471 17.8293C7.11074 17.7908 7.15581 17.7916 7.15052 17.7916V19.2916V20.7916C7.59523 20.7916 8.09031 20.6924 8.55633 20.4206L7.80052 19.1249ZM7.96719 10.1999V11.6999C7.8934 11.6999 7.77342 11.6783 7.65349 11.5962L8.50052 10.3583L9.34755 9.12031C8.91096 8.82159 8.42431 8.69994 7.96719 8.69994V10.1999ZM8.50052 10.3583L7.67675 11.6118C7.60242 11.563 7.54163 11.494 7.50292 11.4181C7.4652 11.3442 7.45885 11.285 7.45885 11.2583H8.95885H10.4589C10.4589 10.4231 10.0806 9.60175 9.32429 9.10471L8.50052 10.3583ZM8.95885 11.2583H7.45885V13.6333H8.95885H10.4589V11.2583H8.95885ZM8.95885 13.6333H7.45885C7.45885 13.6173 7.45981 13.6065 7.46044 13.6009C7.46108 13.5953 7.46161 13.5931 7.46135 13.5944C7.46109 13.5955 7.46033 13.5988 7.4588 13.6037C7.45728 13.6085 7.4553 13.614 7.45292 13.6198C7.45054 13.6256 7.44813 13.6307 7.44597 13.6349C7.44379 13.6391 7.44237 13.6414 7.44217 13.6417C7.44195 13.6421 7.44369 13.6393 7.44807 13.6338C7.45239 13.6283 7.4605 13.6186 7.47319 13.6059L8.53385 14.6666L9.59451 15.7273C10.1295 15.1923 10.4589 14.3843 10.4589 13.6333H8.95885ZM8.53385 14.6666L7.47087 13.6083L5.5792 15.5083L6.64219 16.5666L7.70518 17.6249L9.59684 15.7249L8.53385 14.6666ZM6.64219 16.5666L5.47088 15.6296C5.24519 15.9117 5.16612 16.214 5.14116 16.3164C5.12044 16.4013 5.09996 16.5099 5.09165 16.6337C5.08547 16.7258 5.07385 16.9717 5.16916 17.2576L6.59219 16.7833L8.01521 16.3089C8.10219 16.5699 8.08849 16.7813 8.08491 16.8346C8.07921 16.9196 8.06602 16.985 8.05572 17.0272C8.04498 17.0713 8.02935 17.1229 8.00519 17.1816C7.98928 17.2203 7.93349 17.3536 7.81349 17.5036L6.64219 16.5666ZM6.59219 16.7833L5.1681 17.2544L5.53476 18.3627L6.95885 17.8916L8.38295 17.4205L8.01628 16.3121L6.59219 16.7833ZM6.95885 17.8916L5.52212 18.3226C5.72615 19.0027 6.24378 19.2861 6.4047 19.3666L7.07552 18.0249L7.74634 16.6833C7.7772 16.6987 7.91009 16.7652 8.04855 16.8971C8.19846 17.0398 8.32676 17.2311 8.39559 17.4606L6.95885 17.8916ZM7.07552 18.0249L6.60118 19.448C6.54873 19.4305 7.07012 19.6551 7.66653 19.4563L7.19219 18.0333L6.71785 16.6102C7.21425 16.4448 7.65231 16.6361 7.54986 16.6019L7.07552 18.0249ZM7.19219 18.0333L8.15949 19.1797L10.0262 17.6047L9.05885 16.4583L8.09155 15.3118L6.22488 16.8868L7.19219 18.0333ZM9.05885 16.4583L10.035 17.5972C10.0183 17.6115 10.0046 17.6175 9.99871 17.6196C9.99351 17.6215 9.99314 17.6208 9.99635 17.6208C9.99957 17.6208 9.99919 17.6215 9.994 17.6196C9.98809 17.6175 9.97437 17.6115 9.95767 17.5972L10.9339 16.4583L11.91 15.3194C10.8233 14.3879 9.1694 14.3879 8.08267 15.3194L9.05885 16.4583ZM10.9339 16.4583L9.96702 17.6051L11.8254 19.1718L12.7922 18.0249L13.759 16.8781L11.9007 15.3114L10.9339 16.4583ZM12.7922 18.0249L12.5801 19.5099C12.8883 19.5539 13.165 19.5151 13.3915 19.4396L12.9172 18.0166L12.4428 16.5936C12.6194 16.5347 12.8127 16.5126 13.0043 16.54L12.7922 18.0249ZM12.9172 18.0166L13.588 19.3582C13.6344 19.335 14.2555 19.059 14.4789 18.3143L13.0422 17.8833L11.6054 17.4522C11.7789 16.8742 12.2666 16.6648 12.2464 16.675L12.9172 18.0166ZM13.0422 17.8833L14.4652 18.3576L14.8319 17.2576L13.4089 16.7833L11.9858 16.3089L11.6192 17.4089L13.0422 17.8833ZM13.4089 16.7833L14.8511 17.1954C14.9707 16.7767 14.8849 16.4125 14.8599 16.3101C14.8377 16.2192 14.8053 16.1151 14.758 16.0067C14.7256 15.9324 14.6271 15.7135 14.4195 15.5059L13.3589 16.5666L12.2982 17.6273C12.1894 17.5185 12.1224 17.4165 12.088 17.3599C12.0501 17.2972 12.0245 17.2434 12.0081 17.2059C11.976 17.1322 11.9571 17.0692 11.9453 17.021C11.9335 16.9724 11.921 16.9066 11.9158 16.8248C11.9118 16.7627 11.9043 16.5892 11.9666 16.3712L13.4089 16.7833ZM13.3589 16.5666L14.4218 15.5083L12.5302 13.6083L11.4672 14.6666L10.4042 15.7249L12.2959 17.6249L13.3589 16.5666ZM11.4672 14.6666L12.4907 13.57C12.5103 13.5883 12.5235 13.6032 12.5314 13.6127C12.5394 13.6224 12.5437 13.6287 12.5452 13.631C12.5476 13.6346 12.5444 13.6301 12.5395 13.6186C12.5347 13.6072 12.5322 13.5979 12.5313 13.5942C12.5303 13.5895 12.5339 13.6024 12.5339 13.6333H11.0339H9.53385C9.53385 14.3894 9.87102 15.2287 10.4437 15.7632L11.4672 14.6666ZM11.0339 13.6333H12.5339V11.2583H11.0339H9.53385V13.6333H11.0339ZM11.0339 11.2583H12.5339C12.5339 11.2817 12.5286 11.3364 12.4937 11.4071C12.4576 11.4803 12.3975 11.5539 12.316 11.609L11.4755 10.3666L10.6351 9.12418C9.88486 9.63166 9.53385 10.4548 9.53385 11.2583H11.0339ZM11.4755 10.3666L12.316 11.609C12.2298 11.6673 12.1351 11.6961 12.0509 11.7018C11.9688 11.7073 11.9118 11.6903 11.8846 11.6787L12.4755 10.2999L13.0664 8.92122C12.3072 8.59586 11.3926 8.61169 10.6351 9.12418L11.4755 10.3666ZM12.4755 10.2999L11.8819 11.6775L15.9819 13.4442L16.5755 12.0666L17.1691 10.689L13.0691 8.92238L12.4755 10.2999ZM16.5755 12.0666L16.0184 13.4593C16.1812 13.5244 16.3689 13.5786 16.5727 13.6C16.6733 13.6106 16.8049 13.6161 16.9547 13.5985C17.0731 13.5846 17.3521 13.5405 17.6409 13.348L16.8089 12.0999L15.9768 10.8519C16.2531 10.6677 16.5123 10.6299 16.6042 10.6191C16.7274 10.6046 16.8257 10.6101 16.8867 10.6165C17.0113 10.6296 17.0948 10.6588 17.1326 10.6739L16.5755 12.0666ZM16.8089 12.0999L17.6409 13.348C17.9172 13.1638 18.0639 12.9363 18.1263 12.8286C18.2028 12.6967 18.2509 12.5712 18.2819 12.4695C18.3447 12.264 18.3672 12.0603 18.3672 11.8749H16.8672H15.3672C15.3672 11.8229 15.373 11.7234 15.4129 11.5929C15.4325 11.5287 15.4675 11.4334 15.5307 11.3244C15.5799 11.2396 15.713 11.0277 15.9768 10.8519L16.8089 12.0999ZM16.8672 11.8749H18.3672V10.7999H16.8672H15.3672V11.8749H16.8672ZM16.8672 10.7999H18.3672C18.3672 10.263 18.1601 9.79882 17.9542 9.48368C17.7512 9.17299 17.4028 8.78308 16.8883 8.57125L16.3172 9.95827L15.7461 11.3453C15.6159 11.2917 15.5392 11.2279 15.5073 11.1985C15.4719 11.166 15.453 11.1403 15.4427 11.1245C15.4323 11.1086 15.4181 11.0836 15.4043 11.0438C15.3918 11.0078 15.3672 10.9242 15.3672 10.7999H16.8672ZM16.3172 9.95827L16.9119 8.58122L12.2619 6.57288L11.6672 7.94993L11.0724 9.32699L15.7224 11.3353L16.3172 9.95827ZM11.6672 7.94993L12.2618 6.57284C12.3791 6.62346 12.4424 6.69403 12.4747 6.74364C12.5069 6.7932 12.5422 6.8739 12.5422 6.9916H11.0422H9.54219C9.54219 7.97816 10.1454 8.92669 11.0725 9.32703L11.6672 7.94993ZM11.0422 6.9916H12.5422V4.4916H11.0422H9.54219V6.9916H11.0422ZM11.0422 4.4916H12.5422C12.5422 3.86001 12.309 3.27422 12.0398 2.83772C11.7703 2.4006 11.3499 1.92674 10.7797 1.64163L10.1089 2.98327L9.43803 4.32491C9.39228 4.30203 9.3862 4.28911 9.40872 4.31147C9.42912 4.33173 9.45785 4.36618 9.48619 4.41215C9.51454 4.45813 9.53245 4.49933 9.5414 4.5266C9.55136 4.55698 9.54219 4.54483 9.54219 4.4916H11.0422ZM10.1089 2.98327L10.7797 1.64163C10.2683 1.38592 9.71224 1.41807 9.27465 1.61255L9.88385 2.98327L10.4931 4.35399C10.2055 4.4818 9.81611 4.51395 9.43803 4.32491L10.1089 2.98327ZM9.88385 2.98327L9.19472 1.65094C8.63261 1.94169 8.22052 2.42303 7.95936 2.8514C7.69846 3.27934 7.45885 3.86658 7.45885 4.49994H8.95885H10.4589C10.4589 4.56051 10.4482 4.57505 10.4596 4.54055C10.4696 4.51018 10.4896 4.46436 10.5209 4.41305C10.5521 4.36176 10.5839 4.32278 10.6066 4.29953C10.6324 4.27324 10.6253 4.28855 10.573 4.31559L9.88385 2.98327ZM8.95885 4.49994H7.45885V6.99993H8.95885H10.4589V4.49994H8.95885ZM8.95885 6.99993H7.45885C7.45885 6.87446 7.49627 6.79539 7.52409 6.75236C7.55235 6.70864 7.61437 6.63508 7.7392 6.58117L8.33385 7.95827L8.92851 9.33536C9.86168 8.9324 10.4589 7.97141 10.4589 6.99993H8.95885ZM8.33385 7.95827L7.73911 6.58122L3.08911 8.58955L3.68385 9.9666L4.2786 11.3437L8.9286 9.33532L8.33385 7.95827ZM3.68385 9.9666L3.12677 8.57389C2.60719 8.78172 2.2533 9.16921 2.04595 9.48128C1.83809 9.79411 1.62552 10.2597 1.62552 10.7999H3.12552H4.62552C4.62552 10.9311 4.59897 11.0193 4.5857 11.0568C4.57094 11.0985 4.5558 11.1248 4.54468 11.1415C4.53362 11.1581 4.51389 11.1844 4.47786 11.2168C4.44482 11.2466 4.36851 11.3083 4.24094 11.3593L3.68385 9.9666ZM3.12552 10.7999H1.62552V11.8749H3.12552H4.62552V10.7999H3.12552ZM3.12552 11.8749H1.62552C1.62552 12.0603 1.64799 12.264 1.71078 12.4695C1.74185 12.5712 1.78993 12.6967 1.86639 12.8286C1.92881 12.9363 2.07554 13.1638 2.3518 13.348L3.18385 12.0999L4.0159 10.8519C4.27966 11.0277 4.41285 11.2396 4.462 11.3244C4.52518 11.4334 4.56023 11.5287 4.57984 11.5929C4.61972 11.7234 4.62552 11.8229 4.62552 11.8749H3.12552ZM3.18385 12.0999L2.3518 13.348C2.64058 13.5405 2.91964 13.5846 3.03802 13.5985C3.1878 13.6161 3.31944 13.6106 3.42005 13.6C3.62384 13.5786 3.81146 13.5244 3.97427 13.4593L3.41719 12.0666L2.8601 10.6739C2.89791 10.6588 2.98137 10.6296 3.10599 10.6165C3.16701 10.6101 3.26533 10.6046 3.38854 10.6191C3.48036 10.6299 3.73963 10.6677 4.0159 10.8519L3.18385 12.0999ZM3.41719 12.0666L4.01179 13.4437L8.10345 11.6771L7.50885 10.2999L6.91425 8.92282L2.82259 10.6895L3.41719 12.0666ZM7.50885 10.2999L8.11806 11.6707C8.08349 11.686 8.03482 11.6999 7.96719 11.6999V10.1999V8.69994C7.59956 8.69994 7.23422 8.78052 6.89965 8.92922L7.50885 10.2999Z" fill="#163A96" mask="url(#path-1-inside-1_7062_140923)"/>
</svg>
