<svg width="20" height="20" viewBox="0 0 20 20" fill="none" xmlns="http://www.w3.org/2000/svg">
<path d="M1.5 15.9167V12.917V12.417H2H18H18.5V12.917V15.9021L18.5051 15.987C18.5226 16.1088 18.5845 16.2201 18.6791 16.2993C18.7768 16.3811 18.9021 16.4225 19.0293 16.415C19.1565 16.4076 19.2761 16.3518 19.3636 16.2591C19.4511 16.1665 19.4999 16.0439 19.5 15.9164V7.92407L19.4954 7.7631C19.4563 7.12922 19.1774 6.53387 18.7152 6.09806C18.2513 5.6606 17.6377 5.41696 17 5.41699H9.01494L8.92968 5.42209C8.81262 5.43872 8.70509 5.49633 8.62636 5.58487C8.54499 5.67637 8.50003 5.79455 8.5 5.91699C8.5 5.91701 8.5 5.91704 8.5 5.91706V10.917V11.417H8H2H1.5V10.917V4.93194L1.4949 4.84667C1.47827 4.72962 1.42067 4.62209 1.33212 4.54335C1.24062 4.46198 1.12244 4.41702 1 4.41699L1.5 15.9167ZM1.5 15.9167C1.49979 16.044 1.451 16.1665 1.36358 16.2591C1.27609 16.3518 1.15652 16.4076 1.0293 16.415C0.90208 16.4225 0.77681 16.3811 0.679084 16.2993C0.584467 16.2201 0.522584 16.1088 0.505082 15.987L0.5 15.902V4.91699C0.5 4.78438 0.552678 4.65721 0.646447 4.56344C0.740199 4.46969 0.86735 4.41701 0.999934 4.41699L1.5 15.9167Z" fill="#F7951D" stroke="#F7951D"/>
<path d="M5 5.91699C5.38914 5.91712 5.7698 6.03076 6.09532 6.244C6.42084 6.45724 6.67707 6.76082 6.83263 7.11752C6.98818 7.47422 7.0363 7.86855 6.97108 8.25219C6.90586 8.63583 6.73013 8.99211 6.46544 9.27737C6.20075 9.56263 5.85859 9.76447 5.48089 9.85816C5.10319 9.95185 4.70637 9.93332 4.33904 9.80484C3.97172 9.67636 3.64986 9.44351 3.4129 9.13483C3.17594 8.82615 3.03419 8.45504 3.005 8.06699L3 7.91699L3.005 7.76699C3.04284 7.26384 3.26947 6.79358 3.63945 6.45049C4.00943 6.1074 4.49542 5.91683 5 5.91699Z" fill="#F7951D"/>
</svg>
