<svg width="25" height="24" viewBox="0 0 25 24" fill="none" xmlns="http://www.w3.org/2000/svg">
<path d="M11.6599 21.5695C12.2634 22.1306 13.2366 22.1306 13.8401 21.5695C13.5499 21.8489 13.1688 22.0003 12.75 22.0003C12.3312 22.0003 11.9501 21.8489 11.6599 21.5695ZM2.75 12.0003C2.75 11.5835 2.90011 11.2039 3.17716 10.9141C2.90625 11.206 2.75 11.5875 2.75 12.0003ZM22.3229 13.0865C22.5937 12.7946 22.75 12.4132 22.75 12.0003C22.75 12.4172 22.5999 12.7968 22.3229 13.0865ZM6.81 19.5404C5.92425 19.5404 5.20999 18.8261 5.20999 17.9403C5.20999 18.8244 5.92568 19.5404 6.81 19.5404ZM5.20999 6.06039C5.20999 5.17457 5.92425 4.46029 6.81 4.46029C5.92568 4.46029 5.20999 5.17628 5.20999 6.06039ZM18.69 4.46029C19.5758 4.46029 20.29 5.17457 20.29 6.06039C20.29 5.17628 19.5743 4.46029 18.69 4.46029ZM20.29 17.9403C20.29 18.8261 19.5758 19.5404 18.69 19.5404C19.5743 19.5404 20.29 18.8244 20.29 17.9403Z" fill="#A5A5A5" stroke="#A5A5A5" stroke-width="1.5"/>
<path d="M15.7502 15.25C15.5996 15.25 15.4902 15.1309 15.4902 15C15.4902 14.8642 15.6044 14.75 15.7402 14.75C15.876 14.75 15.9902 14.8642 15.9902 15C15.9902 15.1457 15.8762 15.25 15.7502 15.25Z" fill="#A5A5A5" stroke="#A5A5A5" stroke-width="1.5"/>
<path d="M9.76001 10C9.20001 10 8.75 9.55 8.75 9C8.75 8.45 9.2 8 9.75 8C10.3 8 10.75 8.45 10.75 9C10.75 9.55 10.31 10 9.76001 10Z" fill="#A5A5A5"/>
<path d="M9.74945 15.7495C9.55945 15.7495 9.36945 15.6795 9.21945 15.5295C8.92945 15.2395 8.92945 14.7595 9.21945 14.4695L15.2195 8.46945C15.5095 8.17945 15.9895 8.17945 16.2795 8.46945C16.5695 8.75945 16.5695 9.23951 16.2795 9.52951L10.2795 15.5295C10.1295 15.6795 9.93945 15.7495 9.74945 15.7495Z" fill="#A5A5A5"/>
</svg>
