<svg width="20" height="20" viewBox="0 0 20 20" fill="none" xmlns="http://www.w3.org/2000/svg">
<path d="M3.63724 15.4043L3.63553 15.4027C3.33135 15.1161 3.16314 14.6624 3.22279 14.1312C3.2228 14.1311 3.22282 14.131 3.22283 14.1309L3.53104 11.432C3.53104 11.4319 3.53105 11.4319 3.53105 11.4318C3.53106 11.4318 3.53106 11.4317 3.53107 11.4317C3.55269 11.2437 3.62499 11.0003 3.73778 10.7574C3.85095 10.5138 3.98856 10.3057 4.11689 10.1744L4.11694 10.1745L4.12275 10.1683L10.9644 2.92667L10.9644 2.92665C11.7644 2.07985 12.5202 1.70932 13.2276 1.68934C13.935 1.66937 14.7107 1.9967 15.5576 2.79675C16.4044 3.59673 16.7749 4.35255 16.7949 5.05991C16.8149 5.76731 16.4876 6.54305 15.6875 7.38993L8.84585 14.6316L8.84584 14.6316L8.84377 14.6338C8.56854 14.9287 8.01835 15.2246 7.62008 15.2899L7.62008 15.2899L7.61678 15.2904L4.96008 15.7442C4.893 15.7485 4.84318 15.7529 4.8006 15.7566C4.7346 15.7624 4.68603 15.7666 4.61763 15.7666C4.22178 15.7666 3.87511 15.6306 3.63724 15.4043ZM11.1458 3.08165L11.1457 3.0818L4.30556 10.3301C4.30527 10.3304 4.30499 10.3307 4.3047 10.331C4.1671 10.4759 4.0506 10.6797 3.96871 10.8552C3.88574 11.033 3.807 11.249 3.78065 11.44L3.78052 11.44L3.77919 11.4516L3.47127 14.1481C3.47119 14.1488 3.47111 14.1494 3.47104 14.15C3.42541 14.53 3.50941 14.9318 3.80765 15.2135C4.10839 15.4975 4.51091 15.5496 4.87587 15.4943L4.87588 15.4944L4.88515 15.4928L7.56848 15.0345L7.56925 15.0344C7.7665 15.0004 7.98154 14.9078 8.15346 14.8153C8.32566 14.7227 8.51932 14.5953 8.6547 14.4531L8.65608 14.4517L15.4977 7.21L15.4987 7.20896C16.0303 6.64306 16.4909 6.00284 16.5365 5.24887C16.5837 4.4681 16.1817 3.72571 15.3788 2.97091C14.6673 2.28676 13.9749 1.92496 13.276 1.92496C12.4143 1.92496 11.7293 2.46383 11.1458 3.08165Z" fill="white" stroke="white"/>
<path d="M14.4758 8.38097L14.4762 8.38101C14.5365 8.3869 14.5881 8.44265 14.5859 8.5098C14.573 8.57543 14.511 8.62504 14.4497 8.62504H14.4496H14.4495H14.4494H14.4493H14.4492H14.4491H14.449H14.4489H14.4488H14.4487H14.4486H14.4485H14.4484H14.4483H14.4482H14.4481H14.448H14.4479H14.4478H14.4477H14.4476H14.4475H14.4474H14.4473H14.4472H14.4471H14.447H14.4469H14.4468H14.4467H14.4466H14.4465H14.4464H14.4463H14.4462H14.4461H14.446H14.4459H14.4458H14.4457H14.4456H14.4455H14.4453H14.4452H14.4451H14.445H14.4449H14.4448H14.4447H14.4446H14.4445H14.4444H14.4443H14.4442H14.4441H14.444H14.4439H14.4438H14.4436H14.4435H14.4434H14.4433H14.4432H14.4431H14.443H14.4429H14.4428H14.4427H14.4426H14.4425H14.4423H14.4422H14.4421H14.442H14.4419H14.4418H14.4417H14.4416H14.4415H14.4414H14.4412H14.4411H14.441H14.4409H14.4408H14.4407H14.4406H14.4405H14.4404H14.4402H14.4401H14.44H14.4399H14.4398H14.4397H14.4396H14.4395H14.4393H14.4392H14.4391H14.439H14.4389H14.4388H14.4387H14.4386H14.4384H14.4383H14.4382H14.4381H14.438H14.4379H14.4378H14.4376H14.4375H14.4374H14.4373H14.4372H14.4371H14.4369H14.4368H14.4367H14.4366H14.4365H14.4364H14.4363H14.4361H14.436H14.4359H14.4358H14.4357H14.4356H14.4354H14.4353H14.4352H14.4351H14.435H14.4349H14.4347H14.4346H14.4345H14.4344H14.4343H14.4342H14.434H14.4339H14.4338H14.4337H14.4336H14.4335H14.4333H14.4332H14.4331H14.433H14.4329H14.4327H14.4326H14.4325H14.4324H14.4323H14.4322H14.432H14.4319H14.4318H14.4317H14.4316H14.4314H14.4313H14.4312H14.4311H14.431H14.4308H14.4307H14.4306H14.4305H14.4304H14.4302H14.4301H14.43H14.4299H14.4298H14.4296H14.4295H14.4294H14.4293H14.4292H14.429H14.4289H14.4288H14.4287H14.4286H14.4284H14.4283H14.4282H14.4281H14.428H14.4278H14.4277H14.4276H14.4275H14.4274H14.4272H14.4271H14.427H14.4269H14.4268H14.4266H14.4265H14.4264H14.4263H14.4261H14.426H14.4259H14.4258H14.4257H14.4255H14.4254H14.4253H14.4252H14.4251H14.4249H14.4248H14.4247H14.4246H14.4244H14.4243H14.4242H14.4241H14.424H14.4238H14.4237H14.4236H14.4235H14.4234H14.4232H14.4231H14.423H14.4229H14.4227H14.4226H14.4225H14.4224H14.4223H14.4221H14.422H14.4219H14.4218H14.4216H14.4215H14.4214H14.4213H14.4212H14.421H14.4209H14.4208H14.4207H14.4205H14.4204H14.4203H14.4202H14.4201H14.4199H14.4198H14.4197H14.4196H14.4194H14.4193H14.4192H14.4191H14.419H14.4188H14.4187H14.4186H14.4185H14.4183H14.4182H14.4181H14.418H14.4179H14.4177H14.4176H14.4175H14.4174H14.4173H14.4171H14.417H14.4169H14.4168H14.4167C12.0551 8.37952 10.1591 6.58271 9.79426 4.23465C9.78525 4.16835 9.82846 4.10149 9.90281 4.08573C9.96882 4.07904 10.0343 4.12365 10.0481 4.19877C10.4017 6.43709 12.2161 8.1587 14.4758 8.38097Z" fill="white" stroke="white"/>
<path d="M17.5 18.4583H2.5C2.46985 18.4583 2.43857 18.446 2.41293 18.4203C2.38728 18.3947 2.375 18.3634 2.375 18.3333C2.375 18.3031 2.38728 18.2718 2.41293 18.2462C2.43857 18.2205 2.46985 18.2083 2.5 18.2083H17.5C17.5301 18.2083 17.5614 18.2205 17.5871 18.2462C17.6127 18.2718 17.625 18.3031 17.625 18.3333C17.625 18.3634 17.6127 18.3947 17.5871 18.4203C17.5614 18.446 17.5301 18.4583 17.5 18.4583Z" fill="#163A96" stroke="white"/>
</svg>
