<svg width="25" height="24" viewBox="0 0 25 24" fill="none" xmlns="http://www.w3.org/2000/svg">
<path d="M21.1492 1.2002H4.34922C3.02922 1.2002 1.94922 2.2802 1.94922 3.6002V20.4002C1.94922 21.7214 3.02922 22.8002 4.34922 22.8002H12.7492V14.4002H10.3492V11.4302H12.7492V8.9702C12.7492 6.3734 14.2036 4.5494 17.2684 4.5494L19.432 4.5518V7.6778H17.9956C16.8028 7.6778 16.3492 8.573 16.3492 9.4034V11.4314H19.4308L18.7492 14.4002H16.3492V22.8002H21.1492C22.4692 22.8002 23.5492 21.7214 23.5492 20.4002V3.6002C23.5492 2.2802 22.4692 1.2002 21.1492 1.2002Z" fill="white"/>
</svg>
