<svg width="41" height="40" viewBox="0 0 41 40" fill="none" xmlns="http://www.w3.org/2000/svg">
<mask id="path-1-inside-1_22_478" fill="white">
<path d="M28.8333 16.0417H23.8333C23.4917 16.0417 23.2083 15.7583 23.2083 15.4167C23.2083 15.075 23.4917 14.7917 23.8333 14.7917H28.8333C29.175 14.7917 29.4583 15.075 29.4583 15.4167C29.4583 15.7583 29.175 16.0417 28.8333 16.0417Z"/>
</mask>
<path d="M28.8333 16.0417H23.8333C23.4917 16.0417 23.2083 15.7583 23.2083 15.4167C23.2083 15.075 23.4917 14.7917 23.8333 14.7917H28.8333C29.175 14.7917 29.4583 15.075 29.4583 15.4167C29.4583 15.7583 29.175 16.0417 28.8333 16.0417Z" fill="#163A96"/>
<path d="M28.8333 14.5417H23.8333V17.5417H28.8333V14.5417ZM23.8333 14.5417C24.3201 14.5417 24.7083 14.9299 24.7083 15.4167H21.7083C21.7083 16.5868 22.6632 17.5417 23.8333 17.5417V14.5417ZM24.7083 15.4167C24.7083 15.9034 24.3201 16.2917 23.8333 16.2917V13.2917C22.6632 13.2917 21.7083 14.2466 21.7083 15.4167H24.7083ZM23.8333 16.2917H28.8333V13.2917H23.8333V16.2917ZM28.8333 16.2917C28.3466 16.2917 27.9583 15.9034 27.9583 15.4167H30.9583C30.9583 14.2466 30.0034 13.2917 28.8333 13.2917V16.2917ZM27.9583 15.4167C27.9583 14.9299 28.3466 14.5417 28.8333 14.5417V17.5417C30.0034 17.5417 30.9583 16.5868 30.9583 15.4167H27.9583Z" fill="#163A96" mask="url(#path-1-inside-1_22_478)"/>
<mask id="path-3-inside-2_22_478" fill="white">
<path d="M15.5 16.0417H12.1667C11.825 16.0417 11.5417 15.7583 11.5417 15.4167C11.5417 15.075 11.825 14.7917 12.1667 14.7917H15.5C15.8417 14.7917 16.125 15.075 16.125 15.4167C16.125 15.7583 15.8417 16.0417 15.5 16.0417Z"/>
</mask>
<path d="M15.5 16.0417H12.1667C11.825 16.0417 11.5417 15.7583 11.5417 15.4167C11.5417 15.075 11.825 14.7917 12.1667 14.7917H15.5C15.8417 14.7917 16.125 15.075 16.125 15.4167C16.125 15.7583 15.8417 16.0417 15.5 16.0417Z" fill="#163A96"/>
<path d="M15.5 14.5417H12.1667V17.5417H15.5V14.5417ZM12.1667 14.5417C12.6534 14.5417 13.0417 14.9299 13.0417 15.4167H10.0417C10.0417 16.5868 10.9966 17.5417 12.1667 17.5417V14.5417ZM13.0417 15.4167C13.0417 15.9034 12.6534 16.2917 12.1667 16.2917V13.2917C10.9966 13.2917 10.0417 14.2466 10.0417 15.4167H13.0417ZM12.1667 16.2917H15.5V13.2917H12.1667V16.2917ZM15.5 16.2917C15.0132 16.2917 14.625 15.9034 14.625 15.4167H17.625C17.625 14.2466 16.6701 13.2917 15.5 13.2917V16.2917ZM14.625 15.4167C14.625 14.9299 15.0132 14.5417 15.5 14.5417V17.5417C16.6701 17.5417 17.625 16.5868 17.625 15.4167H14.625Z" fill="#163A96" mask="url(#path-3-inside-2_22_478)"/>
<mask id="path-5-inside-3_22_478" fill="white">
<path d="M18.8333 18.9583C16.8833 18.9583 15.2917 17.3667 15.2917 15.4167C15.2917 13.4667 16.8833 11.875 18.8333 11.875C20.7833 11.875 22.375 13.4667 22.375 15.4167C22.375 17.3667 20.7833 18.9583 18.8333 18.9583ZM18.8333 13.125C17.5667 13.125 16.5417 14.15 16.5417 15.4167C16.5417 16.6833 17.5667 17.7083 18.8333 17.7083C20.1 17.7083 21.125 16.6833 21.125 15.4167C21.125 14.15 20.1 13.125 18.8333 13.125Z"/>
</mask>
<path d="M18.8333 18.9583C16.8833 18.9583 15.2917 17.3667 15.2917 15.4167C15.2917 13.4667 16.8833 11.875 18.8333 11.875C20.7833 11.875 22.375 13.4667 22.375 15.4167C22.375 17.3667 20.7833 18.9583 18.8333 18.9583ZM18.8333 13.125C17.5667 13.125 16.5417 14.15 16.5417 15.4167C16.5417 16.6833 17.5667 17.7083 18.8333 17.7083C20.1 17.7083 21.125 16.6833 21.125 15.4167C21.125 14.15 20.1 13.125 18.8333 13.125Z" fill="#163A96"/>
<path d="M18.8333 17.4583C17.7118 17.4583 16.7917 16.5382 16.7917 15.4167H13.7917C13.7917 18.1951 16.0549 20.4583 18.8333 20.4583V17.4583ZM16.7917 15.4167C16.7917 14.2951 17.7118 13.375 18.8333 13.375V10.375C16.0549 10.375 13.7917 12.6382 13.7917 15.4167H16.7917ZM18.8333 13.375C19.9549 13.375 20.875 14.2951 20.875 15.4167H23.875C23.875 12.6382 21.6118 10.375 18.8333 10.375V13.375ZM20.875 15.4167C20.875 16.5382 19.9549 17.4583 18.8333 17.4583V20.4583C21.6118 20.4583 23.875 18.1951 23.875 15.4167H20.875ZM18.8333 11.625C16.7382 11.625 15.0417 13.3216 15.0417 15.4167H18.0417C18.0417 14.9784 18.3951 14.625 18.8333 14.625V11.625ZM15.0417 15.4167C15.0417 17.5118 16.7382 19.2083 18.8333 19.2083V16.2083C18.3951 16.2083 18.0417 15.8549 18.0417 15.4167H15.0417ZM18.8333 19.2083C20.9284 19.2083 22.625 17.5118 22.625 15.4167H19.625C19.625 15.8549 19.2716 16.2083 18.8333 16.2083V19.2083ZM22.625 15.4167C22.625 13.3216 20.9284 11.625 18.8333 11.625V14.625C19.2716 14.625 19.625 14.9784 19.625 15.4167H22.625Z" fill="#163A96" mask="url(#path-5-inside-3_22_478)"/>
<path d="M28.8333 25.2083H25.5C25.1583 25.2083 24.875 24.925 24.875 24.5833C24.875 24.2417 25.1583 23.9583 25.5 23.9583H28.8333C29.175 23.9583 29.4583 24.2417 29.4583 24.5833C29.4583 24.925 29.175 25.2083 28.8333 25.2083Z" fill="#163A96"/>
<path d="M17.1667 25.2083H12.1667C11.825 25.2083 11.5417 24.925 11.5417 24.5833C11.5417 24.2417 11.825 23.9583 12.1667 23.9583H17.1667C17.5083 23.9583 17.7917 24.2417 17.7917 24.5833C17.7917 24.925 17.5083 25.2083 17.1667 25.2083Z" fill="#163A96"/>
<path d="M22.1667 28.125C20.2167 28.125 18.625 26.5333 18.625 24.5833C18.625 22.6333 20.2167 21.0417 22.1667 21.0417C24.1167 21.0417 25.7083 22.6333 25.7083 24.5833C25.7083 26.5333 24.1167 28.125 22.1667 28.125ZM22.1667 22.2917C20.9 22.2917 19.875 23.3167 19.875 24.5833C19.875 25.85 20.9 26.875 22.1667 26.875C23.4333 26.875 24.4583 25.85 24.4583 24.5833C24.4583 23.3167 23.4333 22.2917 22.1667 22.2917Z" fill="#163A96"/>
</svg>
