<svg width="16" height="16" viewBox="0 0 16 16" fill="none" xmlns="http://www.w3.org/2000/svg">
<mask id="path-1-inside-1_7558_40741" fill="white">
<path fill-rule="evenodd" clip-rule="evenodd" d="M3.38623 3.37935C5.91623 0.852681 10.0296 0.879348 12.5749 3.42535C15.1216 5.97201 15.1482 10.0873 12.6176 12.6173C10.0869 15.1473 5.97223 15.1213 3.42556 12.5747C2.70914 11.8614 2.16785 10.9917 1.8442 10.0339C1.52054 9.07612 1.42334 8.05635 1.56023 7.05468C1.57817 6.92322 1.64761 6.80428 1.75325 6.72401C1.8589 6.64375 1.9921 6.60873 2.12356 6.62668C2.25502 6.64463 2.37396 6.71406 2.45423 6.81971C2.5345 6.92535 2.56951 7.05856 2.55156 7.19001C2.43535 8.03889 2.51761 8.90315 2.79188 9.71486C3.06615 10.5266 3.52496 11.2636 4.13223 11.868C6.29556 14.0307 9.77756 14.0433 11.9109 11.9107C14.0436 9.77735 14.0309 6.29535 11.8682 4.13201C9.70623 1.97068 6.22623 1.95668 4.09289 4.08668L4.59156 4.08868C4.65722 4.08899 4.72218 4.10222 4.78272 4.12763C4.84327 4.15304 4.89822 4.19013 4.94443 4.23678C4.99064 4.28342 5.02721 4.33872 5.05206 4.3995C5.0769 4.46028 5.08953 4.52535 5.08923 4.59101C5.08892 4.65668 5.07568 4.72163 5.05027 4.78218C5.02486 4.84272 4.98778 4.89767 4.94113 4.94388C4.89448 4.9901 4.83919 5.02667 4.77841 5.05151C4.71763 5.07636 4.65255 5.08899 4.58689 5.08868L2.88956 5.08068C2.75776 5.07998 2.63157 5.02726 2.53843 4.934C2.4453 4.84074 2.39275 4.71448 2.39223 4.58268L2.38356 2.88668C2.38321 2.82102 2.3958 2.75593 2.4206 2.69514C2.4454 2.63434 2.48194 2.57902 2.52812 2.53235C2.5743 2.48567 2.62923 2.44855 2.68975 2.4231C2.75028 2.39764 2.81523 2.38436 2.88089 2.38401C2.94655 2.38366 3.01164 2.39625 3.07244 2.42105C3.13323 2.44586 3.18855 2.48239 3.23523 2.52858C3.2819 2.57476 3.31903 2.62968 3.34448 2.69021C3.36993 2.75074 3.38321 2.81569 3.38356 2.88135L3.38623 3.37935ZM7.99956 4.83268C8.13217 4.83268 8.25934 4.88536 8.35311 4.97913C8.44688 5.0729 8.49956 5.20007 8.49956 5.33268V7.79268L10.0202 9.31268C10.068 9.35878 10.1061 9.41394 10.1324 9.47493C10.1586 9.53592 10.1724 9.60152 10.173 9.66791C10.1736 9.7343 10.161 9.80014 10.1359 9.8616C10.1108 9.92306 10.0737 9.97891 10.0268 10.0259C9.97983 10.0728 9.92402 10.11 9.86259 10.1352C9.80115 10.1603 9.73532 10.173 9.66893 10.1725C9.60254 10.1719 9.53692 10.1582 9.47591 10.132C9.4149 10.1058 9.35971 10.0677 9.31356 10.02L7.50023 8.20668V5.33335C7.50023 5.20074 7.5529 5.07356 7.64667 4.97979C7.74044 4.88603 7.86762 4.83335 8.00023 4.83335"/>
</mask>
<path fill-rule="evenodd" clip-rule="evenodd" d="M3.38623 3.37935C5.91623 0.852681 10.0296 0.879348 12.5749 3.42535C15.1216 5.97201 15.1482 10.0873 12.6176 12.6173C10.0869 15.1473 5.97223 15.1213 3.42556 12.5747C2.70914 11.8614 2.16785 10.9917 1.8442 10.0339C1.52054 9.07612 1.42334 8.05635 1.56023 7.05468C1.57817 6.92322 1.64761 6.80428 1.75325 6.72401C1.8589 6.64375 1.9921 6.60873 2.12356 6.62668C2.25502 6.64463 2.37396 6.71406 2.45423 6.81971C2.5345 6.92535 2.56951 7.05856 2.55156 7.19001C2.43535 8.03889 2.51761 8.90315 2.79188 9.71486C3.06615 10.5266 3.52496 11.2636 4.13223 11.868C6.29556 14.0307 9.77756 14.0433 11.9109 11.9107C14.0436 9.77735 14.0309 6.29535 11.8682 4.13201C9.70623 1.97068 6.22623 1.95668 4.09289 4.08668L4.59156 4.08868C4.65722 4.08899 4.72218 4.10222 4.78272 4.12763C4.84327 4.15304 4.89822 4.19013 4.94443 4.23678C4.99064 4.28342 5.02721 4.33872 5.05206 4.3995C5.0769 4.46028 5.08953 4.52535 5.08923 4.59101C5.08892 4.65668 5.07568 4.72163 5.05027 4.78218C5.02486 4.84272 4.98778 4.89767 4.94113 4.94388C4.89448 4.9901 4.83919 5.02667 4.77841 5.05151C4.71763 5.07636 4.65255 5.08899 4.58689 5.08868L2.88956 5.08068C2.75776 5.07998 2.63157 5.02726 2.53843 4.934C2.4453 4.84074 2.39275 4.71448 2.39223 4.58268L2.38356 2.88668C2.38321 2.82102 2.3958 2.75593 2.4206 2.69514C2.4454 2.63434 2.48194 2.57902 2.52812 2.53235C2.5743 2.48567 2.62923 2.44855 2.68975 2.4231C2.75028 2.39764 2.81523 2.38436 2.88089 2.38401C2.94655 2.38366 3.01164 2.39625 3.07244 2.42105C3.13323 2.44586 3.18855 2.48239 3.23523 2.52858C3.2819 2.57476 3.31903 2.62968 3.34448 2.69021C3.36993 2.75074 3.38321 2.81569 3.38356 2.88135L3.38623 3.37935ZM7.99956 4.83268C8.13217 4.83268 8.25934 4.88536 8.35311 4.97913C8.44688 5.0729 8.49956 5.20007 8.49956 5.33268V7.79268L10.0202 9.31268C10.068 9.35878 10.1061 9.41394 10.1324 9.47493C10.1586 9.53592 10.1724 9.60152 10.173 9.66791C10.1736 9.7343 10.161 9.80014 10.1359 9.8616C10.1108 9.92306 10.0737 9.97891 10.0268 10.0259C9.97983 10.0728 9.92402 10.11 9.86259 10.1352C9.80115 10.1603 9.73532 10.173 9.66893 10.1725C9.60254 10.1719 9.53692 10.1582 9.47591 10.132C9.4149 10.1058 9.35971 10.0677 9.31356 10.02L7.50023 8.20668V5.33335C7.50023 5.20074 7.5529 5.07356 7.64667 4.97979C7.74044 4.88603 7.86762 4.83335 8.00023 4.83335" fill="#A5A5A5"/>
<path d="M3.38623 3.37935L2.38624 3.3847L2.39906 5.7785L4.09287 4.08692L3.38623 3.37935ZM12.5749 3.42535L11.8677 4.13236L11.8678 4.13245L12.5749 3.42535ZM3.42556 12.5747L4.13267 11.8676L4.13113 11.866L3.42556 12.5747ZM1.56023 7.05468L2.55102 7.19008L2.55104 7.18994L1.56023 7.05468ZM2.55156 7.19001L3.54232 7.32565L3.54237 7.32528L2.55156 7.19001ZM4.13223 11.868L4.83923 11.1608L4.83767 11.1592L4.13223 11.868ZM11.9109 11.9107L12.6179 12.6179L12.6181 12.6177L11.9109 11.9107ZM11.8682 4.13201L12.5754 3.42502L12.5752 3.4248L11.8682 4.13201ZM4.09289 4.08668L3.38634 3.37902L1.68567 5.07704L4.08888 5.08667L4.09289 4.08668ZM4.59156 4.08868L4.59623 3.08869L4.59557 3.08869L4.59156 4.08868ZM4.58689 5.08868L4.58218 6.08867L4.58223 6.08867L4.58689 5.08868ZM2.88956 5.08068L2.88423 6.08067L2.88485 6.08067L2.88956 5.08068ZM2.39223 4.58268L3.39222 4.5787L3.39221 4.57757L2.39223 4.58268ZM2.38356 2.88668L3.38355 2.88157L3.38355 2.88135L2.38356 2.88668ZM3.38356 2.88135L2.38357 2.88668L2.38357 2.8867L3.38356 2.88135ZM8.49956 7.79268H7.49956V8.20702L7.79261 8.49994L8.49956 7.79268ZM10.0202 9.31268L9.31327 10.0199L9.31951 10.0262L9.32585 10.0323L10.0202 9.31268ZM9.31356 10.02L10.0325 9.32496L10.0266 9.31888L10.0207 9.31291L9.31356 10.02ZM7.50023 8.20668H6.50023V8.6209L6.79312 8.91379L7.50023 8.20668ZM7.50023 5.33335H8.50023H7.50023ZM4.09287 4.08692C6.22549 1.95711 9.70592 1.97002 11.8677 4.13236L13.2821 2.71833C10.3532 -0.211323 5.60696 -0.251747 2.67959 2.67177L4.09287 4.08692ZM11.8678 4.13245C14.0309 6.29561 14.0436 9.77767 11.9105 11.9101L13.3246 13.3245C16.2529 10.397 16.2122 5.64841 13.282 2.71824L11.8678 4.13245ZM11.9105 11.9101C9.77719 14.0429 6.29565 14.0306 4.13267 11.8676L2.71845 13.2818C5.6488 16.2121 10.3966 16.2518 13.3246 13.3245L11.9105 11.9101ZM4.13113 11.866C3.52426 11.2618 3.06573 10.5251 2.79157 9.71375L0.896824 10.354C1.26997 11.4583 1.89402 12.4609 2.71999 13.2833L4.13113 11.866ZM2.79157 9.71375C2.5174 8.90243 2.43506 8.03859 2.55102 7.19008L0.569435 6.91928C0.411619 8.07411 0.523683 9.24981 0.896824 10.354L2.79157 9.71375ZM2.55104 7.18994C2.53311 7.32126 2.46375 7.44008 2.35822 7.52026L1.14829 5.92776C0.831462 6.16847 0.623236 6.52518 0.569416 6.91942L2.55104 7.18994ZM2.35822 7.52026C2.25268 7.60044 2.11962 7.63542 1.9883 7.61749L2.25882 5.63587C1.86458 5.58205 1.46511 5.68705 1.14829 5.92776L2.35822 7.52026ZM1.9883 7.61749C1.85698 7.59956 1.73816 7.5302 1.65798 7.42467L3.25048 6.21474C3.00977 5.89792 2.65306 5.68969 2.25882 5.63587L1.9883 7.61749ZM1.65798 7.42467C1.5778 7.31913 1.54282 7.18607 1.56075 7.05475L3.54237 7.32528C3.59619 6.93104 3.4912 6.53157 3.25048 6.21474L1.65798 7.42467ZM1.5608 7.05438C1.42361 8.05648 1.52073 9.07675 1.8445 10.035L3.73926 9.39475C3.5145 8.72956 3.44708 8.0213 3.54232 7.32565L1.5608 7.05438ZM1.8445 10.035C2.16828 10.9932 2.7099 11.8633 3.42679 12.5768L4.83767 11.1592C4.34001 10.6639 3.96403 10.0599 3.73926 9.39475L1.8445 10.035ZM3.42523 12.5752C5.97249 15.1217 10.0875 15.1475 12.6179 12.6179L11.2039 11.2035C9.4676 12.9392 6.61862 12.9397 4.83922 11.1608L3.42523 12.5752ZM12.6181 12.6177C15.1477 10.0873 15.1219 5.97228 12.5754 3.42502L11.161 4.83901C12.9399 6.61841 12.9394 9.46739 11.2037 11.2037L12.6181 12.6177ZM12.5752 3.4248C10.0295 0.879882 5.91684 0.852476 3.38634 3.37902L4.79945 4.79434C6.53561 3.06089 9.38293 3.06148 11.1612 4.83923L12.5752 3.4248ZM4.08888 5.08667L4.58755 5.08867L4.59557 3.08869L4.0969 3.08669L4.08888 5.08667ZM4.58689 5.08867C4.52123 5.08836 4.45628 5.07513 4.39573 5.04972L5.16971 3.20555C4.98808 3.12932 4.79321 3.08961 4.59623 3.08869L4.58689 5.08867ZM4.39573 5.04972C4.33519 5.02431 4.28024 4.98722 4.23403 4.94058L5.65483 3.53298C5.51619 3.39304 5.35135 3.28178 5.16971 3.20555L4.39573 5.04972ZM4.23403 4.94058C4.18782 4.89393 4.15125 4.83864 4.1264 4.77786L5.97771 4.02113C5.90318 3.83879 5.79347 3.67291 5.65483 3.53298L4.23403 4.94058ZM4.1264 4.77786C4.10156 4.71708 4.08893 4.65201 4.08924 4.58635L6.08922 4.59568C6.09013 4.3987 6.05225 4.20347 5.97771 4.02113L4.1264 4.77786ZM4.08924 4.58635C4.08954 4.52069 4.10278 4.45573 4.12819 4.39519L5.97236 5.16917C6.04859 4.98753 6.0883 4.79266 6.08922 4.59568L4.08924 4.58635ZM4.12819 4.39519C4.1536 4.33464 4.19069 4.2797 4.23733 4.23349L5.64493 5.65428C5.78486 5.51565 5.89612 5.35081 5.97236 5.16917L4.12819 4.39519ZM4.23733 4.23349C4.28397 4.18727 4.33926 4.1507 4.40004 4.12586L5.15678 5.97717C5.33912 5.90264 5.50499 5.79292 5.64493 5.65428L4.23733 4.23349ZM4.40004 4.12586C4.46082 4.10101 4.5259 4.08839 4.59156 4.08869L4.58223 6.08867C4.77921 6.08959 4.97444 6.0517 5.15678 5.97717L4.40004 4.12586ZM4.59161 4.08869L2.89427 4.08069L2.88485 6.08067L4.58218 6.08867L4.59161 4.08869ZM2.89489 4.0807C3.02668 4.0814 3.15288 4.13411 3.24601 4.22737L1.83085 5.64064C2.11026 5.92042 2.48883 6.07856 2.88423 6.08067L2.89489 4.0807ZM3.24601 4.22737C3.33915 4.32063 3.39169 4.44689 3.39222 4.5787L1.39223 4.58667C1.39381 4.98207 1.55145 5.36086 1.83085 5.64064L3.24601 4.22737ZM3.39221 4.57757L3.38355 2.88157L1.38357 2.89179L1.39224 4.58779L3.39221 4.57757ZM3.38355 2.88135C3.3839 2.94701 3.37131 3.01209 3.34651 3.07289L1.49469 2.31739C1.42028 2.49977 1.38252 2.69503 1.38357 2.89201L3.38355 2.88135ZM3.34651 3.07289C3.3217 3.13368 3.28517 3.189 3.23899 3.23567L1.81725 1.82902C1.67871 1.96905 1.5691 2.135 1.49469 2.31739L3.34651 3.07289ZM3.23899 3.23567C3.19281 3.28235 3.13789 3.31947 3.07736 3.34492L2.30215 1.50127C2.12056 1.57762 1.9558 1.68899 1.81725 1.82902L3.23899 3.23567ZM3.07736 3.34492C3.01683 3.37037 2.95189 3.38365 2.88623 3.384L2.87556 1.38403C2.67858 1.38508 2.48373 1.42492 2.30215 1.50127L3.07736 3.34492ZM2.88623 3.384C2.82057 3.38435 2.75548 3.37176 2.69469 3.34696L3.45019 1.49515C3.2678 1.42074 3.07254 1.38298 2.87556 1.38403L2.88623 3.384ZM2.69469 3.34696C2.63389 3.32216 2.57858 3.28562 2.5319 3.23944L3.93855 1.81771C3.79852 1.67916 3.63258 1.56956 3.45019 1.49515L2.69469 3.34696ZM2.5319 3.23944C2.48523 3.19326 2.4481 3.13834 2.42265 3.07781L4.2663 2.3026C4.18995 2.12102 4.07858 1.95625 3.93855 1.81771L2.5319 3.23944ZM2.42265 3.07781C2.3972 3.01729 2.38392 2.95234 2.38357 2.88668L4.38355 2.87601C4.38249 2.67903 4.34266 2.48419 4.2663 2.3026L2.42265 3.07781ZM2.38357 2.8867L2.38624 3.3847L4.38621 3.37399L4.38355 2.87599L2.38357 2.8867ZM7.99956 5.83268C7.86695 5.83268 7.73978 5.78 7.64601 5.68623L9.06022 4.27202C8.77891 3.99072 8.39738 3.83268 7.99956 3.83268V5.83268ZM7.64601 5.68623C7.55224 5.59246 7.49956 5.46529 7.49956 5.33268H9.49956C9.49956 4.93486 9.34153 4.55333 9.06022 4.27202L7.64601 5.68623ZM7.49956 5.33268V7.79268H9.49956V5.33268H7.49956ZM7.79261 8.49994L9.31327 10.0199L10.7272 8.60542L9.20651 7.08542L7.79261 8.49994ZM9.32585 10.0323C9.27807 9.98619 9.23996 9.93104 9.21372 9.87005L11.051 9.0798C10.9723 8.89683 10.8579 8.73137 10.7146 8.59307L9.32585 10.0323ZM9.21372 9.87005C9.18749 9.80906 9.17367 9.74345 9.17306 9.67707L11.173 9.65875C11.1712 9.45958 11.1297 9.26277 11.051 9.0798L9.21372 9.87005ZM9.17306 9.67707C9.17245 9.61068 9.18507 9.54483 9.21018 9.48337L11.0616 10.2398C11.1369 10.0555 11.1748 9.85792 11.173 9.65875L9.17306 9.67707ZM9.21018 9.48337C9.23529 9.42191 9.27239 9.36607 9.31932 9.3191L10.7342 10.7326C10.875 10.5917 10.9863 10.4242 11.0616 10.2398L9.21018 9.48337ZM9.31932 9.3191C9.36624 9.27213 9.42205 9.23498 9.48349 9.20981L10.2417 11.0605C10.426 10.985 10.5934 10.8736 10.7342 10.7326L9.31932 9.3191ZM9.48349 9.20981C9.54492 9.18464 9.61076 9.17196 9.67714 9.1725L9.66072 11.1724C9.85988 11.1741 10.0574 11.136 10.2417 11.0605L9.48349 9.20981ZM9.67714 9.1725C9.74354 9.17305 9.80915 9.18681 9.87016 9.21299L9.08165 11.051C9.26469 11.1295 9.46154 11.1708 9.66072 11.1724L9.67714 9.1725ZM9.87016 9.21299C9.93118 9.23916 9.98637 9.27723 10.0325 9.32496L8.5946 10.7151C8.73304 10.8583 8.89861 10.9725 9.08165 11.051L9.87016 9.21299ZM10.0207 9.31291L8.20733 7.49957L6.79312 8.91379L8.60645 10.7271L10.0207 9.31291ZM8.50023 8.20668V5.33335H6.50023V8.20668H8.50023ZM8.50023 5.33335C8.50023 5.46596 8.44755 5.59313 8.35378 5.6869L6.93957 4.27269C6.65826 4.55399 6.50023 4.93552 6.50023 5.33335H8.50023ZM8.35378 5.6869C8.26001 5.78067 8.13283 5.83335 8.00023 5.83335V3.83335C7.6024 3.83335 7.22087 3.99138 6.93957 4.27269L8.35378 5.6869Z" fill="#A5A5A5" mask="url(#path-1-inside-1_7558_40741)"/>
</svg>
