<?xml version="1.0" standalone="no"?>
<!DOCTYPE svg PUBLIC "-//W3C//DTD SVG 20010904//EN"
 "http://www.w3.org/TR/2001/REC-SVG-20010904/DTD/svg10.dtd">
<svg version="1.0" xmlns="http://www.w3.org/2000/svg"
 width="512.000000pt" height="512.000000pt" viewBox="0 0 512.000000 512.000000"
 preserveAspectRatio="xMidYMid meet">

<g transform="translate(0.000000,512.000000) scale(0.100000,-0.100000)"
fill="#000000" stroke="none">
<path d="M1525 4798 c-356 -40 -708 -245 -939 -549 -139 -184 -240 -438 -266
-671 -14 -132 -14 -1904 0 -2036 41 -372 241 -720 551 -956 184 -139 438 -240
671 -266 132 -14 1904 -14 2036 0 633 69 1153 589 1222 1222 14 132 14 1904 0
2036 -69 633 -589 1153 -1222 1222 -120 12 -1937 11 -2053 -2z m2138 -365
c212 -60 360 -147 502 -295 138 -142 214 -279 268 -481 22 -82 22 -86 22
-1097 0 -1011 0 -1015 -22 -1097 -54 -202 -130 -339 -268 -481 -144 -150 -297
-239 -507 -295 l-83 -22 -1015 0 -1015 0 -83 22 c-210 56 -363 145 -507 295
-138 142 -214 279 -268 481 -22 82 -22 86 -22 1097 0 1011 0 1015 22 1097 54
202 130 339 268 481 130 135 253 213 428 271 148 50 146 50 1207 48 994 -2
995 -2 1073 -24z"/>
<path d="M3771 4049 c-127 -38 -204 -177 -167 -301 52 -179 274 -238 405 -107
65 65 87 158 59 250 -14 50 -69 114 -118 139 -47 24 -133 33 -179 19z"/>
<path d="M2436 3800 c-314 -36 -598 -185 -809 -425 -524 -598 -371 -1519 319
-1919 355 -206 810 -223 1169 -44 262 131 446 311 580 570 193 372 181 825
-31 1192 -182 316 -489 535 -854 610 -97 19 -274 27 -374 16z m370 -375 c298
-75 548 -317 640 -620 26 -83 28 -103 28 -255 0 -152 -2 -172 -28 -255 -94
-306 -315 -527 -621 -621 -83 -26 -103 -28 -255 -28 -152 0 -172 2 -255 28
-493 150 -763 668 -605 1161 60 185 221 384 400 494 200 122 453 157 696 96z"/>
</g>
</svg>
