<svg width="16" height="16" viewBox="0 0 16 16" fill="none" xmlns="http://www.w3.org/2000/svg">
<mask id="path-1-inside-1_6324_11578" fill="white">
<path d="M7.99992 9.44679C6.57992 9.44679 5.41992 8.29346 5.41992 6.86679C5.41992 5.44012 6.57992 4.29346 7.99992 4.29346C9.41992 4.29346 10.5799 5.44679 10.5799 6.87346C10.5799 8.30012 9.41992 9.44679 7.99992 9.44679ZM7.99992 5.29346C7.13326 5.29346 6.41992 6.00012 6.41992 6.87346C6.41992 7.74679 7.12659 8.45346 7.99992 8.45346C8.87326 8.45346 9.57992 7.74679 9.57992 6.87346C9.57992 6.00012 8.86659 5.29346 7.99992 5.29346Z"/>
</mask>
<path d="M7.99992 9.44679C6.57992 9.44679 5.41992 8.29346 5.41992 6.86679C5.41992 5.44012 6.57992 4.29346 7.99992 4.29346C9.41992 4.29346 10.5799 5.44679 10.5799 6.87346C10.5799 8.30012 9.41992 9.44679 7.99992 9.44679ZM7.99992 5.29346C7.13326 5.29346 6.41992 6.00012 6.41992 6.87346C6.41992 7.74679 7.12659 8.45346 7.99992 8.45346C8.87326 8.45346 9.57992 7.74679 9.57992 6.87346C9.57992 6.00012 8.86659 5.29346 7.99992 5.29346Z" fill="#017375"/>
<path d="M7.99992 7.94679C7.40582 7.94679 6.91992 7.46251 6.91992 6.86679H3.91992C3.91992 9.12441 5.75402 10.9468 7.99992 10.9468V7.94679ZM6.91992 6.86679C6.91992 6.27612 7.40076 5.79346 7.99992 5.79346V2.79346C5.75909 2.79346 3.91992 4.60412 3.91992 6.86679H6.91992ZM7.99992 5.79346C8.59402 5.79346 9.07992 6.27774 9.07992 6.87346H12.0799C12.0799 4.61584 10.2458 2.79346 7.99992 2.79346V5.79346ZM9.07992 6.87346C9.07992 7.46412 8.59909 7.94679 7.99992 7.94679V10.9468C10.2408 10.9468 12.0799 9.13612 12.0799 6.87346H9.07992ZM7.99992 3.79346C6.30895 3.79346 4.91992 5.16758 4.91992 6.87346H7.91992C7.91992 6.85409 7.92608 6.83606 7.94404 6.81816C7.96261 6.79964 7.98176 6.79346 7.99992 6.79346V3.79346ZM4.91992 6.87346C4.91992 8.57522 6.29816 9.95346 7.99992 9.95346V6.95346C7.95502 6.95346 7.91992 6.91836 7.91992 6.87346H4.91992ZM7.99992 9.95346C9.70168 9.95346 11.0799 8.57522 11.0799 6.87346H8.07992C8.07992 6.91836 8.04483 6.95346 7.99992 6.95346V9.95346ZM11.0799 6.87346C11.0799 5.16758 9.6909 3.79346 7.99992 3.79346V6.79346C8.01809 6.79346 8.03724 6.79964 8.05581 6.81816C8.07376 6.83606 8.07992 6.85409 8.07992 6.87346H11.0799Z" fill="#017375" mask="url(#path-1-inside-1_6324_11578)"/>
<path d="M8.00012 15.1735C7.01345 15.1735 6.02012 14.8002 5.24678 14.0602C3.28012 12.1668 1.10678 9.14683 1.92678 5.5535C2.66678 2.2935 5.51345 0.833496 8.00012 0.833496C8.00012 0.833496 8.00012 0.833496 8.00678 0.833496C10.4935 0.833496 13.3401 2.2935 14.0801 5.56016C14.8934 9.1535 12.7201 12.1668 10.7534 14.0602C9.98012 14.8002 8.98678 15.1735 8.00012 15.1735ZM8.00012 1.8335C6.06012 1.8335 3.56678 2.86683 2.90678 5.7735C2.18678 8.9135 4.16012 11.6202 5.94678 13.3335C7.10012 14.4468 8.90678 14.4468 10.0601 13.3335C11.8401 11.6202 13.8134 8.9135 13.1068 5.7735C12.4401 2.86683 9.94012 1.8335 8.00012 1.8335Z" fill="#017375"/>
</svg>
