<svg width="41" height="40" viewBox="0 0 41 40" fill="none" xmlns="http://www.w3.org/2000/svg">
<path d="M14.8852 33.993L14.885 33.9928C10.16 29.4495 5.15581 22.4255 7.01321 14.233C8.66707 6.95601 15.0242 3.66675 20.6485 3.66675H20.6486H20.6487H20.6488H20.6489H20.649H20.6491H20.6492H20.6493H20.6494H20.6495H20.6496H20.6497H20.6498H20.6499H20.65H20.65H20.6501H20.6502H20.6503H20.6504H20.6505H20.6506H20.6507H20.6508H20.6509H20.6509H20.651H20.6511H20.6512H20.6513H20.6514H20.6515H20.6515H20.6516H20.6517H20.6518H20.6519H20.652H20.6521H20.6521H20.6522H20.6523H20.6524H20.6525H20.6525H20.6526H20.6527H20.6528H20.6529H20.653H20.653H20.6531H20.6532H20.6533H20.6533H20.6534H20.6535H20.6536H20.6537H20.6537H20.6538H20.6539H20.654H20.654H20.6541H20.6542H20.6543H20.6543H20.6544H20.6545H20.6545H20.6546H20.6547H20.6548H20.6548H20.6549H20.655H20.655H20.6551H20.6552H20.6553H20.6553H20.6554H20.6555H20.6555H20.6556H20.6557H20.6557H20.6558H20.6559H20.6559H20.656H20.6561H20.6561H20.6562H20.6563H20.6563H20.6564H20.6564H20.6565H20.6566H20.6566H20.6567H20.6568H20.6568H20.6569H20.6569H20.657H20.6571H20.6571H20.6572H20.6572H20.6573H20.6574H20.6574H20.6575H20.6575H20.6576H20.6577H20.6577H20.6578H20.6578H20.6579H20.6579H20.658H20.6581H20.6581H20.6582H20.6582H20.6583H20.6583H20.6584H20.6584H20.6585H20.6585H20.6586H20.6586H20.6587H20.6588H20.6588H20.6589H20.6589H20.659H20.659H20.6591H20.6591H20.6592H20.6592H20.6593H20.6593H20.6594H20.6594H20.6595H20.6595H20.6595H20.6596H20.6596H20.6597H20.6597H20.6598H20.6598H20.6599H20.6599H20.66H20.66H20.6601H20.6601H20.6601H20.6602H20.6602H20.6603H20.6603H20.6604H20.6604H20.6604H20.6605H20.6605H20.6606H20.6606H20.6607H20.6607H20.6607H20.6608H20.6608H20.6609H20.6609H20.6609H20.661H20.661H20.6611H20.6611H20.6611H20.6612H20.6612H20.6612H20.6613H20.6613H20.6614H20.6614H20.6614H20.6615H20.6615H20.6615H20.6616H20.6616H20.6616H20.6617H20.6617H20.6617H20.6618H20.6618H20.6618H20.6619H20.6619H20.6619H20.662H20.662H20.662H20.6621H20.6621H20.6621H20.6622H20.6622H20.6622H20.6623H20.6623H20.6623H20.6624H20.6624H20.6624H20.6624H20.6625H20.6625H20.6625H20.6626H20.6626H20.6626H20.6626H20.6627H20.6627H20.6627H20.6628H20.6628H20.6628H20.6628H20.6629H20.6629H20.6629H20.6629H20.663H20.663H20.663H20.663H20.6631H20.6631H20.6631H20.6631H20.6632H20.6632H20.6632H20.6632H20.6633H20.6633H20.6633H20.6633H20.6633H20.6634H20.6634H20.6634H20.6634H20.6635H20.6635H20.6635H20.6635H20.6635H20.6636H20.6636H20.6636H20.6636H20.6636H20.6637H20.6637H20.6637H20.6637H20.6637H20.6638H20.6638H20.6638H20.6638H20.6638H20.6639H20.6639H20.6639H20.6639H20.6639H20.6639H20.664H20.664H20.664H20.664H20.664H20.664H20.6641H20.6641H20.6641H20.6641H20.6641H20.6641H20.6642H20.6642H20.6642H20.6642H20.6642H20.6642H20.6642H20.6643H20.6643H20.6643H20.6643H20.6643H20.6643H20.6643H20.6644H20.6644H20.6644H20.6644H20.6644H20.6644H20.6644H20.6644H20.6645H20.6645H20.6645H20.6645H20.6645H20.6645H20.6645H20.6645H20.6646H20.6646H20.6646H20.6646H20.6646H20.6646H20.6646H20.6646H20.6646H20.6646H20.6647H20.6647H20.6647H20.6647H20.6647H20.6647H20.6647H20.6647H20.6647H20.6647H20.6648H20.6648H20.6648H20.6648H20.6648H20.6648H20.6648H20.6648H20.6648H20.6648H20.6648H20.6648H20.6648H20.6649H20.6649H20.6649H20.6649H20.6649H20.6649H20.6649H20.6649H20.665H20.665H20.665H20.665H20.665H20.665H20.665H20.665H20.665H20.665H20.6651H20.6651H20.6651H20.6651H20.6651H20.6651H20.6651H20.6651H20.6651H20.6651H20.6651H20.6651H20.6652H20.6652H20.6652H20.6652H20.6652H20.6652C26.3041 3.66675 32.6461 6.97092 34.3004 14.2493C36.158 22.4416 31.1543 29.449 26.4287 33.9928L26.4259 33.9955C24.8213 35.5543 22.7443 36.3334 20.6652 36.3334C18.5867 36.3334 16.5081 35.5546 14.8852 33.993ZM14.6652 17.1834C14.6652 20.4976 17.351 23.1834 20.6652 23.1834C23.9794 23.1834 26.6652 20.4976 26.6652 17.1834C26.6652 13.8692 23.9794 11.1834 20.6652 11.1834C17.351 11.1834 14.6652 13.8692 14.6652 17.1834Z" fill="#163A96" stroke="#163A96" stroke-width="1.5"/>
</svg>
