<svg width="20" height="20" viewBox="0 0 20 20" fill="none" xmlns="http://www.w3.org/2000/svg">
<mask id="path-1-inside-1_7802_24412" fill="white">
<path d="M12.6991 18.5583H12.5908C8.89078 18.5583 7.10745 17.1 6.79912 13.8333C6.76578 13.4917 7.01578 13.1833 7.36578 13.15C7.69912 13.1166 8.01578 13.375 8.04912 13.7167C8.29078 16.3333 9.52412 17.3083 12.5991 17.3083H12.7075C16.0991 17.3083 17.2991 16.1083 17.2991 12.7167V7.28332C17.2991 3.89165 16.0991 2.69165 12.7075 2.69165H12.5991C9.50745 2.69165 8.27412 3.68332 8.04912 6.34998C8.00745 6.69165 7.71578 6.94998 7.36578 6.91665C7.01578 6.89165 6.76578 6.58332 6.79078 6.24165C7.07412 2.92498 8.86578 1.44165 12.5908 1.44165H12.6991C16.7908 1.44165 18.5408 3.19165 18.5408 7.28332V12.7167C18.5408 16.8083 16.7908 18.5583 12.6991 18.5583Z"/>
</mask>
<path d="M12.6991 18.5583H12.5908C8.89078 18.5583 7.10745 17.1 6.79912 13.8333C6.76578 13.4917 7.01578 13.1833 7.36578 13.15C7.69912 13.1166 8.01578 13.375 8.04912 13.7167C8.29078 16.3333 9.52412 17.3083 12.5991 17.3083H12.7075C16.0991 17.3083 17.2991 16.1083 17.2991 12.7167V7.28332C17.2991 3.89165 16.0991 2.69165 12.7075 2.69165H12.5991C9.50745 2.69165 8.27412 3.68332 8.04912 6.34998C8.00745 6.69165 7.71578 6.94998 7.36578 6.91665C7.01578 6.89165 6.76578 6.58332 6.79078 6.24165C7.07412 2.92498 8.86578 1.44165 12.5908 1.44165H12.6991C16.7908 1.44165 18.5408 3.19165 18.5408 7.28332V12.7167C18.5408 16.8083 16.7908 18.5583 12.6991 18.5583Z" fill="#F55157"/>
<path d="M6.79912 13.8333L8.29249 13.6924L8.29203 13.6877L6.79912 13.8333ZM7.36578 13.15L7.508 14.6432L7.51504 14.6425L7.36578 13.15ZM8.04912 13.7167L9.54278 13.5787L9.54203 13.571L8.04912 13.7167ZM8.04912 6.34998L9.53809 6.53157L9.54146 6.50388L9.54381 6.4761L8.04912 6.34998ZM7.36578 6.91665L7.508 5.42341L7.49034 5.42173L7.47265 5.42046L7.36578 6.91665ZM6.79078 6.24165L5.29623 6.11397L5.29545 6.12308L5.29478 6.13219L6.79078 6.24165ZM12.6991 17.0583H12.5908V20.0583H12.6991V17.0583ZM12.5908 17.0583C10.9043 17.0583 9.93726 16.7205 9.37161 16.2588C8.83924 15.8242 8.4237 15.0826 8.29248 13.6924L5.30575 13.9743C5.48287 15.8507 6.11316 17.4716 7.47454 18.5828C8.80264 19.6669 10.5773 20.0583 12.5908 20.0583V17.0583ZM8.29203 13.6877C8.33916 14.1708 7.98509 14.5978 7.508 14.6432L7.22357 11.6567C6.04648 11.7688 5.1924 12.8125 5.30621 13.979L8.29203 13.6877ZM7.51504 14.6425C7.01459 14.6926 6.60266 14.3385 6.55621 13.8623L9.54203 13.571C9.42891 12.4115 8.38364 11.5407 7.21653 11.6574L7.51504 14.6425ZM6.55547 13.8546C6.69399 15.3543 7.14809 16.7361 8.33204 17.671C9.46038 18.5619 10.9631 18.8083 12.5991 18.8083V15.8083C11.1601 15.8083 10.5087 15.5672 10.1912 15.3165C9.92931 15.1097 9.64592 14.6956 9.54276 13.5787L6.55547 13.8546ZM12.5991 18.8083H12.7075V15.8083H12.5991V18.8083ZM12.7075 18.8083C14.5072 18.8083 16.175 18.5059 17.3358 17.345C18.4967 16.1842 18.7991 14.5164 18.7991 12.7167H15.7991C15.7991 14.3086 15.5016 14.9366 15.2145 15.2237C14.9274 15.5108 14.2994 15.8083 12.7075 15.8083V18.8083ZM18.7991 12.7167V7.28332H15.7991V12.7167H18.7991ZM18.7991 7.28332C18.7991 5.48358 18.4967 3.81579 17.3358 2.65495C16.175 1.49411 14.5072 1.19165 12.7075 1.19165V4.19165C14.2994 4.19165 14.9274 4.48919 15.2145 4.77627C15.5016 5.06335 15.7991 5.69138 15.7991 7.28332H18.7991ZM12.7075 1.19165H12.5991V4.19165H12.7075V1.19165ZM12.5991 1.19165C10.9536 1.19165 9.44026 1.4424 8.3092 2.35182C7.1261 3.30307 6.68259 4.70495 6.55443 6.22387L9.54381 6.4761C9.64065 5.32835 9.9263 4.90106 10.189 4.68982C10.5038 4.43673 11.153 4.19165 12.5991 4.19165V1.19165ZM6.56015 6.1684C6.60834 5.77324 6.98004 5.37313 7.508 5.42341L7.22357 8.40989C8.45152 8.52684 9.40656 7.61006 9.53809 6.53157L6.56015 6.1684ZM7.47265 5.42046C7.99247 5.45759 8.31916 5.90868 8.28678 6.35111L5.29478 6.13219C5.21241 7.25796 6.0391 8.32571 7.25891 8.41284L7.47265 5.42046ZM8.28534 6.36933C8.40639 4.95232 8.8224 4.19555 9.35656 3.75345C9.92263 3.28494 10.8936 2.94165 12.5908 2.94165V-0.0583496C10.5629 -0.0583496 8.77561 0.34003 7.44376 1.44235C6.08 2.57108 5.45851 4.21432 5.29623 6.11397L8.28534 6.36933ZM12.5908 2.94165H12.6991V-0.0583496H12.5908V2.94165ZM12.6991 2.94165C14.5724 2.94165 15.5529 3.34803 16.0937 3.88877C16.6344 4.42951 17.0408 5.41005 17.0408 7.28332H20.0408C20.0408 5.06491 19.5722 3.12462 18.215 1.76745C16.8578 0.410272 14.9175 -0.0583496 12.6991 -0.0583496V2.94165ZM17.0408 7.28332V12.7167H20.0408V7.28332H17.0408ZM17.0408 12.7167C17.0408 14.5899 16.6344 15.5705 16.0937 16.1112C15.5529 16.6519 14.5724 17.0583 12.6991 17.0583V20.0583C14.9175 20.0583 16.8578 19.5897 18.215 18.2325C19.5722 16.8753 20.0408 14.9351 20.0408 12.7167H17.0408Z" fill="#F55157" mask="url(#path-1-inside-1_7802_24412)"/>
<mask id="path-3-inside-2_7802_24412" fill="white">
<path d="M12.499 10.625H3.01562C2.67396 10.625 2.39062 10.3417 2.39062 10C2.39062 9.65833 2.67396 9.375 3.01562 9.375H12.499C12.8406 9.375 13.124 9.65833 13.124 10C13.124 10.3417 12.8406 10.625 12.499 10.625Z"/>
</mask>
<path d="M12.499 10.625H3.01562C2.67396 10.625 2.39062 10.3417 2.39062 10C2.39062 9.65833 2.67396 9.375 3.01562 9.375H12.499C12.8406 9.375 13.124 9.65833 13.124 10C13.124 10.3417 12.8406 10.625 12.499 10.625Z" fill="#F55157"/>
<path d="M12.499 9.125H3.01562V12.125H12.499V9.125ZM3.01562 9.125C3.50239 9.125 3.89062 9.51324 3.89062 10H0.890625C0.890625 11.1701 1.84553 12.125 3.01562 12.125V9.125ZM3.89062 10C3.89062 10.4868 3.50239 10.875 3.01562 10.875V7.875C1.84553 7.875 0.890625 8.82991 0.890625 10H3.89062ZM3.01562 10.875H12.499V7.875H3.01562V10.875ZM12.499 10.875C12.0122 10.875 11.624 10.4868 11.624 10H14.624C14.624 8.82991 13.6691 7.875 12.499 7.875V10.875ZM11.624 10C11.624 9.51324 12.0122 9.125 12.499 9.125V12.125C13.6691 12.125 14.624 11.1701 14.624 10H11.624Z" fill="#F55157" mask="url(#path-3-inside-2_7802_24412)"/>
<path d="M4.87552 13.4167C4.71719 13.4167 4.55885 13.3584 4.43385 13.2334L1.64219 10.4417C1.40052 10.2 1.40052 9.80003 1.64219 9.55837L4.43385 6.7667C4.67552 6.52503 5.07552 6.52503 5.31719 6.7667C5.55885 7.00837 5.55885 7.40837 5.31719 7.65003L2.96719 10L5.31719 12.35C5.55885 12.5917 5.55885 12.9917 5.31719 13.2334C5.20052 13.3584 5.03385 13.4167 4.87552 13.4167Z" fill="#F55157"/>
</svg>
