<svg width="16" height="16" viewBox="0 0 16 16" fill="none" xmlns="http://www.w3.org/2000/svg">
<mask id="path-1-inside-1_6923_28828" fill="white">
<path d="M14 6.5C13.7267 6.5 13.5 6.27333 13.5 6V2.5H10C9.72667 2.5 9.5 2.27333 9.5 2C9.5 1.72667 9.72667 1.5 10 1.5H14C14.2733 1.5 14.5 1.72667 14.5 2V6C14.5 6.27333 14.2733 6.5 14 6.5Z"/>
</mask>
<path d="M14 6.5C13.7267 6.5 13.5 6.27333 13.5 6V2.5H10C9.72667 2.5 9.5 2.27333 9.5 2C9.5 1.72667 9.72667 1.5 10 1.5H14C14.2733 1.5 14.5 1.72667 14.5 2V6C14.5 6.27333 14.2733 6.5 14 6.5Z" fill="white"/>
<path d="M13.5 2.5H15V1H13.5V2.5ZM14 5C14.5551 5 15 5.44491 15 6H12C12 7.10176 12.8982 8 14 8V5ZM15 6V2.5H12V6H15ZM13.5 1H10V4H13.5V1ZM10 1C10.5551 1 11 1.44491 11 2H8C8 3.10176 8.89824 4 10 4V1ZM11 2C11 2.55509 10.5551 3 10 3V0C8.89824 0 8 0.89824 8 2H11ZM10 3H14V0H10V3ZM14 3C13.4449 3 13 2.55509 13 2H16C16 0.89824 15.1018 0 14 0V3ZM13 2V6H16V2H13ZM13 6C13 5.44491 13.4449 5 14 5V8C15.1018 8 16 7.10176 16 6H13Z" fill="white" mask="url(#path-1-inside-1_6923_28828)"/>
<mask id="path-3-inside-2_6923_28828" fill="white">
<path d="M6 14.5H2C1.72667 14.5 1.5 14.2733 1.5 14V10C1.5 9.72667 1.72667 9.5 2 9.5C2.27333 9.5 2.5 9.72667 2.5 10V13.5H6C6.27333 13.5 6.5 13.7267 6.5 14C6.5 14.2733 6.27333 14.5 6 14.5Z"/>
</mask>
<path d="M6 14.5H2C1.72667 14.5 1.5 14.2733 1.5 14V10C1.5 9.72667 1.72667 9.5 2 9.5C2.27333 9.5 2.5 9.72667 2.5 10V13.5H6C6.27333 13.5 6.5 13.7267 6.5 14C6.5 14.2733 6.27333 14.5 6 14.5Z" fill="white"/>
<path d="M2.5 13.5H1V15H2.5V13.5ZM6 13H2V16H6V13ZM2 13C2.55509 13 3 13.4449 3 14H0C0 15.1018 0.89824 16 2 16V13ZM3 14V10H0V14H3ZM3 10C3 10.5551 2.55509 11 2 11V8C0.89824 8 0 8.89824 0 10H3ZM2 11C1.44491 11 1 10.5551 1 10H4C4 8.89824 3.10176 8 2 8V11ZM1 10V13.5H4V10H1ZM2.5 15H6V12H2.5V15ZM6 15C5.44491 15 5 14.5551 5 14H8C8 12.8982 7.10176 12 6 12V15ZM5 14C5 13.4449 5.44491 13 6 13V16C7.10176 16 8 15.1018 8 14H5Z" fill="white" mask="url(#path-3-inside-2_6923_28828)"/>
<path d="M9.00029 7.50004C8.87362 7.50004 8.74695 7.45338 8.64695 7.35338C8.45362 7.16004 8.45362 6.84004 8.64695 6.64671L13.647 1.64671C13.8403 1.45338 14.1603 1.45338 14.3536 1.64671C14.547 1.84004 14.547 2.16004 14.3536 2.35338L9.35362 7.35338C9.25362 7.45338 9.12695 7.50004 9.00029 7.50004Z" fill="white"/>
<path d="M2.00029 14.5C1.87362 14.5 1.74695 14.4534 1.64695 14.3534C1.45362 14.16 1.45362 13.84 1.64695 13.6467L6.64695 8.64671C6.84029 8.45338 7.16029 8.45338 7.35362 8.64671C7.54695 8.84004 7.54695 9.16004 7.35362 9.35338L2.35362 14.3534C2.25362 14.4534 2.12695 14.5 2.00029 14.5Z" fill="white"/>
</svg>
