<svg width="20" height="20" viewBox="0 0 20 20" fill="none" xmlns="http://www.w3.org/2000/svg">
<path d="M15.8552 1.8964C15.8605 1.89356 15.8657 1.89072 15.871 1.88788L15.8552 1.8964ZM15.8552 1.8964C15.8372 1.9154 15.8153 1.93868 15.7898 1.96585C15.7127 2.04795 15.603 2.16558 15.4726 2.308C15.2118 2.59265 14.8671 2.97712 14.5329 3.3751C14.1997 3.77182 13.8724 4.18705 13.6493 4.5321C13.5385 4.70343 13.4475 4.86634 13.3961 5.006C13.3704 5.07557 13.3509 5.14906 13.348 5.22061C13.3452 5.29249 13.3589 5.38043 13.4207 5.45416L13.4211 5.45469C13.4909 5.53734 13.5867 5.55971 13.6674 5.5558C13.7424 5.55216 13.8169 5.52634 13.8828 5.49614C14.0163 5.43495 14.1733 5.32782 14.3388 5.20051C14.6558 4.95658 15.0443 4.60617 15.429 4.25919C15.4492 4.24095 15.4695 4.22271 15.4896 4.2045C15.8985 3.8359 16.2985 3.47768 16.618 3.24047C16.7794 3.12061 16.9079 3.04112 16.9993 3.0042C17.0025 3.00292 17.0055 3.00172 17.0085 3.0006C17.0041 3.01507 16.9978 3.03278 16.9887 3.05422C16.9457 3.15634 16.8614 3.2908 16.74 3.45295C16.4988 3.77517 16.1427 4.16576 15.7786 4.56032C15.749 4.59248 15.7192 4.62466 15.6895 4.65683C15.3589 5.01485 15.0298 5.37116 14.7992 5.66344C14.6747 5.82131 14.5694 5.97209 14.5095 6.1015C14.4799 6.16545 14.4544 6.2387 14.4514 6.31343C14.4482 6.39468 14.4725 6.48768 14.5529 6.55568C14.6265 6.61793 14.7145 6.63196 14.7865 6.62921C14.8581 6.62649 14.9317 6.60696 15.0012 6.58133C15.1407 6.52987 15.3034 6.43878 15.4744 6.32788C15.8189 6.10453 16.2336 5.77678 16.6297 5.44302C17.0271 5.10818 17.4111 4.7629 17.6953 4.50165C17.8375 4.37095 17.955 4.26108 18.037 4.18384C18.0616 4.16069 18.083 4.14046 18.1009 4.12348C16.9241 6.31193 15.7933 7.5386 14.9644 8.2164C14.5478 8.55707 14.2068 8.7597 13.9733 8.87632C13.8566 8.93465 13.7666 8.97154 13.7074 8.99345C13.6778 9.0044 13.6558 9.01162 13.642 9.01589L13.6276 9.02021L13.6258 9.02073L13.6255 9.0208L13.6253 9.02086L13.6251 9.02091C13.6249 9.02095 13.6249 9.02096 13.625 9.02093L13.6175 9.02285L13.6108 9.02521C13.6109 9.02521 13.6106 9.0253 13.6105 9.02532C13.6104 9.02536 13.6102 9.02545 13.61 9.0255C13.61 9.02552 13.61 9.02549 13.6099 9.02551L13.6017 9.02798C13.5934 9.03032 13.58 9.03381 13.5624 9.03732C13.527 9.04442 13.4764 9.05126 13.418 9.04992C13.3025 9.04728 13.1614 9.01345 13.0363 8.88862L13.036 8.88895C12.999 8.86064 12.9291 8.83552 12.8985 8.83379C12.8797 8.83524 12.8501 8.84148 12.839 8.84515C12.8198 8.85215 12.8059 8.86082 12.802 8.86329C12.7914 8.86993 12.783 8.87664 12.7795 8.87945C12.7707 8.88646 12.7612 8.89485 12.7525 8.90269C12.7342 8.91918 12.709 8.94283 12.6781 8.97229C12.616 9.03162 12.5264 9.11901 12.4133 9.23029C12.1869 9.45307 11.8641 9.77389 11.4746 10.1627C10.6955 10.9405 9.64819 11.9917 8.56789 13.0778C7.37559 14.2765 6.14327 15.5176 5.18646 16.4812C4.40903 17.2642 3.81348 17.8639 3.56906 18.109L3.56888 18.1091C3.54787 18.1303 3.51457 18.1473 3.45007 18.1456C3.38179 18.1438 3.29037 18.1205 3.17897 18.0697C2.95686 17.9684 2.69843 17.7776 2.46509 17.5479C2.23171 17.3182 2.03747 17.0634 1.93379 16.8439C1.88178 16.7339 1.85782 16.6437 1.85553 16.5765C1.85338 16.5135 1.86984 16.4806 1.8911 16.4594L1.89135 16.4592C2.15927 16.1905 2.85328 15.4987 3.74738 14.6075C4.67196 13.6858 5.81051 12.5509 6.91309 11.4501C7.99726 10.3676 9.04652 9.31827 9.82277 8.53762C10.2108 8.14736 10.531 7.82395 10.7532 7.59706C10.8642 7.48373 10.9514 7.39388 11.0105 7.33163C11.0399 7.30073 11.0635 7.27542 11.08 7.257C11.0878 7.24826 11.0962 7.23855 11.1033 7.22957C11.1062 7.226 11.1131 7.21718 11.1199 7.20607C11.1224 7.20196 11.1313 7.18734 11.1382 7.16699C11.1418 7.15526 11.1474 7.12407 11.1482 7.10449C11.1454 7.07495 11.1202 7.01182 11.0928 6.97524L11.0938 6.97421C10.9701 6.8492 10.9364 6.70763 10.9339 6.5914C10.9326 6.53266 10.9395 6.48183 10.9466 6.44618C10.9501 6.4285 10.9536 6.41502 10.956 6.4067L10.9585 6.39836C10.9586 6.39801 10.9586 6.39776 10.9587 6.39761C10.9587 6.39745 10.9588 6.39739 10.9588 6.39742L10.9611 6.39081L10.963 6.38336C10.963 6.38348 10.963 6.38345 10.963 6.3833L10.9631 6.38309L10.9631 6.38288L10.9632 6.38262L10.9637 6.38077L10.968 6.36627C10.9723 6.35247 10.9795 6.33048 10.9904 6.3008C11.0123 6.24146 11.0491 6.1513 11.1073 6.03432C11.2236 5.80046 11.4258 5.45881 11.7658 5.04146C12.4426 4.2105 13.6681 3.07652 15.8552 1.8964Z" fill="#F7951D" stroke="#F7951D" stroke-width="0.375"/>
<path fill-rule="evenodd" clip-rule="evenodd" d="M10.008 12.3632C12.1754 14.5353 15.8294 18.196 15.8294 18.196C15.8294 18.196 17.4243 17.674 17.649 16.3269L11.8507 10.5172C11.2359 11.132 10.6217 11.7473 10.008 12.3632ZM7.15595 10.4805C7.9334 9.70369 8.70993 8.92596 9.48555 8.14731L3.18366 1.83347C3.18366 1.83347 3.06977 1.71403 2.81895 1.96596C2.32092 2.46232 1.35736 5.62494 5.44243 9.71611C6.08989 10.365 6.6532 10.455 7.15595 10.4805Z" fill="#F7951D"/>
</svg>
