<svg width="20" height="20" viewBox="0 0 20 20" fill="none" xmlns="http://www.w3.org/2000/svg">
<mask id="path-1-inside-1_6124_40076" fill="white">
<path d="M10.0003 18.9584C5.05866 18.9584 1.04199 14.9417 1.04199 10.0001C1.04199 5.05841 5.05866 1.04175 10.0003 1.04175C14.942 1.04175 18.9587 5.05841 18.9587 10.0001C18.9587 14.9417 14.942 18.9584 10.0003 18.9584ZM10.0003 2.29175C5.75033 2.29175 2.29199 5.75008 2.29199 10.0001C2.29199 14.2501 5.75033 17.7084 10.0003 17.7084C14.2503 17.7084 17.7087 14.2501 17.7087 10.0001C17.7087 5.75008 14.2503 2.29175 10.0003 2.29175Z"/>
</mask>
<path d="M10.0003 18.9584C5.05866 18.9584 1.04199 14.9417 1.04199 10.0001C1.04199 5.05841 5.05866 1.04175 10.0003 1.04175C14.942 1.04175 18.9587 5.05841 18.9587 10.0001C18.9587 14.9417 14.942 18.9584 10.0003 18.9584ZM10.0003 2.29175C5.75033 2.29175 2.29199 5.75008 2.29199 10.0001C2.29199 14.2501 5.75033 17.7084 10.0003 17.7084C14.2503 17.7084 17.7087 14.2501 17.7087 10.0001C17.7087 5.75008 14.2503 2.29175 10.0003 2.29175Z" fill="#A5A5A5"/>
<path d="M10.0003 17.4584C5.88709 17.4584 2.54199 14.1133 2.54199 10.0001H-0.458008C-0.458008 15.7702 4.23023 20.4584 10.0003 20.4584V17.4584ZM2.54199 10.0001C2.54199 5.88684 5.88709 2.54175 10.0003 2.54175V-0.458252C4.23023 -0.458252 -0.458008 4.22999 -0.458008 10.0001H2.54199ZM10.0003 2.54175C14.1136 2.54175 17.4587 5.88684 17.4587 10.0001H20.4587C20.4587 4.22999 15.7704 -0.458252 10.0003 -0.458252V2.54175ZM17.4587 10.0001C17.4587 14.1133 14.1136 17.4584 10.0003 17.4584V20.4584C15.7704 20.4584 20.4587 15.7702 20.4587 10.0001H17.4587ZM10.0003 0.791748C4.9219 0.791748 0.791992 4.92165 0.791992 10.0001H3.79199C3.79199 6.57851 6.57875 3.79175 10.0003 3.79175V0.791748ZM0.791992 10.0001C0.791992 15.0785 4.9219 19.2084 10.0003 19.2084V16.2084C6.57875 16.2084 3.79199 13.4217 3.79199 10.0001H0.791992ZM10.0003 19.2084C15.0788 19.2084 19.2087 15.0785 19.2087 10.0001H16.2087C16.2087 13.4217 13.4219 16.2084 10.0003 16.2084V19.2084ZM19.2087 10.0001C19.2087 4.92165 15.0788 0.791748 10.0003 0.791748V3.79175C13.4219 3.79175 16.2087 6.57851 16.2087 10.0001H19.2087Z" fill="#A5A5A5" mask="url(#path-1-inside-1_6124_40076)"/>
<path d="M15.6609 4.07795L15.6607 4.07811L15.6609 4.07795Z" fill="#A5A5A5" stroke="#A5A5A5" stroke-width="1.5"/>
</svg>
