<svg width="17" height="17" viewBox="0 0 17 17" fill="none" xmlns="http://www.w3.org/2000/svg">
<mask id="path-1-inside-1_7016_21033" fill="white">
<path d="M12.1216 13.2067H6.78829C4.67496 13.2067 2.95496 11.4867 2.95496 9.37337C2.95496 7.26004 4.67496 5.54004 6.78829 5.54004H14.1216C14.395 5.54004 14.6216 5.76671 14.6216 6.04004C14.6216 6.31337 14.395 6.54004 14.1216 6.54004H6.78829C5.22829 6.54004 3.95496 7.81337 3.95496 9.37337C3.95496 10.9334 5.22829 12.2067 6.78829 12.2067H12.1216C12.395 12.2067 12.6216 12.4334 12.6216 12.7067C12.6216 12.98 12.4016 13.2067 12.1216 13.2067Z"/>
</mask>
<path d="M12.1216 13.2067H6.78829C4.67496 13.2067 2.95496 11.4867 2.95496 9.37337C2.95496 7.26004 4.67496 5.54004 6.78829 5.54004H14.1216C14.395 5.54004 14.6216 5.76671 14.6216 6.04004C14.6216 6.31337 14.395 6.54004 14.1216 6.54004H6.78829C5.22829 6.54004 3.95496 7.81337 3.95496 9.37337C3.95496 10.9334 5.22829 12.2067 6.78829 12.2067H12.1216C12.395 12.2067 12.6216 12.4334 12.6216 12.7067C12.6216 12.98 12.4016 13.2067 12.1216 13.2067Z" fill="#1D1F1F"/>
<path d="M12.1216 11.7067H6.78829V14.7067H12.1216V11.7067ZM6.78829 11.7067C5.50338 11.7067 4.45496 10.6583 4.45496 9.37337H1.45496C1.45496 12.3151 3.84653 14.7067 6.78829 14.7067V11.7067ZM4.45496 9.37337C4.45496 8.08847 5.50338 7.04004 6.78829 7.04004V4.04004C3.84653 4.04004 1.45496 6.43161 1.45496 9.37337H4.45496ZM6.78829 7.04004H14.1216V4.04004H6.78829V7.04004ZM14.1216 7.04004C13.5665 7.04004 13.1216 6.59513 13.1216 6.04004H16.1216C16.1216 4.93828 15.2234 4.04004 14.1216 4.04004V7.04004ZM13.1216 6.04004C13.1216 5.48495 13.5665 5.04004 14.1216 5.04004V8.04004C15.2234 8.04004 16.1216 7.1418 16.1216 6.04004H13.1216ZM14.1216 5.04004H6.78829V8.04004H14.1216V5.04004ZM6.78829 5.04004C4.39986 5.04004 2.45496 6.98495 2.45496 9.37337H5.45496C5.45496 8.6418 6.05672 8.04004 6.78829 8.04004V5.04004ZM2.45496 9.37337C2.45496 11.7618 4.39986 13.7067 6.78829 13.7067V10.7067C6.05672 10.7067 5.45496 10.1049 5.45496 9.37337H2.45496ZM6.78829 13.7067H12.1216V10.7067H6.78829V13.7067ZM12.1216 13.7067C11.5665 13.7067 11.1216 13.2618 11.1216 12.7067H14.1216C14.1216 11.6049 13.2234 10.7067 12.1216 10.7067V13.7067ZM11.1216 12.7067C11.1216 12.1647 11.5602 11.7067 12.1216 11.7067V14.7067C13.2431 14.7067 14.1216 13.7954 14.1216 12.7067H11.1216Z" fill="#1D1F1F" mask="url(#path-1-inside-1_7016_21033)"/>
<path d="M12.5883 8.20659C12.4616 8.20659 12.335 8.15992 12.235 8.05992C12.0416 7.86659 12.0416 7.54659 12.235 7.35326L13.5883 5.99992L12.235 4.64659C12.0416 4.45326 12.0416 4.13326 12.235 3.93992C12.4283 3.74659 12.7483 3.74659 12.9416 3.93992L14.6483 5.64659C14.8416 5.83992 14.8416 6.15992 14.6483 6.35326L12.9416 8.05992C12.8416 8.15992 12.715 8.20659 12.5883 8.20659Z" fill="#1D1F1F"/>
</svg>
