<svg width="24" height="24" viewBox="0 0 24 24" fill="none" xmlns="http://www.w3.org/2000/svg">
<mask id="path-1-inside-1_7368_40204" fill="white">
<path d="M11.5 21.75C5.85 21.75 1.25 17.15 1.25 11.5C1.25 5.85 5.85 1.25 11.5 1.25C17.15 1.25 21.75 5.85 21.75 11.5C21.75 17.15 17.15 21.75 11.5 21.75ZM11.5 2.75C6.67 2.75 2.75 6.68 2.75 11.5C2.75 16.32 6.67 20.25 11.5 20.25C16.33 20.25 20.25 16.32 20.25 11.5C20.25 6.68 16.33 2.75 11.5 2.75Z"/>
</mask>
<path d="M11.5 21.75C5.85 21.75 1.25 17.15 1.25 11.5C1.25 5.85 5.85 1.25 11.5 1.25C17.15 1.25 21.75 5.85 21.75 11.5C21.75 17.15 17.15 21.75 11.5 21.75ZM11.5 2.75C6.67 2.75 2.75 6.68 2.75 11.5C2.75 16.32 6.67 20.25 11.5 20.25C16.33 20.25 20.25 16.32 20.25 11.5C20.25 6.68 16.33 2.75 11.5 2.75Z" fill="#1D1F1F"/>
<path d="M11.5 20.25C6.67843 20.25 2.75 16.3216 2.75 11.5H-0.25C-0.25 17.9784 5.02157 23.25 11.5 23.25V20.25ZM2.75 11.5C2.75 6.67843 6.67843 2.75 11.5 2.75V-0.25C5.02157 -0.25 -0.25 5.02157 -0.25 11.5H2.75ZM11.5 2.75C16.3216 2.75 20.25 6.67843 20.25 11.5H23.25C23.25 5.02157 17.9784 -0.25 11.5 -0.25V2.75ZM20.25 11.5C20.25 16.3216 16.3216 20.25 11.5 20.25V23.25C17.9784 23.25 23.25 17.9784 23.25 11.5H20.25ZM11.5 1.25C5.84046 1.25 1.25 5.85269 1.25 11.5H4.25C4.25 7.50731 7.49954 4.25 11.5 4.25V1.25ZM1.25 11.5C1.25 17.1473 5.84046 21.75 11.5 21.75V18.75C7.49954 18.75 4.25 15.4927 4.25 11.5H1.25ZM11.5 21.75C17.1595 21.75 21.75 17.1473 21.75 11.5H18.75C18.75 15.4927 15.5005 18.75 11.5 18.75V21.75ZM21.75 11.5C21.75 5.85269 17.1595 1.25 11.5 1.25V4.25C15.5005 4.25 18.75 7.50731 18.75 11.5H21.75Z" fill="white" mask="url(#path-1-inside-1_7368_40204)"/>
<mask id="path-3-inside-2_7368_40204" fill="white">
<path d="M22.0014 22.7499C21.8114 22.7499 21.6214 22.6799 21.4714 22.5299L19.4714 20.5299C19.1814 20.2399 19.1814 19.7599 19.4714 19.4699C19.7614 19.1799 20.2414 19.1799 20.5314 19.4699L22.5314 21.4699C22.8214 21.7599 22.8214 22.2399 22.5314 22.5299C22.3814 22.6799 22.1914 22.7499 22.0014 22.7499Z"/>
</mask>
<path d="M22.0014 22.7499C21.8114 22.7499 21.6214 22.6799 21.4714 22.5299L19.4714 20.5299C19.1814 20.2399 19.1814 19.7599 19.4714 19.4699C19.7614 19.1799 20.2414 19.1799 20.5314 19.4699L22.5314 21.4699C22.8214 21.7599 22.8214 22.2399 22.5314 22.5299C22.3814 22.6799 22.1914 22.7499 22.0014 22.7499Z" fill="white"/>
<path d="M21.4714 22.5299L20.4107 23.5906L21.4714 22.5299ZM19.4714 20.5299L20.5321 19.4693L19.4714 20.5299ZM20.5314 19.4699L19.4707 20.5306L20.5314 19.4699ZM22.5314 21.4699L23.5921 20.4093L22.5314 21.4699ZM22.0014 21.2499C22.1878 21.2499 22.3859 21.3232 22.5321 21.4693L20.4107 23.5906C20.8569 24.0367 21.4351 24.2499 22.0014 24.2499V21.2499ZM22.5321 21.4693L20.5321 19.4693L18.4107 21.5906L20.4107 23.5906L22.5321 21.4693ZM20.5321 19.4693C20.8279 19.7651 20.8279 20.2348 20.5321 20.5306L18.4107 18.4093C17.535 19.2851 17.535 20.7148 18.4107 21.5906L20.5321 19.4693ZM20.5321 20.5306C20.2363 20.8264 19.7665 20.8264 19.4707 20.5306L21.5921 18.4093C20.7163 17.5335 19.2865 17.5335 18.4107 18.4093L20.5321 20.5306ZM19.4707 20.5306L21.4707 22.5306L23.5921 20.4093L21.5921 18.4093L19.4707 20.5306ZM21.4707 22.5306C21.175 22.2348 21.175 21.7651 21.4707 21.4693L23.5921 23.5906C24.4679 22.7148 24.4679 21.2851 23.5921 20.4093L21.4707 22.5306ZM21.4707 21.4693C21.6169 21.3232 21.8151 21.2499 22.0014 21.2499V24.2499C22.5678 24.2499 23.1459 24.0367 23.5921 23.5906L21.4707 21.4693Z" fill="white" mask="url(#path-3-inside-2_7368_40204)"/>
</svg>
