<svg width="24" height="25" viewBox="0 0 24 25" fill="none" xmlns="http://www.w3.org/2000/svg">
<path d="M16.3756 3.8046L16.3763 3.80437C18.2858 3.16787 19.4904 3.4577 20.0847 4.05281C20.6798 4.64874 20.969 5.85682 20.3374 7.76643C20.3373 7.76671 20.3372 7.76699 20.3371 7.76727L17.3277 16.7854L17.3275 16.786C16.8386 18.2553 16.289 19.2985 15.7428 19.9595C15.1947 20.623 14.7191 20.8254 14.3591 20.8254C13.9992 20.8254 13.5236 20.623 12.9755 19.9595C12.4293 19.2985 11.8797 18.2553 11.3908 16.786L10.5009 14.1065L10.3824 13.7496L10.0255 13.6311L7.34596 12.7412C7.34592 12.7412 7.34589 12.7412 7.34585 12.7412C5.87644 12.2522 4.83319 11.7032 4.17211 11.1577C3.50857 10.6101 3.30664 10.1356 3.30664 9.77661C3.30664 9.41742 3.5088 8.94212 4.17268 8.39321C4.83391 7.8465 5.8772 7.29574 7.34638 6.80434C7.34659 6.80427 7.3468 6.8042 7.34701 6.80413L16.3756 3.8046ZM13.1895 12.8232L13.1909 12.8218L16.9895 9.00319C16.9898 9.00289 16.9901 9.00258 16.9904 9.00228C17.5724 8.41931 17.5721 7.46512 16.9895 6.88253C16.4066 6.29963 15.4517 6.29963 14.8688 6.88252L14.8674 6.88392L11.0688 10.7025C11.0685 10.7029 11.0681 10.7032 11.0678 10.7036C10.4859 11.2866 10.4863 12.2406 11.0688 12.8232C11.3669 13.1212 11.751 13.2629 12.1291 13.2629C12.5073 13.2629 12.8914 13.1212 13.1895 12.8232Z" fill="#F7951D" stroke="#F7951D" stroke-width="1.5"/>
</svg>
