<svg width="20" height="20" viewBox="0 0 20 20" fill="none" xmlns="http://www.w3.org/2000/svg">
<mask id="path-1-inside-1_7790_22791" fill="white">
<path d="M10 13.125C8.275 13.125 6.875 11.725 6.875 10C6.875 8.275 8.275 6.875 10 6.875C11.725 6.875 13.125 8.275 13.125 10C13.125 11.725 11.725 13.125 10 13.125ZM10 8.125C8.96667 8.125 8.125 8.96667 8.125 10C8.125 11.0333 8.96667 11.875 10 11.875C11.0333 11.875 11.875 11.0333 11.875 10C11.875 8.96667 11.0333 8.125 10 8.125Z"/>
</mask>
<path d="M10 13.125C8.275 13.125 6.875 11.725 6.875 10C6.875 8.275 8.275 6.875 10 6.875C11.725 6.875 13.125 8.275 13.125 10C13.125 11.725 11.725 13.125 10 13.125ZM10 8.125C8.96667 8.125 8.125 8.96667 8.125 10C8.125 11.0333 8.96667 11.875 10 11.875C11.0333 11.875 11.875 11.0333 11.875 10C11.875 8.96667 11.0333 8.125 10 8.125Z" fill="#163A96"/>
<path d="M10 11.625C9.10343 11.625 8.375 10.8966 8.375 10H5.375C5.375 12.5534 7.44657 14.625 10 14.625V11.625ZM8.375 10C8.375 9.10343 9.10343 8.375 10 8.375V5.375C7.44657 5.375 5.375 7.44657 5.375 10H8.375ZM10 8.375C10.8966 8.375 11.625 9.10343 11.625 10H14.625C14.625 7.44657 12.5534 5.375 10 5.375V8.375ZM11.625 10C11.625 10.8966 10.8966 11.625 10 11.625V14.625C12.5534 14.625 14.625 12.5534 14.625 10H11.625ZM10 6.625C8.13824 6.625 6.625 8.13824 6.625 10H9.625C9.625 9.79509 9.79509 9.625 10 9.625V6.625ZM6.625 10C6.625 11.8618 8.13824 13.375 10 13.375V10.375C9.79509 10.375 9.625 10.2049 9.625 10H6.625ZM10 13.375C11.8618 13.375 13.375 11.8618 13.375 10H10.375C10.375 10.2049 10.2049 10.375 10 10.375V13.375ZM13.375 10C13.375 8.13824 11.8618 6.625 10 6.625V9.625C10.2049 9.625 10.375 9.79509 10.375 10H13.375Z" fill="#163A96" mask="url(#path-1-inside-1_7790_22791)"/>
<mask id="path-3-inside-2_7790_22791" fill="white">
<path d="M12.6724 18.4917C12.4974 18.4917 12.3224 18.4667 12.1474 18.4251C11.6307 18.2834 11.1974 17.9584 10.9224 17.5001L10.8224 17.3334C10.3307 16.4834 9.65573 16.4834 9.16406 17.3334L9.0724 17.4917C8.7974 17.9584 8.36406 18.2917 7.8474 18.4251C7.3224 18.5667 6.78073 18.4917 6.3224 18.2167L4.88906 17.3917C4.38073 17.1001 4.01406 16.6251 3.85573 16.0501C3.70573 15.4751 3.78073 14.8834 4.0724 14.3751C4.31406 13.9501 4.38073 13.5667 4.23906 13.3251C4.0974 13.0834 3.73906 12.9417 3.2474 12.9417C2.03073 12.9417 1.03906 11.9501 1.03906 10.7334V9.26674C1.03906 8.05008 2.03073 7.05841 3.2474 7.05841C3.73906 7.05841 4.0974 6.91674 4.23906 6.67508C4.38073 6.43341 4.3224 6.05008 4.0724 5.62508C3.78073 5.11674 3.70573 4.51674 3.85573 3.95008C4.00573 3.37508 4.3724 2.90008 4.88906 2.60841L6.33073 1.78341C7.2724 1.22508 8.51406 1.55008 9.08073 2.50841L9.18073 2.67508C9.6724 3.52508 10.3474 3.52508 10.8391 2.67508L10.9307 2.51674C11.4974 1.55008 12.7391 1.22508 13.6891 1.79174L15.1224 2.61674C15.6307 2.90841 15.9974 3.38341 16.1557 3.95841C16.3057 4.53341 16.2307 5.12508 15.9391 5.63341C15.6974 6.05841 15.6307 6.44174 15.7724 6.68341C15.9141 6.92508 16.2724 7.06674 16.7641 7.06674C17.9807 7.06674 18.9724 8.05841 18.9724 9.27508V10.7417C18.9724 11.9584 17.9807 12.9501 16.7641 12.9501C16.2724 12.9501 15.9141 13.0917 15.7724 13.3334C15.6307 13.5751 15.6891 13.9584 15.9391 14.3834C16.2307 14.8917 16.3141 15.4917 16.1557 16.0584C16.0057 16.6334 15.6391 17.1084 15.1224 17.4001L13.6807 18.2251C13.3641 18.4001 13.0224 18.4917 12.6724 18.4917ZM9.9974 15.4084C10.7391 15.4084 11.4307 15.8751 11.9057 16.7001L11.9974 16.8584C12.0974 17.0334 12.2641 17.1584 12.4641 17.2084C12.6641 17.2584 12.8641 17.2334 13.0307 17.1334L14.4724 16.3001C14.6891 16.1751 14.8557 15.9667 14.9224 15.7167C14.9891 15.4667 14.9557 15.2084 14.8307 14.9917C14.3557 14.1751 14.2974 13.3334 14.6641 12.6917C15.0307 12.0501 15.7891 11.6834 16.7391 11.6834C17.2724 11.6834 17.6974 11.2584 17.6974 10.7251V9.25841C17.6974 8.73341 17.2724 8.30008 16.7391 8.30008C15.7891 8.30008 15.0307 7.93341 14.6641 7.29174C14.2974 6.65008 14.3557 5.80841 14.8307 4.99174C14.9557 4.77508 14.9891 4.51674 14.9224 4.26674C14.8557 4.01674 14.6974 3.81674 14.4807 3.68341L13.0391 2.85841C12.6807 2.64174 12.2057 2.76674 11.9891 3.13341L11.8974 3.29174C11.4224 4.11674 10.7307 4.58341 9.98906 4.58341C9.2474 4.58341 8.55573 4.11674 8.08073 3.29174L7.98906 3.12508C7.78073 2.77508 7.31406 2.65008 6.95573 2.85841L5.51406 3.69174C5.2974 3.81674 5.13073 4.02508 5.06406 4.27508C4.9974 4.52508 5.03073 4.78341 5.15573 5.00008C5.63073 5.81674 5.68906 6.65841 5.3224 7.30008C4.95573 7.94174 4.1974 8.30841 3.2474 8.30841C2.71406 8.30841 2.28906 8.73341 2.28906 9.26674V10.7334C2.28906 11.2584 2.71406 11.6917 3.2474 11.6917C4.1974 11.6917 4.95573 12.0584 5.3224 12.7001C5.68906 13.3417 5.63073 14.1834 5.15573 15.0001C5.03073 15.2167 4.9974 15.4751 5.06406 15.7251C5.13073 15.9751 5.28906 16.1751 5.50573 16.3084L6.9474 17.1334C7.1224 17.2417 7.33073 17.2667 7.5224 17.2167C7.7224 17.1667 7.88906 17.0334 7.9974 16.8584L8.08906 16.7001C8.56406 15.8834 9.25573 15.4084 9.9974 15.4084Z"/>
</mask>
<path d="M12.6724 18.4917C12.4974 18.4917 12.3224 18.4667 12.1474 18.4251C11.6307 18.2834 11.1974 17.9584 10.9224 17.5001L10.8224 17.3334C10.3307 16.4834 9.65573 16.4834 9.16406 17.3334L9.0724 17.4917C8.7974 17.9584 8.36406 18.2917 7.8474 18.4251C7.3224 18.5667 6.78073 18.4917 6.3224 18.2167L4.88906 17.3917C4.38073 17.1001 4.01406 16.6251 3.85573 16.0501C3.70573 15.4751 3.78073 14.8834 4.0724 14.3751C4.31406 13.9501 4.38073 13.5667 4.23906 13.3251C4.0974 13.0834 3.73906 12.9417 3.2474 12.9417C2.03073 12.9417 1.03906 11.9501 1.03906 10.7334V9.26674C1.03906 8.05008 2.03073 7.05841 3.2474 7.05841C3.73906 7.05841 4.0974 6.91674 4.23906 6.67508C4.38073 6.43341 4.3224 6.05008 4.0724 5.62508C3.78073 5.11674 3.70573 4.51674 3.85573 3.95008C4.00573 3.37508 4.3724 2.90008 4.88906 2.60841L6.33073 1.78341C7.2724 1.22508 8.51406 1.55008 9.08073 2.50841L9.18073 2.67508C9.6724 3.52508 10.3474 3.52508 10.8391 2.67508L10.9307 2.51674C11.4974 1.55008 12.7391 1.22508 13.6891 1.79174L15.1224 2.61674C15.6307 2.90841 15.9974 3.38341 16.1557 3.95841C16.3057 4.53341 16.2307 5.12508 15.9391 5.63341C15.6974 6.05841 15.6307 6.44174 15.7724 6.68341C15.9141 6.92508 16.2724 7.06674 16.7641 7.06674C17.9807 7.06674 18.9724 8.05841 18.9724 9.27508V10.7417C18.9724 11.9584 17.9807 12.9501 16.7641 12.9501C16.2724 12.9501 15.9141 13.0917 15.7724 13.3334C15.6307 13.5751 15.6891 13.9584 15.9391 14.3834C16.2307 14.8917 16.3141 15.4917 16.1557 16.0584C16.0057 16.6334 15.6391 17.1084 15.1224 17.4001L13.6807 18.2251C13.3641 18.4001 13.0224 18.4917 12.6724 18.4917ZM9.9974 15.4084C10.7391 15.4084 11.4307 15.8751 11.9057 16.7001L11.9974 16.8584C12.0974 17.0334 12.2641 17.1584 12.4641 17.2084C12.6641 17.2584 12.8641 17.2334 13.0307 17.1334L14.4724 16.3001C14.6891 16.1751 14.8557 15.9667 14.9224 15.7167C14.9891 15.4667 14.9557 15.2084 14.8307 14.9917C14.3557 14.1751 14.2974 13.3334 14.6641 12.6917C15.0307 12.0501 15.7891 11.6834 16.7391 11.6834C17.2724 11.6834 17.6974 11.2584 17.6974 10.7251V9.25841C17.6974 8.73341 17.2724 8.30008 16.7391 8.30008C15.7891 8.30008 15.0307 7.93341 14.6641 7.29174C14.2974 6.65008 14.3557 5.80841 14.8307 4.99174C14.9557 4.77508 14.9891 4.51674 14.9224 4.26674C14.8557 4.01674 14.6974 3.81674 14.4807 3.68341L13.0391 2.85841C12.6807 2.64174 12.2057 2.76674 11.9891 3.13341L11.8974 3.29174C11.4224 4.11674 10.7307 4.58341 9.98906 4.58341C9.2474 4.58341 8.55573 4.11674 8.08073 3.29174L7.98906 3.12508C7.78073 2.77508 7.31406 2.65008 6.95573 2.85841L5.51406 3.69174C5.2974 3.81674 5.13073 4.02508 5.06406 4.27508C4.9974 4.52508 5.03073 4.78341 5.15573 5.00008C5.63073 5.81674 5.68906 6.65841 5.3224 7.30008C4.95573 7.94174 4.1974 8.30841 3.2474 8.30841C2.71406 8.30841 2.28906 8.73341 2.28906 9.26674V10.7334C2.28906 11.2584 2.71406 11.6917 3.2474 11.6917C4.1974 11.6917 4.95573 12.0584 5.3224 12.7001C5.68906 13.3417 5.63073 14.1834 5.15573 15.0001C5.03073 15.2167 4.9974 15.4751 5.06406 15.7251C5.13073 15.9751 5.28906 16.1751 5.50573 16.3084L6.9474 17.1334C7.1224 17.2417 7.33073 17.2667 7.5224 17.2167C7.7224 17.1667 7.88906 17.0334 7.9974 16.8584L8.08906 16.7001C8.56406 15.8834 9.25573 15.4084 9.9974 15.4084Z" fill="#163A96"/>
<path d="M12.1474 18.4251L11.7507 19.8717L11.7752 19.8784L11.8 19.8843L12.1474 18.4251ZM10.9224 17.5001L9.63616 18.2718L9.63616 18.2718L10.9224 17.5001ZM10.8224 17.3334L9.52397 18.0845L9.52998 18.0949L9.53615 18.1052L10.8224 17.3334ZM9.16406 17.3334L10.4622 18.085L10.4625 18.0845L9.16406 17.3334ZM9.0724 17.4917L10.3647 18.2533L10.3705 18.2433L9.0724 17.4917ZM7.8474 18.4251L7.47258 16.9727L7.46458 16.9747L7.45661 16.9769L7.8474 18.4251ZM6.3224 18.2167L7.09414 16.9305L7.08247 16.9235L7.07067 16.9167L6.3224 18.2167ZM4.88906 17.3917L5.63734 16.0917L5.63557 16.0907L4.88906 17.3917ZM3.85573 16.0501L2.4043 16.4287L2.40686 16.4385L2.40956 16.4483L3.85573 16.0501ZM4.0724 14.3751L5.37346 15.1216L5.37633 15.1165L4.0724 14.3751ZM4.0724 5.62508L2.77135 6.37158L2.77538 6.37862L2.77949 6.38561L4.0724 5.62508ZM3.85573 3.95008L5.3058 4.33392L5.30716 4.32871L3.85573 3.95008ZM4.88906 2.60841L5.62647 3.91467L5.63408 3.91031L4.88906 2.60841ZM6.33073 1.78341L7.07575 3.08531L7.08579 3.07956L7.09575 3.07366L6.33073 1.78341ZM9.08073 2.50841L7.78954 3.2719L7.79449 3.28016L9.08073 2.50841ZM9.18073 2.67508L10.4792 1.92402L10.4731 1.91363L10.467 1.90333L9.18073 2.67508ZM10.8391 2.67508L9.54092 1.92352L9.54063 1.92402L10.8391 2.67508ZM10.9307 2.51674L9.63666 1.75815L9.63259 1.76519L10.9307 2.51674ZM13.6891 1.79174L12.9206 3.07997L12.9307 3.08595L12.9408 3.09178L13.6891 1.79174ZM15.1224 2.61674L14.3741 3.91678L14.3759 3.91779L15.1224 2.61674ZM16.1557 3.95841L17.6072 3.57978L17.6046 3.56996L17.6019 3.56019L16.1557 3.95841ZM15.9391 5.63341L14.638 4.8869L14.6351 4.89196L15.9391 5.63341ZM15.9391 14.3834L17.2401 13.6369L17.2361 13.6299L17.232 13.6229L15.9391 14.3834ZM16.1557 16.0584L14.7111 15.6548L14.7076 15.6672L14.7043 15.6798L16.1557 16.0584ZM15.1224 17.4001L14.385 16.0938L14.3774 16.0982L15.1224 17.4001ZM13.6807 18.2251L14.4063 19.5379L14.416 19.5325L14.4257 19.527L13.6807 18.2251ZM11.9057 16.7001L10.6058 17.4485L10.6076 17.4516L11.9057 16.7001ZM11.9974 16.8584L13.2998 16.1142L13.2955 16.1069L11.9974 16.8584ZM13.0307 17.1334L12.2801 15.8348L12.2695 15.8409L12.259 15.8472L13.0307 17.1334ZM14.4724 16.3001L13.7228 15.0008L13.7217 15.0014L14.4724 16.3001ZM14.8307 14.9917L16.13 14.2422L16.1274 14.2376L14.8307 14.9917ZM14.8307 4.99174L16.1274 5.74591L16.13 5.74133L14.8307 4.99174ZM14.4807 3.68341L15.2669 2.40592L15.2465 2.39339L15.2257 2.38151L14.4807 3.68341ZM13.0391 2.85841L12.2629 4.14201L12.2784 4.15135L12.294 4.16031L13.0391 2.85841ZM11.9891 3.13341L10.6976 2.37029L10.6909 2.38185L11.9891 3.13341ZM11.8974 3.29174L10.5993 2.54018L10.5975 2.5433L11.8974 3.29174ZM8.08073 3.29174L6.7664 4.01462L6.77348 4.02747L6.7808 4.04019L8.08073 3.29174ZM7.98906 3.12508L9.30339 2.4022L9.29107 2.37981L9.278 2.35785L7.98906 3.12508ZM6.95573 2.85841L7.7064 4.15707L7.70966 4.15517L6.95573 2.85841ZM5.51406 3.69174L6.26365 4.99102L6.26473 4.9904L5.51406 3.69174ZM5.15573 5.00008L3.85644 5.74966L3.8591 5.75424L5.15573 5.00008ZM5.15573 15.0001L3.85909 14.2459L3.85645 14.2505L5.15573 15.0001ZM5.50573 16.3084L4.71958 17.5859L4.73995 17.5984L4.76071 17.6103L5.50573 16.3084ZM6.9474 17.1334L7.73693 15.858L7.7149 15.8444L7.69241 15.8315L6.9474 17.1334ZM7.5224 17.2167L7.15859 15.7615L7.15117 15.7634L7.14376 15.7653L7.5224 17.2167ZM7.9974 16.8584L9.27279 17.6479L9.28444 17.6291L9.29553 17.61L7.9974 16.8584ZM8.08906 16.7001L6.79243 15.9459L6.79092 15.9485L8.08906 16.7001ZM12.6724 16.9917C12.6397 16.9917 12.5836 16.987 12.4948 16.9659L11.8 19.8843C12.0612 19.9465 12.3551 19.9917 12.6724 19.9917V16.9917ZM12.544 16.9785C12.3933 16.9371 12.2816 16.8499 12.2086 16.7283L9.63616 18.2718C10.1132 19.0669 10.8682 19.6297 11.7507 19.8717L12.544 16.9785ZM12.2086 16.7283L12.1086 16.5617L9.53615 18.1052L9.63616 18.2718L12.2086 16.7283ZM12.1208 16.5824C11.7675 15.9716 11.0781 15.1959 9.99323 15.1959C8.90833 15.1959 8.21891 15.9716 7.86563 16.5824L10.4625 18.0845C10.5161 17.9918 10.5289 18.0041 10.4678 18.0505C10.3964 18.1046 10.2315 18.1959 9.99323 18.1959C9.75494 18.1959 9.59006 18.1046 9.51861 18.0505C9.45751 18.0041 9.47036 17.9918 9.52397 18.0845L12.1208 16.5824ZM7.86592 16.5819L7.77426 16.7402L10.3705 18.2433L10.4622 18.085L7.86592 16.5819ZM7.78009 16.7302C7.69954 16.8669 7.5896 16.9425 7.47258 16.9727L8.22221 19.8775C9.13853 19.641 9.89525 19.0499 10.3647 18.2533L7.78009 16.7302ZM7.45661 16.9769C7.32045 17.0136 7.199 16.9934 7.09414 16.9305L5.55065 19.503C6.36246 19.9901 7.32435 20.1199 8.23818 19.8733L7.45661 16.9769ZM7.07067 16.9167L5.63734 16.0917L4.14079 18.6918L5.57412 19.5168L7.07067 16.9167ZM5.63557 16.0907C5.47547 15.9988 5.35677 15.8511 5.3019 15.6519L2.40956 16.4483C2.67136 17.3991 3.28599 18.2013 4.14256 18.6928L5.63557 16.0907ZM5.30716 15.6714C5.25367 15.4664 5.28259 15.2799 5.37345 15.1216L2.77135 13.6286C2.27887 14.4869 2.15779 15.4837 2.4043 16.4287L5.30716 15.6714ZM5.37633 15.1165C5.55745 14.798 5.71434 14.4256 5.77999 14.0223C5.84472 13.6247 5.83597 13.0831 5.53311 12.5665L2.94502 14.0837C2.78382 13.8087 2.81257 13.5796 2.81897 13.5403C2.82629 13.4954 2.82901 13.5271 2.76846 13.6336L5.37633 15.1165ZM5.53311 12.5665C4.97138 11.6083 3.88352 11.4417 3.2474 11.4417V14.4417C3.35995 14.4417 3.37853 14.4593 3.33081 14.4408C3.28597 14.4234 3.09304 14.3362 2.94502 14.0837L5.53311 12.5665ZM3.2474 11.4417C2.85916 11.4417 2.53906 11.1216 2.53906 10.7334H-0.460938C-0.460938 12.7785 1.2023 14.4417 3.2474 14.4417V11.4417ZM2.53906 10.7334V9.26674H-0.460938V10.7334H2.53906ZM2.53906 9.26674C2.53906 8.8785 2.85916 8.55841 3.2474 8.55841V5.55841C1.2023 5.55841 -0.460938 7.22165 -0.460938 9.26674H2.53906ZM3.2474 8.55841C3.88352 8.55841 4.97138 8.3919 5.53311 7.43366L2.94502 5.9165C3.09304 5.66398 3.28597 5.5768 3.33081 5.55936C3.37853 5.5408 3.35995 5.55841 3.2474 5.55841V8.55841ZM5.53311 7.43366C6.10688 6.45487 5.68554 5.40895 5.3653 4.86455L2.77949 6.38561C2.83612 6.48187 2.82918 6.50514 2.82075 6.45144C2.81291 6.4015 2.79044 6.18019 2.94502 5.9165L5.53311 7.43366ZM5.37345 4.87857C5.2821 4.71937 5.25485 4.52635 5.30579 4.33391L2.40567 3.56624C2.15661 4.50714 2.27936 5.51412 2.77135 6.37158L5.37345 4.87857ZM5.30716 4.32871C5.35429 4.14801 5.46256 4.00717 5.62645 3.91465L4.15167 1.30217C3.28223 1.79299 2.65717 2.60214 2.4043 3.57144L5.30716 4.32871ZM5.63408 3.91031L7.07575 3.08531L5.58571 0.481508L4.14404 1.30651L5.63408 3.91031ZM7.09575 3.07366C7.30864 2.94743 7.63563 3.01155 7.78956 3.27188L10.3719 1.74494C9.3925 0.088604 7.23615 -0.49728 5.56571 0.493158L7.09575 3.07366ZM7.79449 3.28016L7.89449 3.44682L10.467 1.90333L10.367 1.73666L7.79449 3.28016ZM7.8823 3.42613C8.23558 4.03688 8.925 4.81258 10.0099 4.81258C11.0948 4.81258 11.7842 4.03688 12.1375 3.42613L9.54063 1.92402C9.48703 2.0167 9.47418 2.00435 9.53528 1.95802C9.60672 1.90384 9.7716 1.81258 10.0099 1.81258C10.2482 1.81258 10.4131 1.90384 10.4845 1.95802C10.5456 2.00435 10.5328 2.0167 10.4792 1.92402L7.8823 3.42613ZM12.1372 3.42663L12.2289 3.2683L9.63259 1.76519L9.54092 1.92352L12.1372 3.42663ZM12.2248 3.27532C12.3779 3.01409 12.6989 2.94772 12.9206 3.07997L14.4575 0.503513C12.7792 -0.497567 10.6169 0.0860646 9.63668 1.75816L12.2248 3.27532ZM12.9408 3.09178L14.3741 3.91678L15.8707 1.31671L14.4373 0.49171L12.9408 3.09178ZM14.3759 3.91779C14.536 4.00965 14.6547 4.15739 14.7096 4.35663L17.6019 3.56019C17.3401 2.60943 16.7255 1.80717 15.8689 1.31569L14.3759 3.91779ZM14.7043 4.33704C14.7578 4.54206 14.7289 4.72855 14.638 4.88691L17.2401 6.37991C17.7326 5.5216 17.8537 4.52476 17.6072 3.57978L14.7043 4.33704ZM14.6351 4.89196C14.454 5.21048 14.2971 5.58286 14.2315 5.98615C14.1667 6.38378 14.1755 6.92535 14.4783 7.44199L17.0664 5.92483C17.2276 6.19981 17.1989 6.42887 17.1925 6.46817C17.1852 6.51312 17.1825 6.48134 17.243 6.37486L14.6351 4.89196ZM14.4783 7.44199C15.0401 8.40024 16.1279 8.56674 16.7641 8.56674V5.56674C16.6515 5.56674 16.6329 5.54914 16.6806 5.56769C16.7255 5.58513 16.9184 5.67231 17.0664 5.92483L14.4783 7.44199ZM16.7641 8.56674C17.1523 8.56674 17.4724 8.88684 17.4724 9.27508H20.4724C20.4724 7.22998 18.8092 5.56674 16.7641 5.56674V8.56674ZM17.4724 9.27508V10.7417H20.4724V9.27508H17.4724ZM17.4724 10.7417C17.4724 11.13 17.1523 11.4501 16.7641 11.4501V14.4501C18.8092 14.4501 20.4724 12.7868 20.4724 10.7417H17.4724ZM16.7641 11.4501C16.1279 11.4501 15.0401 11.6166 14.4783 12.5748L17.0664 14.092C16.9184 14.3445 16.7255 14.4317 16.6806 14.4491C16.6329 14.4677 16.6515 14.4501 16.7641 14.4501V11.4501ZM14.4783 12.5748C13.9046 13.5536 14.3259 14.5995 14.6462 15.1439L17.232 13.6229C17.1753 13.5266 17.1823 13.5034 17.1907 13.557C17.1985 13.607 17.221 13.8283 17.0664 14.092L14.4783 12.5748ZM14.638 15.1299C14.7371 15.3027 14.7572 15.4895 14.7111 15.6548L17.6004 16.4621C17.8709 15.494 17.7243 14.4808 17.2401 13.6369L14.638 15.1299ZM14.7043 15.6798C14.6572 15.8605 14.5489 16.0013 14.385 16.0938L15.8598 18.7063C16.7292 18.2155 17.3543 17.4063 17.6072 16.437L14.7043 15.6798ZM14.3774 16.0982L12.9357 16.9232L14.4257 19.527L15.8674 18.702L14.3774 16.0982ZM12.9552 16.9122C12.8478 16.9716 12.7543 16.9917 12.6724 16.9917V19.9917C13.2905 19.9917 13.8803 19.8286 14.4063 19.5379L12.9552 16.9122ZM9.9974 16.9084C10.0498 16.9084 10.3124 16.939 10.6058 17.4485L13.2057 15.9516C12.549 14.8111 11.4283 13.9084 9.9974 13.9084V16.9084ZM10.6076 17.4516L10.6993 17.61L13.2955 16.1069L13.2039 15.9485L10.6076 17.4516ZM10.695 17.6026C11.0031 18.1417 11.5138 18.517 12.1003 18.6636L12.8279 15.7532C13.0143 15.7998 13.1917 15.9251 13.2998 16.1142L10.695 17.6026ZM12.1003 18.6636C12.6475 18.8004 13.262 18.744 13.8025 18.4196L12.259 15.8472C12.4662 15.7229 12.6806 15.7164 12.8279 15.7532L12.1003 18.6636ZM13.7814 18.4321L15.2231 17.5987L13.7217 15.0014L12.2801 15.8348L13.7814 18.4321ZM15.222 17.5994C15.7693 17.2836 16.1981 16.7544 16.3717 16.1032L13.473 15.3302C13.5133 15.1791 13.6088 15.0666 13.7228 15.0008L15.222 17.5994ZM16.3717 16.1032C16.538 15.4799 16.4587 14.8119 16.13 14.2422L13.5315 15.7413C13.4528 15.605 13.4402 15.4536 13.473 15.3302L16.3717 16.1032ZM16.1274 14.2376C15.8384 13.7407 15.9382 13.4853 15.9664 13.436L13.3617 11.9475C12.6566 13.1815 12.8731 14.6094 13.5341 15.7459L16.1274 14.2376ZM15.9664 13.436C15.9866 13.4006 16.1455 13.1834 16.7391 13.1834V10.1834C15.4327 10.1834 14.0749 10.6995 13.3617 11.9475L15.9664 13.436ZM16.7391 13.1834C18.1008 13.1834 19.1974 12.0868 19.1974 10.7251H16.1974C16.1974 10.43 16.444 10.1834 16.7391 10.1834V13.1834ZM19.1974 10.7251V9.25841H16.1974V10.7251H19.1974ZM19.1974 9.25841C19.1974 7.91349 18.1093 6.80008 16.7391 6.80008V9.80008C16.4355 9.80008 16.1974 9.55333 16.1974 9.25841H19.1974ZM16.7391 6.80008C16.1455 6.80008 15.9866 6.58285 15.9664 6.54753L13.3617 8.03595C14.0749 9.28397 15.4327 9.80008 16.7391 9.80008V6.80008ZM15.9664 6.54753C15.9382 6.49815 15.8384 6.24276 16.1274 5.7459L13.5341 4.23758C12.8731 5.37406 12.6566 6.802 13.3617 8.03595L15.9664 6.54753ZM16.13 5.74133C16.4587 5.17163 16.538 4.50358 16.3717 3.88025L13.473 4.65324C13.4402 4.52991 13.4528 4.37852 13.5315 4.24216L16.13 5.74133ZM16.3717 3.88025C16.1987 3.23119 15.7848 2.72465 15.2669 2.40592L13.6946 4.9609C13.6562 4.93728 13.6099 4.8995 13.567 4.84344C13.5233 4.78636 13.491 4.72056 13.473 4.65324L16.3717 3.88025ZM15.2257 2.38151L13.7841 1.55651L12.294 4.16031L13.7357 4.98531L15.2257 2.38151ZM13.8152 1.57481C12.7189 0.911954 11.3244 1.30964 10.6977 2.37032L13.2805 3.8965C13.087 4.22384 12.6425 4.37153 12.2629 4.14201L13.8152 1.57481ZM10.6909 2.38185L10.5993 2.54019L13.1955 4.0433L13.2872 3.88497L10.6909 2.38185ZM10.5975 2.5433C10.3041 3.0528 10.0415 3.08341 9.98906 3.08341V6.08341C11.4199 6.08341 12.5407 5.18068 13.1973 4.04019L10.5975 2.5433ZM9.98906 3.08341C9.93661 3.08341 9.67402 3.0528 9.38066 2.5433L6.7808 4.04019C7.43744 5.18068 8.55818 6.08341 9.98906 6.08341V3.08341ZM9.39505 2.56887L9.30339 2.4022L6.67474 3.84795L6.7664 4.01462L9.39505 2.56887ZM9.278 2.35785C8.65158 1.30547 7.27544 0.937441 6.2018 1.56165L7.70966 4.15517C7.35269 4.36271 6.90988 4.24469 6.70012 3.8923L9.278 2.35785ZM6.20506 1.55976L4.7634 2.39309L6.26473 4.9904L7.7064 4.15706L6.20506 1.55976ZM4.76448 2.39246C4.21714 2.70824 3.78835 3.23744 3.61471 3.88858L6.51341 4.66157C6.47311 4.81271 6.37766 4.92525 6.26365 4.99102L4.76448 2.39246ZM3.61471 3.88858C3.44849 4.51191 3.52778 5.17996 3.85645 5.74966L6.45501 4.25049C6.53368 4.38686 6.5463 4.53824 6.51341 4.66157L3.61471 3.88858ZM3.8591 5.75424C4.14809 6.25109 4.04825 6.50648 4.02003 6.55587L6.62476 8.04428C7.32987 6.81034 7.11337 5.38239 6.45236 4.24592L3.8591 5.75424ZM4.02003 6.55587C3.99985 6.59119 3.84101 6.80841 3.2474 6.80841V9.80841C4.55379 9.80841 5.91161 9.2923 6.62476 8.04428L4.02003 6.55587ZM3.2474 6.80841C1.88564 6.80841 0.789063 7.90498 0.789063 9.26674H3.78906C3.78906 9.56184 3.54249 9.80841 3.2474 9.80841V6.80841ZM0.789063 9.26674V10.7334H3.78906V9.26674H0.789063ZM0.789063 10.7334C0.789063 12.0783 1.87716 13.1917 3.2474 13.1917V10.1917C3.55097 10.1917 3.78906 10.4385 3.78906 10.7334H0.789063ZM3.2474 13.1917C3.841 13.1917 3.99985 13.409 4.02003 13.4443L6.62476 11.9559C5.91161 10.7079 4.55379 10.1917 3.2474 10.1917V13.1917ZM4.02003 13.4443C4.04825 13.4937 4.14809 13.7491 3.8591 14.2459L6.45236 15.7542C7.11337 14.6178 7.32987 13.1898 6.62476 11.9559L4.02003 13.4443ZM3.85645 14.2505C3.52778 14.8202 3.44849 15.4882 3.61471 16.1116L6.51341 15.3386C6.5463 15.4619 6.53368 15.6133 6.45501 15.7497L3.85645 14.2505ZM3.61471 16.1116C3.78779 16.7606 4.20166 17.2672 4.71958 17.5859L6.29188 15.0309C6.33025 15.0545 6.37653 15.0923 6.41946 15.1484C6.46319 15.2055 6.49546 15.2713 6.51341 15.3386L3.61471 16.1116ZM4.76071 17.6103L6.20238 18.4353L7.69241 15.8315L6.25075 15.0065L4.76071 17.6103ZM6.15786 18.4088C6.70391 18.7468 7.3382 18.815 7.90103 18.6682L7.14376 15.7653C7.32326 15.7185 7.54088 15.7366 7.73693 15.858L6.15786 18.4088ZM7.8862 18.672C8.5121 18.5155 8.98582 18.1115 9.27279 17.6479L6.722 16.0689C6.7923 15.9553 6.9327 15.818 7.15859 15.7615L7.8862 18.672ZM9.29553 17.61L9.3872 17.4516L6.79092 15.9485L6.69926 16.1069L9.29553 17.61ZM9.38569 17.4542C9.68449 16.9405 9.95118 16.9084 9.9974 16.9084V13.9084C8.56028 13.9084 7.44364 14.8263 6.79244 15.9459L9.38569 17.4542Z" fill="#163A96" mask="url(#path-3-inside-2_7790_22791)"/>
</svg>
