<svg width="40" height="41" viewBox="0 0 40 41" fill="none" xmlns="http://www.w3.org/2000/svg">
<path d="M14.3203 23.1693L11.9731 25.5166C11.1874 24.9041 10.0532 24.9409 9.32476 25.6649C8.5261 26.4418 8.52595 27.7235 9.32431 28.5006L10.5624 29.7387C10.9594 30.1574 11.4994 30.333 11.984 30.333C12.4888 30.333 12.9996 30.1447 13.3976 29.7466L17.1476 25.9966C17.9239 25.2204 17.9239 23.9455 17.1476 23.1693L17.1477 23.1692L17.1386 23.1604C16.3529 22.4009 15.1014 22.3882 14.3203 23.1693ZM14.3203 11.5026L11.9731 13.8499C11.1874 13.2374 10.0533 13.2742 9.32483 13.9982C8.5261 14.7751 8.52593 16.0568 9.32431 16.834L10.5624 18.072C10.9594 18.4907 11.4994 18.6663 11.984 18.6663C12.4888 18.6663 12.9996 18.478 13.3976 18.08L17.1476 14.33C17.9239 13.5537 17.9239 12.2789 17.1476 11.5026L17.1477 11.5026L17.1386 11.4937C16.3529 10.7343 15.1014 10.7216 14.3203 11.5026ZM13.0173 4.71631H26.984C29.8682 4.71631 32.0801 5.57312 33.5703 7.06331C35.0605 8.55349 35.9173 10.7655 35.9173 13.6496V27.6163C35.9173 30.5005 35.0605 32.7125 33.5703 34.2026C32.0801 35.6928 29.8682 36.5496 26.984 36.5496H13.0173C10.1331 36.5496 7.92117 35.6928 6.43098 34.2026C4.94079 32.7125 4.08398 30.5005 4.08398 27.6163V13.6496C4.08398 10.7655 4.94079 8.55349 6.43098 7.06331C7.92117 5.57312 10.1331 4.71631 13.0173 4.71631ZM20.5173 29.083H29.2673C30.388 29.083 31.2673 28.174 31.2673 27.083C31.2673 25.992 30.388 25.083 29.2673 25.083H20.5173C19.4198 25.083 18.5173 25.9854 18.5173 27.083C18.5173 28.1805 19.4198 29.083 20.5173 29.083ZM20.5173 17.4163H29.2673C30.388 17.4163 31.2673 16.5073 31.2673 15.4163C31.2673 14.3253 30.388 13.4163 29.2673 13.4163H20.5173C19.4198 13.4163 18.5173 14.3188 18.5173 15.4163C18.5173 16.5139 19.4198 17.4163 20.5173 17.4163Z" fill="#163A96" stroke="#163A96" stroke-width="1.5"/>
</svg>
