<svg width="20" height="20" viewBox="0 0 20 20" fill="none" xmlns="http://www.w3.org/2000/svg">
<mask id="path-1-inside-1_7016_16744" fill="white">
<path d="M17.4991 5.60841C17.4824 5.60841 17.4574 5.60841 17.4324 5.60841C13.0241 5.16675 8.62407 5.00008 4.26574 5.44175L2.56574 5.60841C2.21574 5.64175 1.90741 5.39175 1.87408 5.04175C1.84074 4.69175 2.09074 4.39175 2.43241 4.35841L4.13241 4.19175C8.56574 3.74175 13.0574 3.91675 17.5574 4.35841C17.8991 4.39175 18.1491 4.70008 18.1157 5.04175C18.0907 5.36675 17.8157 5.60841 17.4991 5.60841Z"/>
<path d="M7.08241 4.76675C7.04908 4.76675 7.01574 4.76675 6.97407 4.75841C6.64074 4.70008 6.40741 4.37508 6.46574 4.04175L6.64908 2.95008C6.78241 2.15008 6.96574 1.04175 8.90741 1.04175H11.0907C13.0407 1.04175 13.2241 2.19175 13.3491 2.95841L13.5324 4.04175C13.5907 4.38341 13.3574 4.70842 13.0241 4.75841C12.6824 4.81675 12.3574 4.58341 12.3074 4.25008L12.1241 3.16675C12.0074 2.44175 11.9824 2.30008 11.0991 2.30008H8.91574C8.03241 2.30008 8.01574 2.41675 7.89074 3.15841L7.69907 4.24175C7.64908 4.55008 7.38241 4.76675 7.08241 4.76675Z"/>
<path d="M12.6741 18.9584H7.32408C4.41574 18.9584 4.29908 17.3501 4.20741 16.0501L3.66574 7.65841C3.64074 7.31675 3.90741 7.01675 4.24908 6.99175C4.59908 6.97508 4.89074 7.23342 4.91574 7.57508L5.45741 15.9667C5.54908 17.2334 5.58241 17.7084 7.32408 17.7084H12.6741C14.4241 17.7084 14.4574 17.2334 14.5407 15.9667L15.0824 7.57508C15.1074 7.23342 15.4074 6.97508 15.7491 6.99175C16.0907 7.01675 16.3574 7.30841 16.3324 7.65841L15.7907 16.0501C15.6991 17.3501 15.5824 18.9584 12.6741 18.9584Z"/>
<path d="M11.3824 14.3751H8.60741C8.26574 14.3751 7.98241 14.0917 7.98241 13.7501C7.98241 13.4084 8.26574 13.1251 8.60741 13.1251H11.3824C11.7241 13.1251 12.0074 13.4084 12.0074 13.7501C12.0074 14.0917 11.7241 14.3751 11.3824 14.3751Z"/>
<path d="M12.0824 11.0417H7.91574C7.57408 11.0417 7.29074 10.7584 7.29074 10.4167C7.29074 10.0751 7.57408 9.79175 7.91574 9.79175H12.0824C12.4241 9.79175 12.7074 10.0751 12.7074 10.4167C12.7074 10.7584 12.4241 11.0417 12.0824 11.0417Z"/>
</mask>
<path d="M17.4991 5.60841C17.4824 5.60841 17.4574 5.60841 17.4324 5.60841C13.0241 5.16675 8.62407 5.00008 4.26574 5.44175L2.56574 5.60841C2.21574 5.64175 1.90741 5.39175 1.87408 5.04175C1.84074 4.69175 2.09074 4.39175 2.43241 4.35841L4.13241 4.19175C8.56574 3.74175 13.0574 3.91675 17.5574 4.35841C17.8991 4.39175 18.1491 4.70008 18.1157 5.04175C18.0907 5.36675 17.8157 5.60841 17.4991 5.60841Z" fill="white"/>
<path d="M7.08241 4.76675C7.04908 4.76675 7.01574 4.76675 6.97407 4.75841C6.64074 4.70008 6.40741 4.37508 6.46574 4.04175L6.64908 2.95008C6.78241 2.15008 6.96574 1.04175 8.90741 1.04175H11.0907C13.0407 1.04175 13.2241 2.19175 13.3491 2.95841L13.5324 4.04175C13.5907 4.38341 13.3574 4.70842 13.0241 4.75841C12.6824 4.81675 12.3574 4.58341 12.3074 4.25008L12.1241 3.16675C12.0074 2.44175 11.9824 2.30008 11.0991 2.30008H8.91574C8.03241 2.30008 8.01574 2.41675 7.89074 3.15841L7.69907 4.24175C7.64908 4.55008 7.38241 4.76675 7.08241 4.76675Z" fill="white"/>
<path d="M12.6741 18.9584H7.32408C4.41574 18.9584 4.29908 17.3501 4.20741 16.0501L3.66574 7.65841C3.64074 7.31675 3.90741 7.01675 4.24908 6.99175C4.59908 6.97508 4.89074 7.23342 4.91574 7.57508L5.45741 15.9667C5.54908 17.2334 5.58241 17.7084 7.32408 17.7084H12.6741C14.4241 17.7084 14.4574 17.2334 14.5407 15.9667L15.0824 7.57508C15.1074 7.23342 15.4074 6.97508 15.7491 6.99175C16.0907 7.01675 16.3574 7.30841 16.3324 7.65841L15.7907 16.0501C15.6991 17.3501 15.5824 18.9584 12.6741 18.9584Z" fill="white"/>
<path d="M11.3824 14.3751H8.60741C8.26574 14.3751 7.98241 14.0917 7.98241 13.7501C7.98241 13.4084 8.26574 13.1251 8.60741 13.1251H11.3824C11.7241 13.1251 12.0074 13.4084 12.0074 13.7501C12.0074 14.0917 11.7241 14.3751 11.3824 14.3751Z" fill="white"/>
<path d="M12.0824 11.0417H7.91574C7.57408 11.0417 7.29074 10.7584 7.29074 10.4167C7.29074 10.0751 7.57408 9.79175 7.91574 9.79175H12.0824C12.4241 9.79175 12.7074 10.0751 12.7074 10.4167C12.7074 10.7584 12.4241 11.0417 12.0824 11.0417Z" fill="white"/>
<path d="M17.4324 5.60841L17.2829 7.10094L17.3575 7.10841H17.4324V5.60841ZM4.26574 5.44175L4.4121 6.9346L4.41697 6.9341L4.26574 5.44175ZM2.56574 5.60841L2.70796 7.10166L2.7121 7.10126L2.56574 5.60841ZM2.43241 4.35841L2.57806 5.85133L2.57877 5.85126L2.43241 4.35841ZM4.13241 4.19175L4.27877 5.6846L4.28389 5.68408L4.13241 4.19175ZM17.5574 4.35841L17.4109 5.85124L17.4118 5.85133L17.5574 4.35841ZM18.1157 5.04175L16.6228 4.8961L16.6213 4.91138L16.6202 4.9267L18.1157 5.04175ZM6.97407 4.75841L7.26826 3.28755L7.25049 3.28399L7.23265 3.28087L6.97407 4.75841ZM6.46574 4.04175L7.94332 4.30032L7.94503 4.29018L6.46574 4.04175ZM6.64908 2.95008L8.12836 3.19851L8.12867 3.19668L6.64908 2.95008ZM13.3491 2.95841L11.8686 3.1998L11.8701 3.2087L13.3491 2.95841ZM13.5324 4.04175L12.0534 4.29204L12.0538 4.29419L13.5324 4.04175ZM13.0241 4.75841L12.8016 3.27501L12.7866 3.27726L12.7716 3.27981L13.0241 4.75841ZM12.3074 4.25008L13.7908 4.02757L13.7887 4.01366L13.7864 3.99979L12.3074 4.25008ZM12.1241 3.16675L10.6431 3.40507L10.6451 3.41704L12.1241 3.16675ZM7.89074 3.15841L9.36785 3.41975L9.36988 3.40771L7.89074 3.15841ZM7.69907 4.24175L6.22201 3.98042L6.22014 3.99102L6.21842 4.00164L7.69907 4.24175ZM4.20741 16.0501L2.7105 16.1467L2.71112 16.1556L4.20741 16.0501ZM3.66574 7.65841L5.16268 7.56179L5.16174 7.54895L3.66574 7.65841ZM4.24908 6.99175L4.17773 5.49345L4.15865 5.49435L4.13961 5.49575L4.24908 6.99175ZM4.91574 7.57508L6.41268 7.47846L6.41174 7.46562L4.91574 7.57508ZM5.45741 15.9667L3.96048 16.0634L3.96132 16.075L5.45741 15.9667ZM14.5407 15.9667L16.0375 16.0652L16.0376 16.0634L14.5407 15.9667ZM15.0824 7.57508L13.5864 7.46562L13.5855 7.47846L15.0824 7.57508ZM15.7491 6.99175L15.8585 5.49575L15.8404 5.49442L15.8222 5.49353L15.7491 6.99175ZM16.3324 7.65841L14.8362 7.55154L14.8355 7.56179L16.3324 7.65841ZM15.7907 16.0501L17.2871 16.1556L17.2876 16.1467L15.7907 16.0501ZM17.4991 4.10841C17.499 4.10841 17.499 4.10841 17.499 4.10841C17.4989 4.10841 17.4989 4.10841 17.4989 4.10841C17.4988 4.10841 17.4988 4.10841 17.4988 4.10841C17.4987 4.10841 17.4987 4.10841 17.4987 4.10841C17.4987 4.10841 17.4986 4.10841 17.4986 4.10841C17.4986 4.10841 17.4985 4.10841 17.4985 4.10841C17.4985 4.10841 17.4984 4.10841 17.4984 4.10841C17.4984 4.10841 17.4983 4.10841 17.4983 4.10841C17.4983 4.10841 17.4982 4.10841 17.4982 4.10841C17.4982 4.10841 17.4981 4.10841 17.4981 4.10841C17.4981 4.10841 17.498 4.10841 17.498 4.10841C17.498 4.10841 17.4979 4.10841 17.4979 4.10841C17.4979 4.10841 17.4978 4.10841 17.4978 4.10841C17.4978 4.10841 17.4977 4.10841 17.4977 4.10841C17.4977 4.10841 17.4976 4.10841 17.4976 4.10841C17.4976 4.10841 17.4975 4.10841 17.4975 4.10841C17.4975 4.10841 17.4974 4.10841 17.4974 4.10841C17.4974 4.10841 17.4973 4.10841 17.4973 4.10841C17.4973 4.10841 17.4972 4.10841 17.4972 4.10841C17.4972 4.10841 17.4971 4.10841 17.4971 4.10841C17.4971 4.10841 17.497 4.10841 17.497 4.10841C17.4969 4.10841 17.4969 4.10841 17.4969 4.10841C17.4968 4.10841 17.4968 4.10841 17.4968 4.10841C17.4967 4.10841 17.4967 4.10841 17.4967 4.10841C17.4966 4.10841 17.4966 4.10841 17.4966 4.10841C17.4965 4.10841 17.4965 4.10841 17.4965 4.10841C17.4964 4.10841 17.4964 4.10841 17.4964 4.10841C17.4963 4.10841 17.4963 4.10841 17.4963 4.10841C17.4962 4.10841 17.4962 4.10841 17.4962 4.10841C17.4961 4.10841 17.4961 4.10841 17.4961 4.10841C17.496 4.10841 17.496 4.10841 17.496 4.10841C17.4959 4.10841 17.4959 4.10841 17.4959 4.10841C17.4958 4.10841 17.4958 4.10841 17.4958 4.10841C17.4957 4.10841 17.4957 4.10841 17.4956 4.10841C17.4956 4.10841 17.4956 4.10841 17.4955 4.10841C17.4955 4.10841 17.4955 4.10841 17.4954 4.10841C17.4954 4.10841 17.4954 4.10841 17.4953 4.10841C17.4953 4.10841 17.4953 4.10841 17.4952 4.10841C17.4952 4.10841 17.4952 4.10841 17.4951 4.10841C17.4951 4.10841 17.4951 4.10841 17.495 4.10841C17.495 4.10841 17.495 4.10841 17.4949 4.10841C17.4949 4.10841 17.4948 4.10841 17.4948 4.10841C17.4948 4.10841 17.4947 4.10841 17.4947 4.10841C17.4947 4.10841 17.4946 4.10841 17.4946 4.10841C17.4946 4.10841 17.4945 4.10841 17.4945 4.10841C17.4945 4.10841 17.4944 4.10841 17.4944 4.10841C17.4944 4.10841 17.4943 4.10841 17.4943 4.10841C17.4942 4.10841 17.4942 4.10841 17.4942 4.10841C17.4941 4.10841 17.4941 4.10841 17.4941 4.10841C17.494 4.10841 17.494 4.10841 17.494 4.10841C17.4939 4.10841 17.4939 4.10841 17.4939 4.10841C17.4938 4.10841 17.4938 4.10841 17.4937 4.10841C17.4937 4.10841 17.4937 4.10841 17.4936 4.10841C17.4936 4.10841 17.4936 4.10841 17.4935 4.10841C17.4935 4.10841 17.4935 4.10841 17.4934 4.10841C17.4934 4.10841 17.4934 4.10841 17.4933 4.10841C17.4933 4.10841 17.4932 4.10841 17.4932 4.10841C17.4932 4.10841 17.4931 4.10841 17.4931 4.10841C17.4931 4.10841 17.493 4.10841 17.493 4.10841C17.493 4.10841 17.4929 4.10841 17.4929 4.10841C17.4928 4.10841 17.4928 4.10841 17.4928 4.10841C17.4927 4.10841 17.4927 4.10841 17.4927 4.10841C17.4926 4.10841 17.4926 4.10841 17.4926 4.10841C17.4925 4.10841 17.4925 4.10841 17.4925 4.10841C17.4924 4.10841 17.4924 4.10841 17.4923 4.10841C17.4923 4.10841 17.4923 4.10841 17.4922 4.10841C17.4922 4.10841 17.4922 4.10841 17.4921 4.10841C17.4921 4.10841 17.492 4.10841 17.492 4.10841C17.492 4.10841 17.4919 4.10841 17.4919 4.10841C17.4919 4.10841 17.4918 4.10841 17.4918 4.10841C17.4918 4.10841 17.4917 4.10841 17.4917 4.10841C17.4916 4.10841 17.4916 4.10841 17.4916 4.10841C17.4915 4.10841 17.4915 4.10841 17.4915 4.10841C17.4914 4.10841 17.4914 4.10841 17.4914 4.10841C17.4913 4.10841 17.4913 4.10841 17.4912 4.10841C17.4912 4.10841 17.4912 4.10841 17.4911 4.10841C17.4911 4.10841 17.4911 4.10841 17.491 4.10841C17.491 4.10841 17.4909 4.10841 17.4909 4.10841C17.4909 4.10841 17.4908 4.10841 17.4908 4.10841C17.4908 4.10841 17.4907 4.10841 17.4907 4.10841C17.4906 4.10841 17.4906 4.10841 17.4906 4.10841C17.4905 4.10841 17.4905 4.10841 17.4905 4.10841C17.4904 4.10841 17.4904 4.10841 17.4903 4.10841C17.4903 4.10841 17.4903 4.10841 17.4902 4.10841C17.4902 4.10841 17.4902 4.10841 17.4901 4.10841C17.4901 4.10841 17.49 4.10841 17.49 4.10841C17.49 4.10841 17.4899 4.10841 17.4899 4.10841C17.4899 4.10841 17.4898 4.10841 17.4898 4.10841C17.4897 4.10841 17.4897 4.10841 17.4897 4.10841C17.4896 4.10841 17.4896 4.10841 17.4896 4.10841C17.4895 4.10841 17.4895 4.10841 17.4894 4.10841C17.4894 4.10841 17.4894 4.10841 17.4893 4.10841C17.4893 4.10841 17.4893 4.10841 17.4892 4.10841C17.4892 4.10841 17.4891 4.10841 17.4891 4.10841C17.4891 4.10841 17.489 4.10841 17.489 4.10841C17.489 4.10841 17.4889 4.10841 17.4889 4.10841C17.4888 4.10841 17.4888 4.10841 17.4888 4.10841C17.4887 4.10841 17.4887 4.10841 17.4886 4.10841C17.4886 4.10841 17.4886 4.10841 17.4885 4.10841C17.4885 4.10841 17.4885 4.10841 17.4884 4.10841C17.4884 4.10841 17.4883 4.10841 17.4883 4.10841C17.4883 4.10841 17.4882 4.10841 17.4882 4.10841C17.4881 4.10841 17.4881 4.10841 17.4881 4.10841C17.488 4.10841 17.488 4.10841 17.488 4.10841C17.4879 4.10841 17.4879 4.10841 17.4878 4.10841C17.4878 4.10841 17.4878 4.10841 17.4877 4.10841C17.4877 4.10841 17.4876 4.10841 17.4876 4.10841C17.4876 4.10841 17.4875 4.10841 17.4875 4.10841C17.4875 4.10841 17.4874 4.10841 17.4874 4.10841C17.4873 4.10841 17.4873 4.10841 17.4873 4.10841C17.4872 4.10841 17.4872 4.10841 17.4871 4.10841C17.4871 4.10841 17.4871 4.10841 17.487 4.10841C17.487 4.10841 17.487 4.10841 17.4869 4.10841C17.4869 4.10841 17.4868 4.10841 17.4868 4.10841C17.4868 4.10841 17.4867 4.10841 17.4867 4.10841C17.4866 4.10841 17.4866 4.10841 17.4866 4.10841C17.4865 4.10841 17.4865 4.10841 17.4864 4.10841C17.4864 4.10841 17.4864 4.10841 17.4863 4.10841C17.4863 4.10841 17.4862 4.10841 17.4862 4.10841C17.4862 4.10841 17.4861 4.10841 17.4861 4.10841C17.4861 4.10841 17.486 4.10841 17.486 4.10841C17.4859 4.10841 17.4859 4.10841 17.4859 4.10841C17.4858 4.10841 17.4858 4.10841 17.4857 4.10841C17.4857 4.10841 17.4857 4.10841 17.4856 4.10841C17.4856 4.10841 17.4855 4.10841 17.4855 4.10841C17.4855 4.10841 17.4854 4.10841 17.4854 4.10841C17.4853 4.10841 17.4853 4.10841 17.4853 4.10841C17.4852 4.10841 17.4852 4.10841 17.4851 4.10841C17.4851 4.10841 17.4851 4.10841 17.485 4.10841C17.485 4.10841 17.4849 4.10841 17.4849 4.10841C17.4849 4.10841 17.4848 4.10841 17.4848 4.10841C17.4847 4.10841 17.4847 4.10841 17.4847 4.10841C17.4846 4.10841 17.4846 4.10841 17.4845 4.10841C17.4845 4.10841 17.4845 4.10841 17.4844 4.10841C17.4844 4.10841 17.4843 4.10841 17.4843 4.10841C17.4843 4.10841 17.4842 4.10841 17.4842 4.10841C17.4841 4.10841 17.4841 4.10841 17.4841 4.10841C17.484 4.10841 17.484 4.10841 17.4839 4.10841C17.4839 4.10841 17.4839 4.10841 17.4838 4.10841C17.4838 4.10841 17.4837 4.10841 17.4837 4.10841C17.4837 4.10841 17.4836 4.10841 17.4836 4.10841C17.4835 4.10841 17.4835 4.10841 17.4835 4.10841C17.4834 4.10841 17.4834 4.10841 17.4833 4.10841C17.4833 4.10841 17.4833 4.10841 17.4832 4.10841C17.4832 4.10841 17.4831 4.10841 17.4831 4.10841C17.4831 4.10841 17.483 4.10841 17.483 4.10841C17.4829 4.10841 17.4829 4.10841 17.4829 4.10841C17.4828 4.10841 17.4828 4.10841 17.4827 4.10841C17.4827 4.10841 17.4827 4.10841 17.4826 4.10841C17.4826 4.10841 17.4825 4.10841 17.4825 4.10841C17.4824 4.10841 17.4824 4.10841 17.4824 4.10841C17.4823 4.10841 17.4823 4.10841 17.4822 4.10841C17.4822 4.10841 17.4822 4.10841 17.4821 4.10841C17.4821 4.10841 17.482 4.10841 17.482 4.10841C17.482 4.10841 17.4819 4.10841 17.4819 4.10841C17.4818 4.10841 17.4818 4.10841 17.4818 4.10841C17.4817 4.10841 17.4817 4.10841 17.4816 4.10841C17.4816 4.10841 17.4816 4.10841 17.4815 4.10841C17.4815 4.10841 17.4814 4.10841 17.4814 4.10841C17.4813 4.10841 17.4813 4.10841 17.4813 4.10841C17.4812 4.10841 17.4812 4.10841 17.4811 4.10841C17.4811 4.10841 17.4811 4.10841 17.481 4.10841C17.481 4.10841 17.4809 4.10841 17.4809 4.10841C17.4809 4.10841 17.4808 4.10841 17.4808 4.10841C17.4807 4.10841 17.4807 4.10841 17.4806 4.10841C17.4806 4.10841 17.4806 4.10841 17.4805 4.10841C17.4805 4.10841 17.4804 4.10841 17.4804 4.10841C17.4804 4.10841 17.4803 4.10841 17.4803 4.10841C17.4802 4.10841 17.4802 4.10841 17.4801 4.10841C17.4801 4.10841 17.4801 4.10841 17.48 4.10841C17.48 4.10841 17.4799 4.10841 17.4799 4.10841C17.4799 4.10841 17.4798 4.10841 17.4798 4.10841C17.4797 4.10841 17.4797 4.10841 17.4796 4.10841C17.4796 4.10841 17.4796 4.10841 17.4795 4.10841C17.4795 4.10841 17.4794 4.10841 17.4794 4.10841C17.4794 4.10841 17.4793 4.10841 17.4793 4.10841C17.4792 4.10841 17.4792 4.10841 17.4791 4.10841C17.4791 4.10841 17.4791 4.10841 17.479 4.10841C17.479 4.10841 17.4789 4.10841 17.4789 4.10841C17.4789 4.10841 17.4788 4.10841 17.4788 4.10841C17.4787 4.10841 17.4787 4.10841 17.4786 4.10841C17.4786 4.10841 17.4786 4.10841 17.4785 4.10841C17.4785 4.10841 17.4784 4.10841 17.4784 4.10841C17.4783 4.10841 17.4783 4.10841 17.4783 4.10841C17.4782 4.10841 17.4782 4.10841 17.4781 4.10841C17.4781 4.10841 17.4781 4.10841 17.478 4.10841C17.478 4.10841 17.4779 4.10841 17.4779 4.10841C17.4778 4.10841 17.4778 4.10841 17.4778 4.10841C17.4777 4.10841 17.4777 4.10841 17.4776 4.10841C17.4776 4.10841 17.4775 4.10841 17.4775 4.10841C17.4775 4.10841 17.4774 4.10841 17.4774 4.10841C17.4773 4.10841 17.4773 4.10841 17.4772 4.10841C17.4772 4.10841 17.4772 4.10841 17.4771 4.10841C17.4771 4.10841 17.477 4.10841 17.477 4.10841C17.477 4.10841 17.4769 4.10841 17.4769 4.10841C17.4768 4.10841 17.4768 4.10841 17.4767 4.10841C17.4767 4.10841 17.4767 4.10841 17.4766 4.10841C17.4766 4.10841 17.4765 4.10841 17.4765 4.10841C17.4764 4.10841 17.4764 4.10841 17.4764 4.10841C17.4763 4.10841 17.4763 4.10841 17.4762 4.10841C17.4762 4.10841 17.4761 4.10841 17.4761 4.10841C17.4761 4.10841 17.476 4.10841 17.476 4.10841C17.4759 4.10841 17.4759 4.10841 17.4758 4.10841C17.4758 4.10841 17.4758 4.10841 17.4757 4.10841C17.4757 4.10841 17.4756 4.10841 17.4756 4.10841C17.4755 4.10841 17.4755 4.10841 17.4755 4.10841C17.4754 4.10841 17.4754 4.10841 17.4753 4.10841C17.4753 4.10841 17.4752 4.10841 17.4752 4.10841C17.4752 4.10841 17.4751 4.10841 17.4751 4.10841C17.475 4.10841 17.475 4.10841 17.4749 4.10841C17.4749 4.10841 17.4749 4.10841 17.4748 4.10841C17.4748 4.10841 17.4747 4.10841 17.4747 4.10841C17.4746 4.10841 17.4746 4.10841 17.4745 4.10841C17.4745 4.10841 17.4745 4.10841 17.4744 4.10841C17.4744 4.10841 17.4743 4.10841 17.4743 4.10841C17.4742 4.10841 17.4742 4.10841 17.4742 4.10841C17.4741 4.10841 17.4741 4.10841 17.474 4.10841C17.474 4.10841 17.4739 4.10841 17.4739 4.10841C17.4739 4.10841 17.4738 4.10841 17.4738 4.10841C17.4737 4.10841 17.4737 4.10841 17.4736 4.10841C17.4736 4.10841 17.4735 4.10841 17.4735 4.10841C17.4735 4.10841 17.4734 4.10841 17.4734 4.10841C17.4733 4.10841 17.4733 4.10841 17.4732 4.10841C17.4732 4.10841 17.4732 4.10841 17.4731 4.10841C17.4731 4.10841 17.473 4.10841 17.473 4.10841C17.4729 4.10841 17.4729 4.10841 17.4729 4.10841C17.4728 4.10841 17.4728 4.10841 17.4727 4.10841C17.4727 4.10841 17.4726 4.10841 17.4726 4.10841C17.4725 4.10841 17.4725 4.10841 17.4725 4.10841C17.4724 4.10841 17.4724 4.10841 17.4723 4.10841C17.4723 4.10841 17.4722 4.10841 17.4722 4.10841C17.4721 4.10841 17.4721 4.10841 17.4721 4.10841C17.472 4.10841 17.472 4.10841 17.4719 4.10841C17.4719 4.10841 17.4718 4.10841 17.4718 4.10841C17.4718 4.10841 17.4717 4.10841 17.4717 4.10841C17.4716 4.10841 17.4716 4.10841 17.4715 4.10841C17.4715 4.10841 17.4714 4.10841 17.4714 4.10841C17.4714 4.10841 17.4713 4.10841 17.4713 4.10841C17.4712 4.10841 17.4712 4.10841 17.4711 4.10841C17.4711 4.10841 17.471 4.10841 17.471 4.10841C17.471 4.10841 17.4709 4.10841 17.4709 4.10841C17.4708 4.10841 17.4708 4.10841 17.4707 4.10841C17.4707 4.10841 17.4706 4.10841 17.4706 4.10841C17.4706 4.10841 17.4705 4.10841 17.4705 4.10841C17.4704 4.10841 17.4704 4.10841 17.4703 4.10841C17.4703 4.10841 17.4702 4.10841 17.4702 4.10841C17.4702 4.10841 17.4701 4.10841 17.4701 4.10841C17.47 4.10841 17.47 4.10841 17.4699 4.10841C17.4699 4.10841 17.4698 4.10841 17.4698 4.10841C17.4698 4.10841 17.4697 4.10841 17.4697 4.10841C17.4696 4.10841 17.4696 4.10841 17.4695 4.10841C17.4695 4.10841 17.4694 4.10841 17.4694 4.10841C17.4694 4.10841 17.4693 4.10841 17.4693 4.10841C17.4692 4.10841 17.4692 4.10841 17.4691 4.10841C17.4691 4.10841 17.469 4.10841 17.469 4.10841C17.469 4.10841 17.4689 4.10841 17.4689 4.10841C17.4688 4.10841 17.4688 4.10841 17.4687 4.10841C17.4687 4.10841 17.4686 4.10841 17.4686 4.10841C17.4686 4.10841 17.4685 4.10841 17.4685 4.10841C17.4684 4.10841 17.4684 4.10841 17.4683 4.10841C17.4683 4.10841 17.4682 4.10841 17.4682 4.10841C17.4681 4.10841 17.4681 4.10841 17.4681 4.10841C17.468 4.10841 17.468 4.10841 17.4679 4.10841C17.4679 4.10841 17.4678 4.10841 17.4678 4.10841C17.4677 4.10841 17.4677 4.10841 17.4677 4.10841C17.4676 4.10841 17.4676 4.10841 17.4675 4.10841C17.4675 4.10841 17.4674 4.10841 17.4674 4.10841C17.4673 4.10841 17.4673 4.10841 17.4672 4.10841C17.4672 4.10841 17.4672 4.10841 17.4671 4.10841C17.4671 4.10841 17.467 4.10841 17.467 4.10841C17.4669 4.10841 17.4669 4.10841 17.4668 4.10841C17.4668 4.10841 17.4668 4.10841 17.4667 4.10841C17.4667 4.10841 17.4666 4.10841 17.4666 4.10841C17.4665 4.10841 17.4665 4.10841 17.4664 4.10841C17.4664 4.10841 17.4663 4.10841 17.4663 4.10841C17.4663 4.10841 17.4662 4.10841 17.4662 4.10841C17.4661 4.10841 17.4661 4.10841 17.466 4.10841C17.466 4.10841 17.4659 4.10841 17.4659 4.10841C17.4658 4.10841 17.4658 4.10841 17.4658 4.10841C17.4657 4.10841 17.4657 4.10841 17.4656 4.10841C17.4656 4.10841 17.4655 4.10841 17.4655 4.10841C17.4654 4.10841 17.4654 4.10841 17.4653 4.10841C17.4653 4.10841 17.4653 4.10841 17.4652 4.10841C17.4652 4.10841 17.4651 4.10841 17.4651 4.10841C17.465 4.10841 17.465 4.10841 17.4649 4.10841C17.4649 4.10841 17.4648 4.10841 17.4648 4.10841C17.4648 4.10841 17.4647 4.10841 17.4647 4.10841C17.4646 4.10841 17.4646 4.10841 17.4645 4.10841C17.4645 4.10841 17.4644 4.10841 17.4644 4.10841C17.4643 4.10841 17.4643 4.10841 17.4642 4.10841C17.4642 4.10841 17.4642 4.10841 17.4641 4.10841C17.4641 4.10841 17.464 4.10841 17.464 4.10841C17.4639 4.10841 17.4639 4.10841 17.4638 4.10841C17.4638 4.10841 17.4637 4.10841 17.4637 4.10841C17.4637 4.10841 17.4636 4.10841 17.4636 4.10841C17.4635 4.10841 17.4635 4.10841 17.4634 4.10841C17.4634 4.10841 17.4633 4.10841 17.4633 4.10841C17.4632 4.10841 17.4632 4.10841 17.4631 4.10841C17.4631 4.10841 17.4631 4.10841 17.463 4.10841C17.463 4.10841 17.4629 4.10841 17.4629 4.10841C17.4628 4.10841 17.4628 4.10841 17.4627 4.10841C17.4627 4.10841 17.4626 4.10841 17.4626 4.10841C17.4625 4.10841 17.4625 4.10841 17.4625 4.10841C17.4624 4.10841 17.4624 4.10841 17.4623 4.10841C17.4623 4.10841 17.4622 4.10841 17.4622 4.10841C17.4621 4.10841 17.4621 4.10841 17.462 4.10841C17.462 4.10841 17.4619 4.10841 17.4619 4.10841C17.4619 4.10841 17.4618 4.10841 17.4618 4.10841C17.4617 4.10841 17.4617 4.10841 17.4616 4.10841C17.4616 4.10841 17.4615 4.10841 17.4615 4.10841C17.4614 4.10841 17.4614 4.10841 17.4613 4.10841C17.4613 4.10841 17.4613 4.10841 17.4612 4.10841C17.4612 4.10841 17.4611 4.10841 17.4611 4.10841C17.461 4.10841 17.461 4.10841 17.4609 4.10841C17.4609 4.10841 17.4608 4.10841 17.4608 4.10841C17.4607 4.10841 17.4607 4.10841 17.4607 4.10841C17.4606 4.10841 17.4606 4.10841 17.4605 4.10841C17.4605 4.10841 17.4604 4.10841 17.4604 4.10841C17.4603 4.10841 17.4603 4.10841 17.4602 4.10841C17.4602 4.10841 17.4601 4.10841 17.4601 4.10841C17.46 4.10841 17.46 4.10841 17.46 4.10841C17.4599 4.10841 17.4599 4.10841 17.4598 4.10841C17.4598 4.10841 17.4597 4.10841 17.4597 4.10841C17.4596 4.10841 17.4596 4.10841 17.4595 4.10841C17.4595 4.10841 17.4594 4.10841 17.4594 4.10841C17.4593 4.10841 17.4593 4.10841 17.4593 4.10841C17.4592 4.10841 17.4592 4.10841 17.4591 4.10841C17.4591 4.10841 17.459 4.10841 17.459 4.10841C17.4589 4.10841 17.4589 4.10841 17.4588 4.10841C17.4588 4.10841 17.4587 4.10841 17.4587 4.10841C17.4586 4.10841 17.4586 4.10841 17.4586 4.10841C17.4585 4.10841 17.4585 4.10841 17.4584 4.10841C17.4584 4.10841 17.4583 4.10841 17.4583 4.10841C17.4582 4.10841 17.4582 4.10841 17.4581 4.10841C17.4581 4.10841 17.458 4.10841 17.458 4.10841C17.4579 4.10841 17.4579 4.10841 17.4579 4.10841C17.4578 4.10841 17.4578 4.10841 17.4577 4.10841C17.4577 4.10841 17.4576 4.10841 17.4576 4.10841C17.4575 4.10841 17.4575 4.10841 17.4574 4.10841C17.4574 4.10841 17.4573 4.10841 17.4573 4.10841C17.4572 4.10841 17.4572 4.10841 17.4571 4.10841C17.4571 4.10841 17.4571 4.10841 17.457 4.10841C17.457 4.10841 17.4569 4.10841 17.4569 4.10841C17.4568 4.10841 17.4568 4.10841 17.4567 4.10841C17.4567 4.10841 17.4566 4.10841 17.4566 4.10841C17.4565 4.10841 17.4565 4.10841 17.4564 4.10841C17.4564 4.10841 17.4563 4.10841 17.4563 4.10841C17.4563 4.10841 17.4562 4.10841 17.4562 4.10841C17.4561 4.10841 17.4561 4.10841 17.456 4.10841C17.456 4.10841 17.4559 4.10841 17.4559 4.10841C17.4558 4.10841 17.4558 4.10841 17.4557 4.10841C17.4557 4.10841 17.4556 4.10841 17.4556 4.10841C17.4555 4.10841 17.4555 4.10841 17.4555 4.10841C17.4554 4.10841 17.4554 4.10841 17.4553 4.10841C17.4553 4.10841 17.4552 4.10841 17.4552 4.10841C17.4551 4.10841 17.4551 4.10841 17.455 4.10841C17.455 4.10841 17.4549 4.10841 17.4549 4.10841C17.4548 4.10841 17.4548 4.10841 17.4547 4.10841C17.4547 4.10841 17.4546 4.10841 17.4546 4.10841C17.4546 4.10841 17.4545 4.10841 17.4545 4.10841C17.4544 4.10841 17.4544 4.10841 17.4543 4.10841C17.4543 4.10841 17.4542 4.10841 17.4542 4.10841C17.4541 4.10841 17.4541 4.10841 17.454 4.10841C17.454 4.10841 17.4539 4.10841 17.4539 4.10841C17.4538 4.10841 17.4538 4.10841 17.4537 4.10841C17.4537 4.10841 17.4536 4.10841 17.4536 4.10841C17.4536 4.10841 17.4535 4.10841 17.4535 4.10841C17.4534 4.10841 17.4534 4.10841 17.4533 4.10841C17.4533 4.10841 17.4532 4.10841 17.4532 4.10841C17.4531 4.10841 17.4531 4.10841 17.453 4.10841C17.453 4.10841 17.4529 4.10841 17.4529 4.10841C17.4528 4.10841 17.4528 4.10841 17.4527 4.10841C17.4527 4.10841 17.4527 4.10841 17.4526 4.10841C17.4526 4.10841 17.4525 4.10841 17.4525 4.10841C17.4524 4.10841 17.4524 4.10841 17.4523 4.10841C17.4523 4.10841 17.4522 4.10841 17.4522 4.10841C17.4521 4.10841 17.4521 4.10841 17.452 4.10841C17.452 4.10841 17.4519 4.10841 17.4519 4.10841C17.4518 4.10841 17.4518 4.10841 17.4517 4.10841C17.4517 4.10841 17.4516 4.10841 17.4516 4.10841C17.4516 4.10841 17.4515 4.10841 17.4515 4.10841C17.4514 4.10841 17.4514 4.10841 17.4513 4.10841C17.4513 4.10841 17.4512 4.10841 17.4512 4.10841C17.4511 4.10841 17.4511 4.10841 17.451 4.10841C17.451 4.10841 17.4509 4.10841 17.4509 4.10841C17.4508 4.10841 17.4508 4.10841 17.4507 4.10841C17.4507 4.10841 17.4506 4.10841 17.4506 4.10841C17.4506 4.10841 17.4505 4.10841 17.4505 4.10841C17.4504 4.10841 17.4504 4.10841 17.4503 4.10841C17.4503 4.10841 17.4502 4.10841 17.4502 4.10841C17.4501 4.10841 17.4501 4.10841 17.45 4.10841C17.45 4.10841 17.4499 4.10841 17.4499 4.10841C17.4498 4.10841 17.4498 4.10841 17.4497 4.10841C17.4497 4.10841 17.4496 4.10841 17.4496 4.10841C17.4495 4.10841 17.4495 4.10841 17.4494 4.10841C17.4494 4.10841 17.4494 4.10841 17.4493 4.10841C17.4493 4.10841 17.4492 4.10841 17.4492 4.10841C17.4491 4.10841 17.4491 4.10841 17.449 4.10841C17.449 4.10841 17.4489 4.10841 17.4489 4.10841C17.4488 4.10841 17.4488 4.10841 17.4487 4.10841C17.4487 4.10841 17.4486 4.10841 17.4486 4.10841C17.4485 4.10841 17.4485 4.10841 17.4484 4.10841C17.4484 4.10841 17.4483 4.10841 17.4483 4.10841C17.4482 4.10841 17.4482 4.10841 17.4482 4.10841C17.4481 4.10841 17.4481 4.10841 17.448 4.10841C17.448 4.10841 17.4479 4.10841 17.4479 4.10841C17.4478 4.10841 17.4478 4.10841 17.4477 4.10841C17.4477 4.10841 17.4476 4.10841 17.4476 4.10841C17.4475 4.10841 17.4475 4.10841 17.4474 4.10841C17.4474 4.10841 17.4473 4.10841 17.4473 4.10841C17.4472 4.10841 17.4472 4.10841 17.4471 4.10841C17.4471 4.10841 17.447 4.10841 17.447 4.10841C17.4469 4.10841 17.4469 4.10841 17.4469 4.10841C17.4468 4.10841 17.4468 4.10841 17.4467 4.10841C17.4467 4.10841 17.4466 4.10841 17.4466 4.10841C17.4465 4.10841 17.4465 4.10841 17.4464 4.10841C17.4464 4.10841 17.4463 4.10841 17.4463 4.10841C17.4462 4.10841 17.4462 4.10841 17.4461 4.10841C17.4461 4.10841 17.446 4.10841 17.446 4.10841C17.4459 4.10841 17.4459 4.10841 17.4458 4.10841C17.4458 4.10841 17.4457 4.10841 17.4457 4.10841C17.4456 4.10841 17.4456 4.10841 17.4455 4.10841C17.4455 4.10841 17.4455 4.10841 17.4454 4.10841C17.4454 4.10841 17.4453 4.10841 17.4453 4.10841C17.4452 4.10841 17.4452 4.10841 17.4451 4.10841C17.4451 4.10841 17.445 4.10841 17.445 4.10841C17.4449 4.10841 17.4449 4.10841 17.4448 4.10841C17.4448 4.10841 17.4447 4.10841 17.4447 4.10841C17.4446 4.10841 17.4446 4.10841 17.4445 4.10841C17.4445 4.10841 17.4444 4.10841 17.4444 4.10841C17.4443 4.10841 17.4443 4.10841 17.4442 4.10841C17.4442 4.10841 17.4441 4.10841 17.4441 4.10841C17.444 4.10841 17.444 4.10841 17.444 4.10841C17.4439 4.10841 17.4439 4.10841 17.4438 4.10841C17.4438 4.10841 17.4437 4.10841 17.4437 4.10841C17.4436 4.10841 17.4436 4.10841 17.4435 4.10841C17.4435 4.10841 17.4434 4.10841 17.4434 4.10841C17.4433 4.10841 17.4433 4.10841 17.4432 4.10841C17.4432 4.10841 17.4431 4.10841 17.4431 4.10841C17.443 4.10841 17.443 4.10841 17.4429 4.10841C17.4429 4.10841 17.4428 4.10841 17.4428 4.10841C17.4427 4.10841 17.4427 4.10841 17.4426 4.10841C17.4426 4.10841 17.4425 4.10841 17.4425 4.10841C17.4424 4.10841 17.4424 4.10841 17.4424 4.10841C17.4423 4.10841 17.4423 4.10841 17.4422 4.10841C17.4422 4.10841 17.4421 4.10841 17.4421 4.10841C17.442 4.10841 17.442 4.10841 17.4419 4.10841C17.4419 4.10841 17.4418 4.10841 17.4418 4.10841C17.4417 4.10841 17.4417 4.10841 17.4416 4.10841C17.4416 4.10841 17.4415 4.10841 17.4415 4.10841C17.4414 4.10841 17.4414 4.10841 17.4413 4.10841C17.4413 4.10841 17.4412 4.10841 17.4412 4.10841C17.4411 4.10841 17.4411 4.10841 17.441 4.10841C17.441 4.10841 17.4409 4.10841 17.4409 4.10841C17.4408 4.10841 17.4408 4.10841 17.4407 4.10841C17.4407 4.10841 17.4406 4.10841 17.4406 4.10841C17.4406 4.10841 17.4405 4.10841 17.4405 4.10841C17.4404 4.10841 17.4404 4.10841 17.4403 4.10841C17.4403 4.10841 17.4402 4.10841 17.4402 4.10841C17.4401 4.10841 17.4401 4.10841 17.44 4.10841C17.44 4.10841 17.4399 4.10841 17.4399 4.10841C17.4398 4.10841 17.4398 4.10841 17.4397 4.10841C17.4397 4.10841 17.4396 4.10841 17.4396 4.10841C17.4395 4.10841 17.4395 4.10841 17.4394 4.10841C17.4394 4.10841 17.4393 4.10841 17.4393 4.10841C17.4392 4.10841 17.4392 4.10841 17.4391 4.10841C17.4391 4.10841 17.439 4.10841 17.439 4.10841C17.4389 4.10841 17.4389 4.10841 17.4388 4.10841C17.4388 4.10841 17.4388 4.10841 17.4387 4.10841C17.4387 4.10841 17.4386 4.10841 17.4386 4.10841C17.4385 4.10841 17.4385 4.10841 17.4384 4.10841C17.4384 4.10841 17.4383 4.10841 17.4383 4.10841C17.4382 4.10841 17.4382 4.10841 17.4381 4.10841C17.4381 4.10841 17.438 4.10841 17.438 4.10841C17.4379 4.10841 17.4379 4.10841 17.4378 4.10841C17.4378 4.10841 17.4377 4.10841 17.4377 4.10841C17.4376 4.10841 17.4376 4.10841 17.4375 4.10841C17.4375 4.10841 17.4374 4.10841 17.4374 4.10841C17.4373 4.10841 17.4373 4.10841 17.4372 4.10841C17.4372 4.10841 17.4371 4.10841 17.4371 4.10841C17.437 4.10841 17.437 4.10841 17.4369 4.10841C17.4369 4.10841 17.4369 4.10841 17.4368 4.10841C17.4368 4.10841 17.4367 4.10841 17.4367 4.10841C17.4366 4.10841 17.4366 4.10841 17.4365 4.10841C17.4365 4.10841 17.4364 4.10841 17.4364 4.10841C17.4363 4.10841 17.4363 4.10841 17.4362 4.10841C17.4362 4.10841 17.4361 4.10841 17.4361 4.10841C17.436 4.10841 17.436 4.10841 17.4359 4.10841C17.4359 4.10841 17.4358 4.10841 17.4358 4.10841C17.4357 4.10841 17.4357 4.10841 17.4356 4.10841C17.4356 4.10841 17.4355 4.10841 17.4355 4.10841C17.4354 4.10841 17.4354 4.10841 17.4353 4.10841C17.4353 4.10841 17.4352 4.10841 17.4352 4.10841C17.4351 4.10841 17.4351 4.10841 17.435 4.10841C17.435 4.10841 17.4349 4.10841 17.4349 4.10841C17.4348 4.10841 17.4348 4.10841 17.4348 4.10841C17.4347 4.10841 17.4347 4.10841 17.4346 4.10841C17.4346 4.10841 17.4345 4.10841 17.4345 4.10841C17.4344 4.10841 17.4344 4.10841 17.4343 4.10841C17.4343 4.10841 17.4342 4.10841 17.4342 4.10841C17.4341 4.10841 17.4341 4.10841 17.434 4.10841C17.434 4.10841 17.4339 4.10841 17.4339 4.10841C17.4338 4.10841 17.4338 4.10841 17.4337 4.10841C17.4337 4.10841 17.4336 4.10841 17.4336 4.10841C17.4335 4.10841 17.4335 4.10841 17.4334 4.10841C17.4334 4.10841 17.4333 4.10841 17.4333 4.10841C17.4332 4.10841 17.4332 4.10841 17.4331 4.10841C17.4331 4.10841 17.433 4.10841 17.433 4.10841C17.4329 4.10841 17.4329 4.10841 17.4328 4.10841C17.4328 4.10841 17.4328 4.10841 17.4327 4.10841C17.4327 4.10841 17.4326 4.10841 17.4326 4.10841C17.4325 4.10841 17.4325 4.10841 17.4324 4.10841V7.10841C17.4325 7.10841 17.4325 7.10841 17.4326 7.10841C17.4326 7.10841 17.4327 7.10841 17.4327 7.10841C17.4328 7.10841 17.4328 7.10841 17.4328 7.10841C17.4329 7.10841 17.4329 7.10841 17.433 7.10841C17.433 7.10841 17.4331 7.10841 17.4331 7.10841C17.4332 7.10841 17.4332 7.10841 17.4333 7.10841C17.4333 7.10841 17.4334 7.10841 17.4334 7.10841C17.4335 7.10841 17.4335 7.10841 17.4336 7.10841C17.4336 7.10841 17.4337 7.10841 17.4337 7.10841C17.4338 7.10841 17.4338 7.10841 17.4339 7.10841C17.4339 7.10841 17.434 7.10841 17.434 7.10841C17.4341 7.10841 17.4341 7.10841 17.4342 7.10841C17.4342 7.10841 17.4343 7.10841 17.4343 7.10841C17.4344 7.10841 17.4344 7.10841 17.4345 7.10841C17.4345 7.10841 17.4346 7.10841 17.4346 7.10841C17.4347 7.10841 17.4347 7.10841 17.4348 7.10841C17.4348 7.10841 17.4348 7.10841 17.4349 7.10841C17.4349 7.10841 17.435 7.10841 17.435 7.10841C17.4351 7.10841 17.4351 7.10841 17.4352 7.10841C17.4352 7.10841 17.4353 7.10841 17.4353 7.10841C17.4354 7.10841 17.4354 7.10841 17.4355 7.10841C17.4355 7.10841 17.4356 7.10841 17.4356 7.10841C17.4357 7.10841 17.4357 7.10841 17.4358 7.10841C17.4358 7.10841 17.4359 7.10841 17.4359 7.10841C17.436 7.10841 17.436 7.10841 17.4361 7.10841C17.4361 7.10841 17.4362 7.10841 17.4362 7.10841C17.4363 7.10841 17.4363 7.10841 17.4364 7.10841C17.4364 7.10841 17.4365 7.10841 17.4365 7.10841C17.4366 7.10841 17.4366 7.10841 17.4367 7.10841C17.4367 7.10841 17.4368 7.10841 17.4368 7.10841C17.4369 7.10841 17.4369 7.10841 17.4369 7.10841C17.437 7.10841 17.437 7.10841 17.4371 7.10841C17.4371 7.10841 17.4372 7.10841 17.4372 7.10841C17.4373 7.10841 17.4373 7.10841 17.4374 7.10841C17.4374 7.10841 17.4375 7.10841 17.4375 7.10841C17.4376 7.10841 17.4376 7.10841 17.4377 7.10841C17.4377 7.10841 17.4378 7.10841 17.4378 7.10841C17.4379 7.10841 17.4379 7.10841 17.438 7.10841C17.438 7.10841 17.4381 7.10841 17.4381 7.10841C17.4382 7.10841 17.4382 7.10841 17.4383 7.10841C17.4383 7.10841 17.4384 7.10841 17.4384 7.10841C17.4385 7.10841 17.4385 7.10841 17.4386 7.10841C17.4386 7.10841 17.4387 7.10841 17.4387 7.10841C17.4388 7.10841 17.4388 7.10841 17.4388 7.10841C17.4389 7.10841 17.4389 7.10841 17.439 7.10841C17.439 7.10841 17.4391 7.10841 17.4391 7.10841C17.4392 7.10841 17.4392 7.10841 17.4393 7.10841C17.4393 7.10841 17.4394 7.10841 17.4394 7.10841C17.4395 7.10841 17.4395 7.10841 17.4396 7.10841C17.4396 7.10841 17.4397 7.10841 17.4397 7.10841C17.4398 7.10841 17.4398 7.10841 17.4399 7.10841C17.4399 7.10841 17.44 7.10841 17.44 7.10841C17.4401 7.10841 17.4401 7.10841 17.4402 7.10841C17.4402 7.10841 17.4403 7.10841 17.4403 7.10841C17.4404 7.10841 17.4404 7.10841 17.4405 7.10841C17.4405 7.10841 17.4406 7.10841 17.4406 7.10841C17.4406 7.10841 17.4407 7.10841 17.4407 7.10841C17.4408 7.10841 17.4408 7.10841 17.4409 7.10841C17.4409 7.10841 17.441 7.10841 17.441 7.10841C17.4411 7.10841 17.4411 7.10841 17.4412 7.10841C17.4412 7.10841 17.4413 7.10841 17.4413 7.10841C17.4414 7.10841 17.4414 7.10841 17.4415 7.10841C17.4415 7.10841 17.4416 7.10841 17.4416 7.10841C17.4417 7.10841 17.4417 7.10841 17.4418 7.10841C17.4418 7.10841 17.4419 7.10841 17.4419 7.10841C17.442 7.10841 17.442 7.10841 17.4421 7.10841C17.4421 7.10841 17.4422 7.10841 17.4422 7.10841C17.4423 7.10841 17.4423 7.10841 17.4424 7.10841C17.4424 7.10841 17.4424 7.10841 17.4425 7.10841C17.4425 7.10841 17.4426 7.10841 17.4426 7.10841C17.4427 7.10841 17.4427 7.10841 17.4428 7.10841C17.4428 7.10841 17.4429 7.10841 17.4429 7.10841C17.443 7.10841 17.443 7.10841 17.4431 7.10841C17.4431 7.10841 17.4432 7.10841 17.4432 7.10841C17.4433 7.10841 17.4433 7.10841 17.4434 7.10841C17.4434 7.10841 17.4435 7.10841 17.4435 7.10841C17.4436 7.10841 17.4436 7.10841 17.4437 7.10841C17.4437 7.10841 17.4438 7.10841 17.4438 7.10841C17.4439 7.10841 17.4439 7.10841 17.444 7.10841C17.444 7.10841 17.444 7.10841 17.4441 7.10841C17.4441 7.10841 17.4442 7.10841 17.4442 7.10841C17.4443 7.10841 17.4443 7.10841 17.4444 7.10841C17.4444 7.10841 17.4445 7.10841 17.4445 7.10841C17.4446 7.10841 17.4446 7.10841 17.4447 7.10841C17.4447 7.10841 17.4448 7.10841 17.4448 7.10841C17.4449 7.10841 17.4449 7.10841 17.445 7.10841C17.445 7.10841 17.4451 7.10841 17.4451 7.10841C17.4452 7.10841 17.4452 7.10841 17.4453 7.10841C17.4453 7.10841 17.4454 7.10841 17.4454 7.10841C17.4455 7.10841 17.4455 7.10841 17.4455 7.10841C17.4456 7.10841 17.4456 7.10841 17.4457 7.10841C17.4457 7.10841 17.4458 7.10841 17.4458 7.10841C17.4459 7.10841 17.4459 7.10841 17.446 7.10841C17.446 7.10841 17.4461 7.10841 17.4461 7.10841C17.4462 7.10841 17.4462 7.10841 17.4463 7.10841C17.4463 7.10841 17.4464 7.10841 17.4464 7.10841C17.4465 7.10841 17.4465 7.10841 17.4466 7.10841C17.4466 7.10841 17.4467 7.10841 17.4467 7.10841C17.4468 7.10841 17.4468 7.10841 17.4469 7.10841C17.4469 7.10841 17.4469 7.10841 17.447 7.10841C17.447 7.10841 17.4471 7.10841 17.4471 7.10841C17.4472 7.10841 17.4472 7.10841 17.4473 7.10841C17.4473 7.10841 17.4474 7.10841 17.4474 7.10841C17.4475 7.10841 17.4475 7.10841 17.4476 7.10841C17.4476 7.10841 17.4477 7.10841 17.4477 7.10841C17.4478 7.10841 17.4478 7.10841 17.4479 7.10841C17.4479 7.10841 17.448 7.10841 17.448 7.10841C17.4481 7.10841 17.4481 7.10841 17.4482 7.10841C17.4482 7.10841 17.4482 7.10841 17.4483 7.10841C17.4483 7.10841 17.4484 7.10841 17.4484 7.10841C17.4485 7.10841 17.4485 7.10841 17.4486 7.10841C17.4486 7.10841 17.4487 7.10841 17.4487 7.10841C17.4488 7.10841 17.4488 7.10841 17.4489 7.10841C17.4489 7.10841 17.449 7.10841 17.449 7.10841C17.4491 7.10841 17.4491 7.10841 17.4492 7.10841C17.4492 7.10841 17.4493 7.10841 17.4493 7.10841C17.4494 7.10841 17.4494 7.10841 17.4494 7.10841C17.4495 7.10841 17.4495 7.10841 17.4496 7.10841C17.4496 7.10841 17.4497 7.10841 17.4497 7.10841C17.4498 7.10841 17.4498 7.10841 17.4499 7.10841C17.4499 7.10841 17.45 7.10841 17.45 7.10841C17.4501 7.10841 17.4501 7.10841 17.4502 7.10841C17.4502 7.10841 17.4503 7.10841 17.4503 7.10841C17.4504 7.10841 17.4504 7.10841 17.4505 7.10841C17.4505 7.10841 17.4506 7.10841 17.4506 7.10841C17.4506 7.10841 17.4507 7.10841 17.4507 7.10841C17.4508 7.10841 17.4508 7.10841 17.4509 7.10841C17.4509 7.10841 17.451 7.10841 17.451 7.10841C17.4511 7.10841 17.4511 7.10841 17.4512 7.10841C17.4512 7.10841 17.4513 7.10841 17.4513 7.10841C17.4514 7.10841 17.4514 7.10841 17.4515 7.10841C17.4515 7.10841 17.4516 7.10841 17.4516 7.10841C17.4516 7.10841 17.4517 7.10841 17.4517 7.10841C17.4518 7.10841 17.4518 7.10841 17.4519 7.10841C17.4519 7.10841 17.452 7.10841 17.452 7.10841C17.4521 7.10841 17.4521 7.10841 17.4522 7.10841C17.4522 7.10841 17.4523 7.10841 17.4523 7.10841C17.4524 7.10841 17.4524 7.10841 17.4525 7.10841C17.4525 7.10841 17.4526 7.10841 17.4526 7.10841C17.4527 7.10841 17.4527 7.10841 17.4527 7.10841C17.4528 7.10841 17.4528 7.10841 17.4529 7.10841C17.4529 7.10841 17.453 7.10841 17.453 7.10841C17.4531 7.10841 17.4531 7.10841 17.4532 7.10841C17.4532 7.10841 17.4533 7.10841 17.4533 7.10841C17.4534 7.10841 17.4534 7.10841 17.4535 7.10841C17.4535 7.10841 17.4536 7.10841 17.4536 7.10841C17.4536 7.10841 17.4537 7.10841 17.4537 7.10841C17.4538 7.10841 17.4538 7.10841 17.4539 7.10841C17.4539 7.10841 17.454 7.10841 17.454 7.10841C17.4541 7.10841 17.4541 7.10841 17.4542 7.10841C17.4542 7.10841 17.4543 7.10841 17.4543 7.10841C17.4544 7.10841 17.4544 7.10841 17.4545 7.10841C17.4545 7.10841 17.4546 7.10841 17.4546 7.10841C17.4546 7.10841 17.4547 7.10841 17.4547 7.10841C17.4548 7.10841 17.4548 7.10841 17.4549 7.10841C17.4549 7.10841 17.455 7.10841 17.455 7.10841C17.4551 7.10841 17.4551 7.10841 17.4552 7.10841C17.4552 7.10841 17.4553 7.10841 17.4553 7.10841C17.4554 7.10841 17.4554 7.10841 17.4555 7.10841C17.4555 7.10841 17.4555 7.10841 17.4556 7.10841C17.4556 7.10841 17.4557 7.10841 17.4557 7.10841C17.4558 7.10841 17.4558 7.10841 17.4559 7.10841C17.4559 7.10841 17.456 7.10841 17.456 7.10841C17.4561 7.10841 17.4561 7.10841 17.4562 7.10841C17.4562 7.10841 17.4563 7.10841 17.4563 7.10841C17.4563 7.10841 17.4564 7.10841 17.4564 7.10841C17.4565 7.10841 17.4565 7.10841 17.4566 7.10841C17.4566 7.10841 17.4567 7.10841 17.4567 7.10841C17.4568 7.10841 17.4568 7.10841 17.4569 7.10841C17.4569 7.10841 17.457 7.10841 17.457 7.10841C17.4571 7.10841 17.4571 7.10841 17.4571 7.10841C17.4572 7.10841 17.4572 7.10841 17.4573 7.10841C17.4573 7.10841 17.4574 7.10841 17.4574 7.10841C17.4575 7.10841 17.4575 7.10841 17.4576 7.10841C17.4576 7.10841 17.4577 7.10841 17.4577 7.10841C17.4578 7.10841 17.4578 7.10841 17.4579 7.10841C17.4579 7.10841 17.4579 7.10841 17.458 7.10841C17.458 7.10841 17.4581 7.10841 17.4581 7.10841C17.4582 7.10841 17.4582 7.10841 17.4583 7.10841C17.4583 7.10841 17.4584 7.10841 17.4584 7.10841C17.4585 7.10841 17.4585 7.10841 17.4586 7.10841C17.4586 7.10841 17.4586 7.10841 17.4587 7.10841C17.4587 7.10841 17.4588 7.10841 17.4588 7.10841C17.4589 7.10841 17.4589 7.10841 17.459 7.10841C17.459 7.10841 17.4591 7.10841 17.4591 7.10841C17.4592 7.10841 17.4592 7.10841 17.4593 7.10841C17.4593 7.10841 17.4593 7.10841 17.4594 7.10841C17.4594 7.10841 17.4595 7.10841 17.4595 7.10841C17.4596 7.10841 17.4596 7.10841 17.4597 7.10841C17.4597 7.10841 17.4598 7.10841 17.4598 7.10841C17.4599 7.10841 17.4599 7.10841 17.46 7.10841C17.46 7.10841 17.46 7.10841 17.4601 7.10841C17.4601 7.10841 17.4602 7.10841 17.4602 7.10841C17.4603 7.10841 17.4603 7.10841 17.4604 7.10841C17.4604 7.10841 17.4605 7.10841 17.4605 7.10841C17.4606 7.10841 17.4606 7.10841 17.4607 7.10841C17.4607 7.10841 17.4607 7.10841 17.4608 7.10841C17.4608 7.10841 17.4609 7.10841 17.4609 7.10841C17.461 7.10841 17.461 7.10841 17.4611 7.10841C17.4611 7.10841 17.4612 7.10841 17.4612 7.10841C17.4613 7.10841 17.4613 7.10841 17.4613 7.10841C17.4614 7.10841 17.4614 7.10841 17.4615 7.10841C17.4615 7.10841 17.4616 7.10841 17.4616 7.10841C17.4617 7.10841 17.4617 7.10841 17.4618 7.10841C17.4618 7.10841 17.4619 7.10841 17.4619 7.10841C17.4619 7.10841 17.462 7.10841 17.462 7.10841C17.4621 7.10841 17.4621 7.10841 17.4622 7.10841C17.4622 7.10841 17.4623 7.10841 17.4623 7.10841C17.4624 7.10841 17.4624 7.10841 17.4625 7.10841C17.4625 7.10841 17.4625 7.10841 17.4626 7.10841C17.4626 7.10841 17.4627 7.10841 17.4627 7.10841C17.4628 7.10841 17.4628 7.10841 17.4629 7.10841C17.4629 7.10841 17.463 7.10841 17.463 7.10841C17.4631 7.10841 17.4631 7.10841 17.4631 7.10841C17.4632 7.10841 17.4632 7.10841 17.4633 7.10841C17.4633 7.10841 17.4634 7.10841 17.4634 7.10841C17.4635 7.10841 17.4635 7.10841 17.4636 7.10841C17.4636 7.10841 17.4637 7.10841 17.4637 7.10841C17.4637 7.10841 17.4638 7.10841 17.4638 7.10841C17.4639 7.10841 17.4639 7.10841 17.464 7.10841C17.464 7.10841 17.4641 7.10841 17.4641 7.10841C17.4642 7.10841 17.4642 7.10841 17.4642 7.10841C17.4643 7.10841 17.4643 7.10841 17.4644 7.10841C17.4644 7.10841 17.4645 7.10841 17.4645 7.10841C17.4646 7.10841 17.4646 7.10841 17.4647 7.10841C17.4647 7.10841 17.4648 7.10841 17.4648 7.10841C17.4648 7.10841 17.4649 7.10841 17.4649 7.10841C17.465 7.10841 17.465 7.10841 17.4651 7.10841C17.4651 7.10841 17.4652 7.10841 17.4652 7.10841C17.4653 7.10841 17.4653 7.10841 17.4653 7.10841C17.4654 7.10841 17.4654 7.10841 17.4655 7.10841C17.4655 7.10841 17.4656 7.10841 17.4656 7.10841C17.4657 7.10841 17.4657 7.10841 17.4658 7.10841C17.4658 7.10841 17.4658 7.10841 17.4659 7.10841C17.4659 7.10841 17.466 7.10841 17.466 7.10841C17.4661 7.10841 17.4661 7.10841 17.4662 7.10841C17.4662 7.10841 17.4663 7.10841 17.4663 7.10841C17.4663 7.10841 17.4664 7.10841 17.4664 7.10841C17.4665 7.10841 17.4665 7.10841 17.4666 7.10841C17.4666 7.10841 17.4667 7.10841 17.4667 7.10841C17.4668 7.10841 17.4668 7.10841 17.4668 7.10841C17.4669 7.10841 17.4669 7.10841 17.467 7.10841C17.467 7.10841 17.4671 7.10841 17.4671 7.10841C17.4672 7.10841 17.4672 7.10841 17.4672 7.10841C17.4673 7.10841 17.4673 7.10841 17.4674 7.10841C17.4674 7.10841 17.4675 7.10841 17.4675 7.10841C17.4676 7.10841 17.4676 7.10841 17.4677 7.10841C17.4677 7.10841 17.4677 7.10841 17.4678 7.10841C17.4678 7.10841 17.4679 7.10841 17.4679 7.10841C17.468 7.10841 17.468 7.10841 17.4681 7.10841C17.4681 7.10841 17.4681 7.10841 17.4682 7.10841C17.4682 7.10841 17.4683 7.10841 17.4683 7.10841C17.4684 7.10841 17.4684 7.10841 17.4685 7.10841C17.4685 7.10841 17.4686 7.10841 17.4686 7.10841C17.4686 7.10841 17.4687 7.10841 17.4687 7.10841C17.4688 7.10841 17.4688 7.10841 17.4689 7.10841C17.4689 7.10841 17.469 7.10841 17.469 7.10841C17.469 7.10841 17.4691 7.10841 17.4691 7.10841C17.4692 7.10841 17.4692 7.10841 17.4693 7.10841C17.4693 7.10841 17.4694 7.10841 17.4694 7.10841C17.4694 7.10841 17.4695 7.10841 17.4695 7.10841C17.4696 7.10841 17.4696 7.10841 17.4697 7.10841C17.4697 7.10841 17.4698 7.10841 17.4698 7.10841C17.4698 7.10841 17.4699 7.10841 17.4699 7.10841C17.47 7.10841 17.47 7.10841 17.4701 7.10841C17.4701 7.10841 17.4702 7.10841 17.4702 7.10841C17.4702 7.10841 17.4703 7.10841 17.4703 7.10841C17.4704 7.10841 17.4704 7.10841 17.4705 7.10841C17.4705 7.10841 17.4706 7.10841 17.4706 7.10841C17.4706 7.10841 17.4707 7.10841 17.4707 7.10841C17.4708 7.10841 17.4708 7.10841 17.4709 7.10841C17.4709 7.10841 17.471 7.10841 17.471 7.10841C17.471 7.10841 17.4711 7.10841 17.4711 7.10841C17.4712 7.10841 17.4712 7.10841 17.4713 7.10841C17.4713 7.10841 17.4714 7.10841 17.4714 7.10841C17.4714 7.10841 17.4715 7.10841 17.4715 7.10841C17.4716 7.10841 17.4716 7.10841 17.4717 7.10841C17.4717 7.10841 17.4718 7.10841 17.4718 7.10841C17.4718 7.10841 17.4719 7.10841 17.4719 7.10841C17.472 7.10841 17.472 7.10841 17.4721 7.10841C17.4721 7.10841 17.4721 7.10841 17.4722 7.10841C17.4722 7.10841 17.4723 7.10841 17.4723 7.10841C17.4724 7.10841 17.4724 7.10841 17.4725 7.10841C17.4725 7.10841 17.4725 7.10841 17.4726 7.10841C17.4726 7.10841 17.4727 7.10841 17.4727 7.10841C17.4728 7.10841 17.4728 7.10841 17.4729 7.10841C17.4729 7.10841 17.4729 7.10841 17.473 7.10841C17.473 7.10841 17.4731 7.10841 17.4731 7.10841C17.4732 7.10841 17.4732 7.10841 17.4732 7.10841C17.4733 7.10841 17.4733 7.10841 17.4734 7.10841C17.4734 7.10841 17.4735 7.10841 17.4735 7.10841C17.4735 7.10841 17.4736 7.10841 17.4736 7.10841C17.4737 7.10841 17.4737 7.10841 17.4738 7.10841C17.4738 7.10841 17.4739 7.10841 17.4739 7.10841C17.4739 7.10841 17.474 7.10841 17.474 7.10841C17.4741 7.10841 17.4741 7.10841 17.4742 7.10841C17.4742 7.10841 17.4742 7.10841 17.4743 7.10841C17.4743 7.10841 17.4744 7.10841 17.4744 7.10841C17.4745 7.10841 17.4745 7.10841 17.4745 7.10841C17.4746 7.10841 17.4746 7.10841 17.4747 7.10841C17.4747 7.10841 17.4748 7.10841 17.4748 7.10841C17.4749 7.10841 17.4749 7.10841 17.4749 7.10841C17.475 7.10841 17.475 7.10841 17.4751 7.10841C17.4751 7.10841 17.4752 7.10841 17.4752 7.10841C17.4752 7.10841 17.4753 7.10841 17.4753 7.10841C17.4754 7.10841 17.4754 7.10841 17.4755 7.10841C17.4755 7.10841 17.4755 7.10841 17.4756 7.10841C17.4756 7.10841 17.4757 7.10841 17.4757 7.10841C17.4758 7.10841 17.4758 7.10841 17.4758 7.10841C17.4759 7.10841 17.4759 7.10841 17.476 7.10841C17.476 7.10841 17.4761 7.10841 17.4761 7.10841C17.4761 7.10841 17.4762 7.10841 17.4762 7.10841C17.4763 7.10841 17.4763 7.10841 17.4764 7.10841C17.4764 7.10841 17.4764 7.10841 17.4765 7.10841C17.4765 7.10841 17.4766 7.10841 17.4766 7.10841C17.4767 7.10841 17.4767 7.10841 17.4767 7.10841C17.4768 7.10841 17.4768 7.10841 17.4769 7.10841C17.4769 7.10841 17.477 7.10841 17.477 7.10841C17.477 7.10841 17.4771 7.10841 17.4771 7.10841C17.4772 7.10841 17.4772 7.10841 17.4772 7.10841C17.4773 7.10841 17.4773 7.10841 17.4774 7.10841C17.4774 7.10841 17.4775 7.10841 17.4775 7.10841C17.4775 7.10841 17.4776 7.10841 17.4776 7.10841C17.4777 7.10841 17.4777 7.10841 17.4778 7.10841C17.4778 7.10841 17.4778 7.10841 17.4779 7.10841C17.4779 7.10841 17.478 7.10841 17.478 7.10841C17.4781 7.10841 17.4781 7.10841 17.4781 7.10841C17.4782 7.10841 17.4782 7.10841 17.4783 7.10841C17.4783 7.10841 17.4783 7.10841 17.4784 7.10841C17.4784 7.10841 17.4785 7.10841 17.4785 7.10841C17.4786 7.10841 17.4786 7.10841 17.4786 7.10841C17.4787 7.10841 17.4787 7.10841 17.4788 7.10841C17.4788 7.10841 17.4789 7.10841 17.4789 7.10841C17.4789 7.10841 17.479 7.10841 17.479 7.10841C17.4791 7.10841 17.4791 7.10841 17.4791 7.10841C17.4792 7.10841 17.4792 7.10841 17.4793 7.10841C17.4793 7.10841 17.4794 7.10841 17.4794 7.10841C17.4794 7.10841 17.4795 7.10841 17.4795 7.10841C17.4796 7.10841 17.4796 7.10841 17.4796 7.10841C17.4797 7.10841 17.4797 7.10841 17.4798 7.10841C17.4798 7.10841 17.4799 7.10841 17.4799 7.10841C17.4799 7.10841 17.48 7.10841 17.48 7.10841C17.4801 7.10841 17.4801 7.10841 17.4801 7.10841C17.4802 7.10841 17.4802 7.10841 17.4803 7.10841C17.4803 7.10841 17.4804 7.10841 17.4804 7.10841C17.4804 7.10841 17.4805 7.10841 17.4805 7.10841C17.4806 7.10841 17.4806 7.10841 17.4806 7.10841C17.4807 7.10841 17.4807 7.10841 17.4808 7.10841C17.4808 7.10841 17.4809 7.10841 17.4809 7.10841C17.4809 7.10841 17.481 7.10841 17.481 7.10841C17.4811 7.10841 17.4811 7.10841 17.4811 7.10841C17.4812 7.10841 17.4812 7.10841 17.4813 7.10841C17.4813 7.10841 17.4813 7.10841 17.4814 7.10841C17.4814 7.10841 17.4815 7.10841 17.4815 7.10841C17.4816 7.10841 17.4816 7.10841 17.4816 7.10841C17.4817 7.10841 17.4817 7.10841 17.4818 7.10841C17.4818 7.10841 17.4818 7.10841 17.4819 7.10841C17.4819 7.10841 17.482 7.10841 17.482 7.10841C17.482 7.10841 17.4821 7.10841 17.4821 7.10841C17.4822 7.10841 17.4822 7.10841 17.4822 7.10841C17.4823 7.10841 17.4823 7.10841 17.4824 7.10841C17.4824 7.10841 17.4824 7.10841 17.4825 7.10841C17.4825 7.10841 17.4826 7.10841 17.4826 7.10841C17.4827 7.10841 17.4827 7.10841 17.4827 7.10841C17.4828 7.10841 17.4828 7.10841 17.4829 7.10841C17.4829 7.10841 17.4829 7.10841 17.483 7.10841C17.483 7.10841 17.4831 7.10841 17.4831 7.10841C17.4831 7.10841 17.4832 7.10841 17.4832 7.10841C17.4833 7.10841 17.4833 7.10841 17.4833 7.10841C17.4834 7.10841 17.4834 7.10841 17.4835 7.10841C17.4835 7.10841 17.4835 7.10841 17.4836 7.10841C17.4836 7.10841 17.4837 7.10841 17.4837 7.10841C17.4837 7.10841 17.4838 7.10841 17.4838 7.10841C17.4839 7.10841 17.4839 7.10841 17.4839 7.10841C17.484 7.10841 17.484 7.10841 17.4841 7.10841C17.4841 7.10841 17.4841 7.10841 17.4842 7.10841C17.4842 7.10841 17.4843 7.10841 17.4843 7.10841C17.4843 7.10841 17.4844 7.10841 17.4844 7.10841C17.4845 7.10841 17.4845 7.10841 17.4845 7.10841C17.4846 7.10841 17.4846 7.10841 17.4847 7.10841C17.4847 7.10841 17.4847 7.10841 17.4848 7.10841C17.4848 7.10841 17.4849 7.10841 17.4849 7.10841C17.4849 7.10841 17.485 7.10841 17.485 7.10841C17.4851 7.10841 17.4851 7.10841 17.4851 7.10841C17.4852 7.10841 17.4852 7.10841 17.4853 7.10841C17.4853 7.10841 17.4853 7.10841 17.4854 7.10841C17.4854 7.10841 17.4855 7.10841 17.4855 7.10841C17.4855 7.10841 17.4856 7.10841 17.4856 7.10841C17.4857 7.10841 17.4857 7.10841 17.4857 7.10841C17.4858 7.10841 17.4858 7.10841 17.4859 7.10841C17.4859 7.10841 17.4859 7.10841 17.486 7.10841C17.486 7.10841 17.4861 7.10841 17.4861 7.10841C17.4861 7.10841 17.4862 7.10841 17.4862 7.10841C17.4862 7.10841 17.4863 7.10841 17.4863 7.10841C17.4864 7.10841 17.4864 7.10841 17.4864 7.10841C17.4865 7.10841 17.4865 7.10841 17.4866 7.10841C17.4866 7.10841 17.4866 7.10841 17.4867 7.10841C17.4867 7.10841 17.4868 7.10841 17.4868 7.10841C17.4868 7.10841 17.4869 7.10841 17.4869 7.10841C17.487 7.10841 17.487 7.10841 17.487 7.10841C17.4871 7.10841 17.4871 7.10841 17.4871 7.10841C17.4872 7.10841 17.4872 7.10841 17.4873 7.10841C17.4873 7.10841 17.4873 7.10841 17.4874 7.10841C17.4874 7.10841 17.4875 7.10841 17.4875 7.10841C17.4875 7.10841 17.4876 7.10841 17.4876 7.10841C17.4876 7.10841 17.4877 7.10841 17.4877 7.10841C17.4878 7.10841 17.4878 7.10841 17.4878 7.10841C17.4879 7.10841 17.4879 7.10841 17.488 7.10841C17.488 7.10841 17.488 7.10841 17.4881 7.10841C17.4881 7.10841 17.4881 7.10841 17.4882 7.10841C17.4882 7.10841 17.4883 7.10841 17.4883 7.10841C17.4883 7.10841 17.4884 7.10841 17.4884 7.10841C17.4885 7.10841 17.4885 7.10841 17.4885 7.10841C17.4886 7.10841 17.4886 7.10841 17.4886 7.10841C17.4887 7.10841 17.4887 7.10841 17.4888 7.10841C17.4888 7.10841 17.4888 7.10841 17.4889 7.10841C17.4889 7.10841 17.489 7.10841 17.489 7.10841C17.489 7.10841 17.4891 7.10841 17.4891 7.10841C17.4891 7.10841 17.4892 7.10841 17.4892 7.10841C17.4893 7.10841 17.4893 7.10841 17.4893 7.10841C17.4894 7.10841 17.4894 7.10841 17.4894 7.10841C17.4895 7.10841 17.4895 7.10841 17.4896 7.10841C17.4896 7.10841 17.4896 7.10841 17.4897 7.10841C17.4897 7.10841 17.4897 7.10841 17.4898 7.10841C17.4898 7.10841 17.4899 7.10841 17.4899 7.10841C17.4899 7.10841 17.49 7.10841 17.49 7.10841C17.49 7.10841 17.4901 7.10841 17.4901 7.10841C17.4902 7.10841 17.4902 7.10841 17.4902 7.10841C17.4903 7.10841 17.4903 7.10841 17.4903 7.10841C17.4904 7.10841 17.4904 7.10841 17.4905 7.10841C17.4905 7.10841 17.4905 7.10841 17.4906 7.10841C17.4906 7.10841 17.4906 7.10841 17.4907 7.10841C17.4907 7.10841 17.4908 7.10841 17.4908 7.10841C17.4908 7.10841 17.4909 7.10841 17.4909 7.10841C17.4909 7.10841 17.491 7.10841 17.491 7.10841C17.4911 7.10841 17.4911 7.10841 17.4911 7.10841C17.4912 7.10841 17.4912 7.10841 17.4912 7.10841C17.4913 7.10841 17.4913 7.10841 17.4914 7.10841C17.4914 7.10841 17.4914 7.10841 17.4915 7.10841C17.4915 7.10841 17.4915 7.10841 17.4916 7.10841C17.4916 7.10841 17.4916 7.10841 17.4917 7.10841C17.4917 7.10841 17.4918 7.10841 17.4918 7.10841C17.4918 7.10841 17.4919 7.10841 17.4919 7.10841C17.4919 7.10841 17.492 7.10841 17.492 7.10841C17.492 7.10841 17.4921 7.10841 17.4921 7.10841C17.4922 7.10841 17.4922 7.10841 17.4922 7.10841C17.4923 7.10841 17.4923 7.10841 17.4923 7.10841C17.4924 7.10841 17.4924 7.10841 17.4925 7.10841C17.4925 7.10841 17.4925 7.10841 17.4926 7.10841C17.4926 7.10841 17.4926 7.10841 17.4927 7.10841C17.4927 7.10841 17.4927 7.10841 17.4928 7.10841C17.4928 7.10841 17.4928 7.10841 17.4929 7.10841C17.4929 7.10841 17.493 7.10841 17.493 7.10841C17.493 7.10841 17.4931 7.10841 17.4931 7.10841C17.4931 7.10841 17.4932 7.10841 17.4932 7.10841C17.4932 7.10841 17.4933 7.10841 17.4933 7.10841C17.4934 7.10841 17.4934 7.10841 17.4934 7.10841C17.4935 7.10841 17.4935 7.10841 17.4935 7.10841C17.4936 7.10841 17.4936 7.10841 17.4936 7.10841C17.4937 7.10841 17.4937 7.10841 17.4937 7.10841C17.4938 7.10841 17.4938 7.10841 17.4939 7.10841C17.4939 7.10841 17.4939 7.10841 17.494 7.10841C17.494 7.10841 17.494 7.10841 17.4941 7.10841C17.4941 7.10841 17.4941 7.10841 17.4942 7.10841C17.4942 7.10841 17.4942 7.10841 17.4943 7.10841C17.4943 7.10841 17.4944 7.10841 17.4944 7.10841C17.4944 7.10841 17.4945 7.10841 17.4945 7.10841C17.4945 7.10841 17.4946 7.10841 17.4946 7.10841C17.4946 7.10841 17.4947 7.10841 17.4947 7.10841C17.4947 7.10841 17.4948 7.10841 17.4948 7.10841C17.4948 7.10841 17.4949 7.10841 17.4949 7.10841C17.495 7.10841 17.495 7.10841 17.495 7.10841C17.4951 7.10841 17.4951 7.10841 17.4951 7.10841C17.4952 7.10841 17.4952 7.10841 17.4952 7.10841C17.4953 7.10841 17.4953 7.10841 17.4953 7.10841C17.4954 7.10841 17.4954 7.10841 17.4954 7.10841C17.4955 7.10841 17.4955 7.10841 17.4955 7.10841C17.4956 7.10841 17.4956 7.10841 17.4956 7.10841C17.4957 7.10841 17.4957 7.10841 17.4958 7.10841C17.4958 7.10841 17.4958 7.10841 17.4959 7.10841C17.4959 7.10841 17.4959 7.10841 17.496 7.10841C17.496 7.10841 17.496 7.10841 17.4961 7.10841C17.4961 7.10841 17.4961 7.10841 17.4962 7.10841C17.4962 7.10841 17.4962 7.10841 17.4963 7.10841C17.4963 7.10841 17.4963 7.10841 17.4964 7.10841C17.4964 7.10841 17.4964 7.10841 17.4965 7.10841C17.4965 7.10841 17.4965 7.10841 17.4966 7.10841C17.4966 7.10841 17.4966 7.10841 17.4967 7.10841C17.4967 7.10841 17.4967 7.10841 17.4968 7.10841C17.4968 7.10841 17.4968 7.10841 17.4969 7.10841C17.4969 7.10841 17.4969 7.10841 17.497 7.10841C17.497 7.10841 17.4971 7.10841 17.4971 7.10841C17.4971 7.10841 17.4972 7.10841 17.4972 7.10841C17.4972 7.10841 17.4973 7.10841 17.4973 7.10841C17.4973 7.10841 17.4974 7.10841 17.4974 7.10841C17.4974 7.10841 17.4975 7.10841 17.4975 7.10841C17.4975 7.10841 17.4976 7.10841 17.4976 7.10841C17.4976 7.10841 17.4977 7.10841 17.4977 7.10841C17.4977 7.10841 17.4978 7.10841 17.4978 7.10841C17.4978 7.10841 17.4979 7.10841 17.4979 7.10841C17.4979 7.10841 17.498 7.10841 17.498 7.10841C17.498 7.10841 17.4981 7.10841 17.4981 7.10841C17.4981 7.10841 17.4982 7.10841 17.4982 7.10841C17.4982 7.10841 17.4983 7.10841 17.4983 7.10841C17.4983 7.10841 17.4984 7.10841 17.4984 7.10841C17.4984 7.10841 17.4985 7.10841 17.4985 7.10841C17.4985 7.10841 17.4986 7.10841 17.4986 7.10841C17.4986 7.10841 17.4987 7.10841 17.4987 7.10841C17.4987 7.10841 17.4987 7.10841 17.4988 7.10841C17.4988 7.10841 17.4988 7.10841 17.4989 7.10841C17.4989 7.10841 17.4989 7.10841 17.499 7.10841C17.499 7.10841 17.499 7.10841 17.4991 7.10841V4.10841ZM17.5819 4.11589C13.1165 3.6685 8.60813 3.49402 4.11451 3.94939L4.41697 6.9341C8.64002 6.50615 12.9317 6.665 17.2829 7.10094L17.5819 4.11589ZM4.11939 3.94891L2.41939 4.11557L2.7121 7.10126L4.4121 6.93459L4.11939 3.94891ZM2.42353 4.11517C2.88234 4.07148 3.3206 4.40904 3.36732 4.89953L0.380832 5.18396C0.494212 6.37445 1.54914 7.21202 2.70796 7.10166L2.42353 4.11517ZM3.36732 4.89953C3.41206 5.36933 3.06311 5.804 2.57806 5.85133L2.28676 2.8655C1.11837 2.97949 0.269423 4.01416 0.380832 5.18396L3.36732 4.89953ZM2.57877 5.85126L4.27877 5.68459L3.98605 2.69891L2.28605 2.86557L2.57877 5.85126ZM4.28389 5.68408C8.58101 5.24791 12.9642 5.41481 17.4109 5.85124L17.7039 2.86559C13.1506 2.41869 8.55048 2.23559 3.98093 2.69942L4.28389 5.68408ZM17.4118 5.85133C16.917 5.80306 16.5769 5.36696 16.6228 4.8961L19.6087 5.1874C19.7213 4.0332 18.8812 2.98044 17.7031 2.8655L17.4118 5.85133ZM16.6202 4.9267C16.6575 4.44158 17.061 4.10841 17.4991 4.10841V7.10841C18.5705 7.10841 19.524 6.29192 19.6113 5.1568L16.6202 4.9267ZM7.08241 3.26675C7.0514 3.26675 7.15023 3.26394 7.26826 3.28755L6.67989 6.22928C6.88125 6.26956 7.04675 6.26675 7.08241 6.26675V3.26675ZM7.23265 3.28087C7.69694 3.36212 8.03096 3.79935 7.94329 4.30032L4.9882 3.78318C4.78386 4.95081 5.58454 6.03804 6.7155 6.23596L7.23265 3.28087ZM7.94503 4.29018L8.12836 3.19851L5.16979 2.70165L4.98646 3.79332L7.94503 4.29018ZM8.12867 3.19668C8.16426 2.98313 8.1867 2.86039 8.21939 2.75365C8.24861 2.65823 8.26979 2.63501 8.26606 2.63962C8.25352 2.65511 8.25056 2.6443 8.3091 2.62099C8.38189 2.59201 8.55957 2.54175 8.90741 2.54175V-0.458252C7.64068 -0.458252 6.61001 -0.082786 5.93417 0.75221C5.34186 1.48401 5.22598 2.36451 5.16948 2.70348L8.12867 3.19668ZM8.90741 2.54175H11.0907V-0.458252H8.90741V2.54175ZM11.0907 2.54175C11.4353 2.54175 11.6105 2.59305 11.6816 2.6221C11.7159 2.6361 11.7295 2.64625 11.7311 2.64741C11.7324 2.64837 11.7324 2.64847 11.7317 2.64778C11.731 2.64711 11.7306 2.64667 11.7308 2.6469C11.7309 2.64707 11.7364 2.65387 11.7456 2.67261C11.7551 2.69215 11.7678 2.72302 11.782 2.76986C11.814 2.87572 11.8352 2.99492 11.8686 3.19979L14.8295 2.71704C14.7763 2.3903 14.6638 1.5143 14.0778 0.778263C13.4084 -0.0624685 12.3774 -0.458252 11.0907 -0.458252V2.54175ZM11.8701 3.2087L12.0534 4.29203L15.0114 3.79146L14.828 2.70813L11.8701 3.2087ZM12.0538 4.29419C11.9744 3.82924 12.2823 3.3529 12.8016 3.27501L13.2466 6.24182C14.4325 6.06393 15.2071 4.93759 15.011 3.7893L12.0538 4.29419ZM12.7716 3.27981C13.2366 3.20043 13.7129 3.50832 13.7908 4.02757L10.824 4.47259C11.0019 5.65851 12.1282 6.43307 13.2765 6.23702L12.7716 3.27981ZM13.7864 3.99979L13.603 2.91646L10.6451 3.41704L10.8284 4.50037L13.7864 3.99979ZM13.605 2.92843C13.5808 2.77767 13.5438 2.53513 13.4824 2.3177C13.416 2.08249 13.2776 1.70574 12.9381 1.37963C12.5902 1.04559 12.1916 0.916671 11.8979 0.860365C11.6228 0.807638 11.3372 0.800081 11.0991 0.800081V3.80008C11.1917 3.80008 11.2555 3.80201 11.2993 3.80472C11.3442 3.8075 11.3509 3.81013 11.3331 3.80672C11.2961 3.79964 11.0767 3.75145 10.8601 3.54345C10.6518 3.34338 10.5967 3.13798 10.5954 3.13324C10.5939 3.12777 10.5982 3.14226 10.6079 3.19464C10.6176 3.24717 10.6279 3.31034 10.6431 3.40506L13.605 2.92843ZM11.0991 0.800081H8.91574V3.80008H11.0991V0.800081ZM8.91574 0.800081C8.68606 0.800081 8.40656 0.805685 8.14 0.852694C7.85663 0.902667 7.45108 1.02161 7.09383 1.356C6.74368 1.68374 6.60348 2.06724 6.53719 2.29911C6.47585 2.51368 6.43721 2.75721 6.4116 2.90912L9.36988 3.40771C9.38638 3.3098 9.39741 3.24453 9.40789 3.18957C9.41834 3.13477 9.42295 3.11911 9.42164 3.12371C9.42124 3.12511 9.36385 3.34038 9.1439 3.54625C8.91686 3.75876 8.68892 3.80218 8.66101 3.8071C8.6462 3.80972 8.65584 3.80699 8.70472 3.80433C8.75229 3.80174 8.8194 3.80008 8.91574 3.80008V0.800081ZM6.41368 2.89709L6.22201 3.98042L9.17614 4.50307L9.3678 3.41974L6.41368 2.89709ZM6.21842 4.00164C6.28894 3.56673 6.664 3.26675 7.08241 3.26675V6.26675C8.10081 6.26675 9.00921 5.53344 9.17973 4.48185L6.21842 4.00164ZM12.6741 17.4584H7.32408V20.4584H12.6741V17.4584ZM7.32408 17.4584C6.13651 17.4584 5.94539 17.1413 5.92918 17.1186C5.81397 16.9577 5.75573 16.6825 5.70369 15.9446L2.71112 16.1556C2.75076 16.7176 2.79668 17.8967 3.4898 18.8649C4.28193 19.9714 5.60331 20.4584 7.32408 20.4584V17.4584ZM5.70429 15.9535L5.16263 7.56179L2.16886 7.75504L2.71052 16.1467L5.70429 15.9535ZM5.16174 7.54895C5.19903 8.05852 4.81785 8.45414 4.35854 8.48775L4.13961 5.49575C2.99697 5.57936 2.08246 6.57497 2.16974 7.76788L5.16174 7.54895ZM4.32042 8.49005C3.87013 8.51149 3.45501 8.16653 3.41974 7.68455L6.41174 7.46562C6.32648 6.3003 5.32802 5.43867 4.17773 5.49345L4.32042 8.49005ZM3.41886 7.6717L3.96052 16.0634L6.95429 15.8701L6.41263 7.47846L3.41886 7.6717ZM3.96132 16.075C3.98206 16.3615 4.00627 16.7293 4.07032 17.0591C4.13749 17.4051 4.27525 17.8713 4.63311 18.2888C5.36068 19.1376 6.48303 19.2084 7.32408 19.2084V16.2084C7.13843 16.2084 6.99523 16.202 6.88524 16.1919C6.77431 16.1816 6.71245 16.169 6.68503 16.1619C6.65866 16.1551 6.68153 16.1579 6.7305 16.1856C6.78436 16.216 6.85018 16.2656 6.91088 16.3364C7.03123 16.4768 7.03462 16.5867 7.01533 16.4874C7.00638 16.4413 6.99626 16.3709 6.98542 16.2597C6.9745 16.1477 6.9653 16.0216 6.9535 15.8585L3.96132 16.075ZM7.32408 19.2084H12.6741V16.2084H7.32408V19.2084ZM12.6741 19.2084C13.5163 19.2084 14.6429 19.1386 15.3713 18.2888C15.731 17.8691 15.8679 17.4003 15.9338 17.0525C15.9966 16.721 16.0186 16.3523 16.0375 16.0652L13.044 15.8683C13.0333 16.031 13.0249 16.1569 13.0147 16.2683C13.0045 16.379 12.9948 16.4488 12.9862 16.494C12.9678 16.5915 12.9713 16.479 13.0935 16.3364C13.1549 16.2647 13.2213 16.215 13.2752 16.1847C13.324 16.1571 13.3465 16.1545 13.3193 16.1615C13.2911 16.1688 13.2283 16.1815 13.1163 16.1918C13.0053 16.202 12.8609 16.2084 12.6741 16.2084V19.2084ZM16.0376 16.0634L16.5793 7.6717L13.5855 7.47846L13.0439 15.8701L16.0376 16.0634ZM16.5784 7.68454C16.5423 8.17748 16.1248 8.51186 15.676 8.48997L15.8222 5.49353C14.69 5.4383 13.6725 6.28935 13.5864 7.46562L16.5784 7.68454ZM15.6396 8.48775C15.1911 8.45493 14.7998 8.06142 14.8362 7.55155L17.8286 7.76528C17.915 6.55541 16.9904 5.57857 15.8585 5.49575L15.6396 8.48775ZM14.8355 7.56179L14.2939 15.9535L17.2876 16.1467L17.8293 7.75504L14.8355 7.56179ZM14.2945 15.9446C14.2424 16.6825 14.1842 16.9577 14.069 17.1186C14.0528 17.1413 13.8616 17.4584 12.6741 17.4584V20.4584C14.3948 20.4584 15.7162 19.9714 16.5083 18.8649C17.2015 17.8967 17.2474 16.7176 17.287 16.1556L14.2945 15.9446ZM11.3824 12.8751H8.60741V15.8751H11.3824V12.8751ZM8.60741 12.8751C9.09417 12.8751 9.48241 13.2633 9.48241 13.7501H6.48241C6.48241 14.9202 7.43731 15.8751 8.60741 15.8751V12.8751ZM9.48241 13.7501C9.48241 14.2368 9.09417 14.6251 8.60741 14.6251V11.6251C7.43731 11.6251 6.48241 12.58 6.48241 13.7501H9.48241ZM8.60741 14.6251H11.3824V11.6251H8.60741V14.6251ZM11.3824 14.6251C10.8956 14.6251 10.5074 14.2368 10.5074 13.7501H13.5074C13.5074 12.58 12.5525 11.6251 11.3824 11.6251V14.6251ZM10.5074 13.7501C10.5074 13.2633 10.8956 12.8751 11.3824 12.8751V15.8751C12.5525 15.8751 13.5074 14.9202 13.5074 13.7501H10.5074ZM12.0824 9.54175H7.91574V12.5417H12.0824V9.54175ZM7.91574 9.54175C8.4025 9.54175 8.79074 9.92999 8.79074 10.4167H5.79074C5.79074 11.5868 6.74565 12.5417 7.91574 12.5417V9.54175ZM8.79074 10.4167C8.79074 10.9035 8.4025 11.2917 7.91574 11.2917V8.29175C6.74565 8.29175 5.79074 9.24665 5.79074 10.4167H8.79074ZM7.91574 11.2917H12.0824V8.29175H7.91574V11.2917ZM12.0824 11.2917C11.5956 11.2917 11.2074 10.9035 11.2074 10.4167H14.2074C14.2074 9.24665 13.2525 8.29175 12.0824 8.29175V11.2917ZM11.2074 10.4167C11.2074 9.92999 11.5956 9.54175 12.0824 9.54175V12.5417C13.2525 12.5417 14.2074 11.5868 14.2074 10.4167H11.2074Z" fill="#F55157" mask="url(#path-1-inside-1_7016_16744)"/>
</svg>
