<svg width="24" height="24" viewBox="0 0 24 24" fill="none" xmlns="http://www.w3.org/2000/svg">
<path d="M6.47514 9.96463L6.47525 9.96444L9.41379 4.67704C9.41404 4.6766 9.41428 4.67617 9.41452 4.67574C9.62161 4.30676 9.84394 3.98727 10.0711 3.71594C10.113 3.66786 10.1523 3.65023 10.1859 3.64291C10.2254 3.63431 10.2761 3.6366 10.3295 3.65724C10.4366 3.69859 10.4997 3.78467 10.4997 3.9001V12.9201C10.4997 12.9991 10.4642 13.073 10.3885 13.1264C10.3884 13.1265 10.3882 13.1266 10.3881 13.1267L3.18169 18.1742C3.18145 18.1744 3.1812 18.1745 3.18096 18.1747C3.10639 18.2262 3.01483 18.2347 2.93071 18.2018C2.85008 18.1702 2.80227 18.1121 2.78784 18.0373C2.67624 17.3907 2.81512 16.5562 3.35597 15.5731C3.35622 15.5727 3.35647 15.5722 3.35672 15.5718L6.47514 9.96463Z" fill="#F7951D" stroke="#F7951D" stroke-width="1.5"/>
<path d="M17.5244 9.96444L17.5245 9.96463L20.643 15.5718C20.6432 15.5723 20.6435 15.5727 20.6438 15.5732C21.1846 16.5563 21.3234 17.3908 21.2118 18.0373C21.1974 18.1121 21.1496 18.1702 21.069 18.2018C20.9849 18.2347 20.8933 18.2262 20.8187 18.1747C20.8185 18.1746 20.8182 18.1744 20.818 18.1742L13.6116 13.1267C13.6115 13.1267 13.6114 13.1266 13.6112 13.1265C13.5355 13.073 13.5 12.9991 13.5 12.9201V3.9001C13.5 3.78467 13.5631 3.69859 13.6702 3.65724C13.7236 3.6366 13.7743 3.63431 13.8138 3.64291C13.8474 3.65023 13.8867 3.66785 13.9286 3.71592C14.1557 3.98726 14.3781 4.30677 14.5852 4.67577C14.5854 4.67619 14.5857 4.67661 14.5859 4.67704L17.5244 9.96444Z" fill="#F7951D" stroke="#F7951D" stroke-width="1.5"/>
<path d="M5.67443 19.7652L5.67621 19.764L11.8262 15.664C11.8423 15.6533 11.9066 15.625 12.0102 15.625C12.1138 15.625 12.178 15.6533 12.1942 15.664L18.3433 19.7634C18.3434 19.7635 18.3435 19.7636 18.3437 19.7637C18.6576 19.9737 18.8563 20.1517 18.9712 20.2853C18.8015 20.3326 18.5376 20.37 18.1602 20.37H5.85214C5.47791 20.368 5.21627 20.3293 5.04816 20.2814C5.16277 20.1491 5.36105 19.9729 5.67443 19.7652ZM19.0815 20.4479C19.0813 20.4479 19.0805 20.4457 19.0794 20.4416C19.0812 20.4459 19.0817 20.4479 19.0815 20.4479ZM19.148 20.2157C19.1512 20.2128 19.1531 20.2115 19.1533 20.2116C19.1535 20.2117 19.1519 20.2131 19.148 20.2157ZM4.86757 20.2071C4.86774 20.207 4.86964 20.2083 4.87274 20.2111C4.86895 20.2086 4.8674 20.2072 4.86757 20.2071ZM4.93992 20.4364C4.93887 20.4404 4.93799 20.4426 4.93781 20.4426C4.93763 20.4426 4.93815 20.4406 4.93992 20.4364Z" fill="#F7951D" stroke="#F7951D" stroke-width="1.5"/>
</svg>
